<?xml version="1.0"?>
<svg
  xmlns="http://www.w3.org/2000/svg"
  xmlns:xlink="http://www.w3.org/1999/xlink" version="1.1"
  preserveAspectRatio="xMinYMin meet"
  viewBox="-380.9999951865 -380.9999942924 761.9999894789 820.004855391"
  width="100%" height="100%"
>
  <g stroke="#000000" stroke-width="0.1%" fill="none" transform="matrix(1,0,0,-1,0,0)">
    <g stroke="rgb(0, 0, 0)"><path d="M380.9999829242,-381.1274277104L333.3749844278,-381.1274270008" /></g>
<g stroke="rgb(0, 0, 0)"><path d="M-333.3749957855,-381.1274171483L-380.999994282,-381.1274164387" /></g>
<g stroke="rgb(0, 0, 0)"><circle cx="-357.1874954675" cy="-410.2348501817" r="3.000000000000171" /></g>
<g stroke="rgb(0, 0, 0)"><circle cx="357.1874832423" cy="-410.2348607438" r="3" /></g>
<g stroke="rgb(0, 0, 0)"><path d="M333.3749847989,-353.3749950321L313.3749850969,-333.3749947339" /></g>
<g stroke="rgb(0, 0, 0)"><path d="M313.3749850969,-333.3749947339L287.7499865166,-333.3749943521" /></g>
<g stroke="rgb(0, 0, 0)"><path d="M287.7499865166,-333.3749943521L286.984619654,-333.2227534057" /></g>
<g stroke="rgb(0, 0, 0)"><path d="M286.984619654,-333.2227534057L286.3357729628,-332.7892078934" /></g>
<g stroke="rgb(0, 0, 0)"><path d="M286.3357729628,-332.7892078934L285.9022274699,-332.1403611893" /></g>
<g stroke="rgb(0, 0, 0)"><path d="M285.9022274699,-332.1403611893L285.7499865463,-331.3749943223" /></g>
<g stroke="rgb(0, 0, 0)"><path d="M285.7499865463,-331.3749943223L285.7499869281,-305.7499957419" /></g>
<g stroke="rgb(0, 0, 0)"><path d="M285.7499869281,-305.7499957419L265.7499872258,-285.7499954436" /></g>
<g stroke="rgb(0, 0, 0)"><path d="M265.7499872258,-285.7499954436L240.1249886454,-285.7499950618" /></g>
<g stroke="rgb(0, 0, 0)"><path d="M240.1249886454,-285.7499950618L239.3596217829,-285.5977541154" /></g>
<g stroke="rgb(0, 0, 0)"><path d="M239.3596217829,-285.5977541154L238.7107750918,-285.1642086031" /></g>
<g stroke="rgb(0, 0, 0)"><path d="M238.7107750918,-285.1642086031L238.2772295988,-284.515361899" /></g>
<g stroke="rgb(0, 0, 0)"><path d="M238.2772295988,-284.515361899L238.1249886752,-283.749995032" /></g>
<g stroke="rgb(0, 0, 0)"><path d="M238.1249886752,-283.749995032L238.124989057,-258.1249964516" /></g>
<g stroke="rgb(0, 0, 0)"><path d="M238.124989057,-258.1249964516L218.1249893548,-238.1249961534" /></g>
<g stroke="rgb(0, 0, 0)"><path d="M218.1249893548,-238.1249961534L210.4999907739,-238.1249960397" /></g>
<g stroke="rgb(0, 0, 0)"><path d="M210.4999907739,-238.1249960397L190.4999904763,-258.1249957414" /></g>
<g stroke="rgb(0, 0, 0)"><path d="M190.4999904763,-258.1249957414L190.4999900947,-283.7499943224" /></g>
<g stroke="rgb(0, 0, 0)"><path d="M190.4999900947,-283.7499943224L190.3477491482,-284.5153611849" /></g>
<g stroke="rgb(0, 0, 0)"><path d="M190.3477491482,-284.5153611849L189.914203636,-285.164207876" /></g>
<g stroke="rgb(0, 0, 0)"><path d="M189.914203636,-285.164207876L189.2653569318,-285.597753369" /></g>
<g stroke="rgb(0, 0, 0)"><path d="M189.2653569318,-285.597753369L188.4999900648,-285.7499942926" /></g>
<g stroke="rgb(0, 0, 0)"><path d="M188.4999900648,-285.7499942926L162.8749914837,-285.7499939108" /></g>
<g stroke="rgb(0, 0, 0)"><path d="M162.8749914837,-285.7499939108L142.8749911859,-305.7499936126" /></g>
<g stroke="rgb(0, 0, 0)"><path d="M142.8749911859,-305.7499936126L142.8749908044,-331.3749921934" /></g>
<g stroke="rgb(0, 0, 0)"><path d="M142.8749908044,-331.3749921934L142.7227498579,-332.1403590559" /></g>
<g stroke="rgb(0, 0, 0)"><path d="M142.7227498579,-332.1403590559L142.2892043456,-332.7892057471" /></g>
<g stroke="rgb(0, 0, 0)"><path d="M142.2892043456,-332.7892057471L141.6403576416,-333.22275124" /></g>
<g stroke="rgb(0, 0, 0)"><path d="M141.6403576416,-333.22275124L140.8749907746,-333.3749921636" /></g>
<g stroke="rgb(0, 0, 0)"><path d="M140.8749907746,-333.3749921636L67.6249936128,-333.3749910722" /></g>
<g stroke="rgb(0, 0, 0)"><path d="M67.6249936128,-333.3749910722L47.6249933151,-353.3749907739" /></g>
<g stroke="rgb(0, 0, 0)"><path d="M47.6249933151,-353.3749907739L47.6249929334,-378.9999893548" /></g>
<g stroke="rgb(0, 0, 0)"><path d="M47.6249929334,-378.9999893548L47.472751987,-379.7653562173" /></g>
<g stroke="rgb(0, 0, 0)"><path d="M47.472751987,-379.7653562173L47.0392064747,-380.4142029085" /></g>
<g stroke="rgb(0, 0, 0)"><path d="M47.0392064747,-380.4142029085L46.3903597706,-380.8477484015" /></g>
<g stroke="rgb(0, 0, 0)"><path d="M46.3903597706,-380.8477484015L45.6249929037,-380.999989325" /></g>
<g stroke="rgb(0, 0, 0)"><path d="M45.6249929037,-380.999989325L5.4999943227,-380.9999887349" /></g>
<g stroke="rgb(0, 0, 0)"><path d="M5.4999943227,-380.9999887349L4.7346274602,-380.8477477885" /></g>
<g stroke="rgb(0, 0, 0)"><path d="M4.7346274602,-380.8477477885L4.085780769,-380.4142022762" /></g>
<g stroke="rgb(0, 0, 0)"><path d="M4.085780769,-380.4142022762L3.652235276,-379.7653555721" /></g>
<g stroke="rgb(0, 0, 0)"><path d="M3.652235276,-379.7653555721L3.4999943525,-378.9999887051" /></g>
<g stroke="rgb(0, 0, 0)"><path d="M3.4999943525,-378.9999887051L3.4999950025,-335.3749901244" /></g>
<g stroke="rgb(0, 0, 0)"><path d="M3.4999950025,-335.3749901244L3.6522359488,-334.609623262" /></g>
<g stroke="rgb(0, 0, 0)"><path d="M3.6522359488,-334.609623262L4.0857814611,-333.9607765708" /></g>
<g stroke="rgb(0, 0, 0)"><path d="M4.0857814611,-333.9607765708L4.7346281652,-333.5272310778" /></g>
<g stroke="rgb(0, 0, 0)"><path d="M4.7346281652,-333.5272310778L5.4999950324,-333.3749901542" /></g>
<g stroke="rgb(0, 0, 0)"><path d="M5.4999950324,-333.3749901542L27.6249936128,-333.3749904839" /></g>
<g stroke="rgb(0, 0, 0)"><path d="M27.6249936128,-333.3749904839L47.6249939112,-313.3749907816" /></g>
<g stroke="rgb(0, 0, 0)"><path d="M47.6249939112,-313.3749907816L47.6249942929,-287.7499922013" /></g>
<g stroke="rgb(0, 0, 0)"><path d="M47.6249942929,-287.7499922013L47.7772352393,-286.9846253388" /></g>
<g stroke="rgb(0, 0, 0)"><path d="M47.7772352393,-286.9846253388L48.2107807516,-286.3357786476" /></g>
<g stroke="rgb(0, 0, 0)"><path d="M48.2107807516,-286.3357786476L48.8596274558,-285.9022331546" /></g>
<g stroke="rgb(0, 0, 0)"><path d="M48.8596274558,-285.9022331546L49.6249943228,-285.7499922311" /></g>
<g stroke="rgb(0, 0, 0)"><path d="M49.6249943228,-285.7499922311L122.8749914838,-285.7499933225" /></g>
<g stroke="rgb(0, 0, 0)"><path d="M122.8749914838,-285.7499933225L142.8749917821,-265.7499936202" /></g>
<g stroke="rgb(0, 0, 0)"><path d="M142.8749917821,-265.7499936202L142.874992164,-240.1249950399" /></g>
<g stroke="rgb(0, 0, 0)"><path d="M142.874992164,-240.1249950399L143.0272331102,-239.3596281774" /></g>
<g stroke="rgb(0, 0, 0)"><path d="M143.0272331102,-239.3596281774L143.4607786225,-238.7107814862" /></g>
<g stroke="rgb(0, 0, 0)"><path d="M143.4607786225,-238.7107814862L144.1096253266,-238.2772359932" /></g>
<g stroke="rgb(0, 0, 0)"><path d="M144.1096253266,-238.2772359932L144.8749921938,-238.1249950697" /></g>
<g stroke="rgb(0, 0, 0)"><path d="M144.8749921938,-238.1249950697L170.499990774,-238.1249954515" /></g>
<g stroke="rgb(0, 0, 0)"><path d="M170.499990774,-238.1249954515L190.4999910723,-218.1249957493" /></g>
<g stroke="rgb(0, 0, 0)"><path d="M190.4999910723,-218.1249957493L190.4999911859,-210.4999971691" /></g>
<g stroke="rgb(0, 0, 0)"><path d="M190.4999911859,-210.4999971691L170.4999914838,-190.4999968708" /></g>
<g stroke="rgb(0, 0, 0)"><path d="M170.4999914838,-190.4999968708L144.8749929034,-190.499996489" /></g>
<g stroke="rgb(0, 0, 0)"><path d="M144.8749929034,-190.499996489L144.1096260408,-190.3477555426" /></g>
<g stroke="rgb(0, 0, 0)"><path d="M144.1096260408,-190.3477555426L143.4607793497,-189.9142100303" /></g>
<g stroke="rgb(0, 0, 0)"><path d="M143.4607793497,-189.9142100303L143.0272338567,-189.2653633262" /></g>
<g stroke="rgb(0, 0, 0)"><path d="M143.0272338567,-189.2653633262L142.8749929331,-188.4999964592" /></g>
<g stroke="rgb(0, 0, 0)"><path d="M142.8749929331,-188.4999964592L142.8749933149,-162.8749978788" /></g>
<g stroke="rgb(0, 0, 0)"><path d="M142.8749933149,-162.8749978788L122.8749936127,-142.8749975806" /></g>
<g stroke="rgb(0, 0, 0)"><path d="M122.8749936127,-142.8749975806L115.2499950319,-142.8749974669" /></g>
<g stroke="rgb(0, 0, 0)"><path d="M115.2499950319,-142.8749974669L95.2499947343,-162.8749971686" /></g>
<g stroke="rgb(0, 0, 0)"><path d="M95.2499947343,-162.8749971686L95.2499943526,-188.4999957496" /></g>
<g stroke="rgb(0, 0, 0)"><path d="M95.2499943526,-188.4999957496L95.0977534062,-189.2653626121" /></g>
<g stroke="rgb(0, 0, 0)"><path d="M95.0977534062,-189.2653626121L94.6642078939,-189.9142093033" /></g>
<g stroke="rgb(0, 0, 0)"><path d="M94.6642078939,-189.9142093033L94.0153611897,-190.3477547963" /></g>
<g stroke="rgb(0, 0, 0)"><path d="M94.0153611897,-190.3477547963L93.2499943228,-190.4999957198" /></g>
<g stroke="rgb(0, 0, 0)"><path d="M93.2499943228,-190.4999957198L67.6249957416,-190.499995338" /></g>
<g stroke="rgb(0, 0, 0)"><path d="M67.6249957416,-190.499995338L47.624995444,-210.4999950396" /></g>
<g stroke="rgb(0, 0, 0)"><path d="M47.624995444,-210.4999950396L47.6249950621,-236.1249936206" /></g>
<g stroke="rgb(0, 0, 0)"><path d="M47.6249950621,-236.1249936206L47.5520460332,-236.9340106139" /></g>
<g stroke="rgb(0, 0, 0)"><path d="M47.5520460332,-236.9340106139L47.1249950398,-237.6249936132" /></g>
<g stroke="rgb(0, 0, 0)"><path d="M47.1249950398,-237.6249936132L46.4340120278,-238.052044586" /></g>
<g stroke="rgb(0, 0, 0)"><path d="M46.4340120278,-238.052044586L45.6249950325,-238.1249935908" /></g>
<g stroke="rgb(0, 0, 0)"><path d="M45.6249950325,-238.1249935908L5.4999964515,-238.1249929929" /></g>
<g stroke="rgb(0, 0, 0)"><path d="M5.4999964515,-238.1249929929L4.734629589,-237.9727520465" /></g>
<g stroke="rgb(0, 0, 0)"><path d="M4.734629589,-237.9727520465L4.0857828978,-237.5392065342" /></g>
<g stroke="rgb(0, 0, 0)"><path d="M4.0857828978,-237.5392065342L3.6522374049,-236.8903598301" /></g>
<g stroke="rgb(0, 0, 0)"><path d="M3.6522374049,-236.8903598301L3.4999964813,-236.1249929631" /></g>
<g stroke="rgb(0, 0, 0)"><path d="M3.4999964813,-236.1249929631L3.4999971313,-192.4999943825" /></g>
<g stroke="rgb(0, 0, 0)"><path d="M3.4999971313,-192.4999943825L3.6522380776,-191.73462752" /></g>
<g stroke="rgb(0, 0, 0)"><path d="M3.6522380776,-191.73462752L4.0857835899,-191.0857808289" /></g>
<g stroke="rgb(0, 0, 0)"><path d="M4.0857835899,-191.0857808289L4.734630294,-190.6522353359" /></g>
<g stroke="rgb(0, 0, 0)"><path d="M4.734630294,-190.6522353359L5.4999971611,-190.4999944123" /></g>
<g stroke="rgb(0, 0, 0)"><path d="M5.4999971611,-190.4999944123L27.6249957417,-190.499994742" /></g>
<g stroke="rgb(0, 0, 0)"><path d="M27.6249957417,-190.499994742L47.62499604,-170.4999950396" /></g>
<g stroke="rgb(0, 0, 0)"><path d="M47.62499604,-170.4999950396L47.6249964218,-144.8749964593" /></g>
<g stroke="rgb(0, 0, 0)"><path d="M47.6249964218,-144.8749964593L47.777237368,-144.1096295969" /></g>
<g stroke="rgb(0, 0, 0)"><path d="M47.777237368,-144.1096295969L48.2107828804,-143.4607829057" /></g>
<g stroke="rgb(0, 0, 0)"><path d="M48.2107828804,-143.4607829057L48.8596295845,-143.0272374127" /></g>
<g stroke="rgb(0, 0, 0)"><path d="M48.8596295845,-143.0272374127L49.6249964516,-142.8749964891" /></g>
<g stroke="rgb(0, 0, 0)"><path d="M49.6249964516,-142.8749964891L75.249995032,-142.8749968709" /></g>
<g stroke="rgb(0, 0, 0)"><path d="M75.249995032,-142.8749968709L95.2499953303,-122.8749971686" /></g>
<g stroke="rgb(0, 0, 0)"><path d="M95.2499953303,-122.8749971686L95.249995444,-115.2499985886" /></g>
<g stroke="rgb(0, 0, 0)"><path d="M95.249995444,-115.2499985886L75.2499957417,-95.2499982903" /></g>
<g stroke="rgb(0, 0, 0)"><path d="M75.2499957417,-95.2499982903L49.6249971612,-95.2499979085" /></g>
<g stroke="rgb(0, 0, 0)"><path d="M49.6249971612,-95.2499979085L48.8596302987,-95.097756962" /></g>
<g stroke="rgb(0, 0, 0)"><path d="M48.8596302987,-95.097756962L48.2107836076,-94.6642114497" /></g>
<g stroke="rgb(0, 0, 0)"><path d="M48.2107836076,-94.6642114497L47.7772381146,-94.0153647456" /></g>
<g stroke="rgb(0, 0, 0)"><path d="M47.7772381146,-94.0153647456L47.6249971911,-93.2499978787" /></g>
<g stroke="rgb(0, 0, 0)"><path d="M47.6249971911,-93.2499978787L47.6249975729,-67.6249992984" /></g>
<g stroke="rgb(0, 0, 0)"><path d="M47.6249975729,-67.6249992984L27.6249978707,-47.624999" /></g>
<g stroke="rgb(0, 0, 0)"><path d="M27.6249978707,-47.624999L5.4999992899,-47.6249986703" /></g>
<g stroke="rgb(0, 0, 0)"><path d="M5.4999992899,-47.6249986703L4.7346324275,-47.4727577239" /></g>
<g stroke="rgb(0, 0, 0)"><path d="M4.7346324275,-47.4727577239L4.0857857363,-47.0392122116" /></g>
<g stroke="rgb(0, 0, 0)"><path d="M4.0857857363,-47.0392122116L3.6522402433,-46.3903655075" /></g>
<g stroke="rgb(0, 0, 0)"><path d="M3.6522402433,-46.3903655075L3.4999993198,-45.6249986405" /></g>
<g stroke="rgb(0, 0, 0)"><path d="M3.4999993198,-45.6249986405L3.4999999997,-5.99e-8" /></g>
<g stroke="rgb(0, 0, 0)"><path d="M3.4999999997,-5.99e-8L-3e-10,-5.99e-8" /></g>
<g stroke="rgb(0, 0, 0)"><path d="M-3e-10,-5.99e-8L-0.0000056472,-378.9999887051" /></g>
<g stroke="rgb(0, 0, 0)"><path d="M-0.0000056472,-378.9999887051L-0.1522465937,-379.7653555676" /></g>
<g stroke="rgb(0, 0, 0)"><path d="M-0.1522465937,-379.7653555676L-0.585792106,-380.4142022588" /></g>
<g stroke="rgb(0, 0, 0)"><path d="M-0.585792106,-380.4142022588L-1.2346388101,-380.8477477518" /></g>
<g stroke="rgb(0, 0, 0)"><path d="M-1.2346388101,-380.8477477518L-2.0000056771,-380.9999886753" /></g>
<g stroke="rgb(0, 0, 0)"><path d="M-2.0000056771,-380.9999886753L-93.2500028383,-380.999987338" /></g>
<g stroke="rgb(0, 0, 0)"><path d="M-93.2500028383,-380.999987338L-94.0153697008,-380.8477463916" /></g>
<g stroke="rgb(0, 0, 0)"><path d="M-94.0153697008,-380.8477463916L-94.664216392,-380.4142008793" /></g>
<g stroke="rgb(0, 0, 0)"><path d="M-94.664216392,-380.4142008793L-95.097761885,-379.7653541752" /></g>
<g stroke="rgb(0, 0, 0)"><path d="M-95.097761885,-379.7653541752L-95.2500028085,-378.9999873082" /></g>
<g stroke="rgb(0, 0, 0)"><path d="M-95.2500028085,-378.9999873082L-95.2500024268,-353.3749887278" /></g>
<g stroke="rgb(0, 0, 0)"><path d="M-95.2500024268,-353.3749887278L-115.250002129,-333.3749884296" /></g>
<g stroke="rgb(0, 0, 0)"><path d="M-115.250002129,-333.3749884296L-188.49999929,-333.3749873381" /></g>
<g stroke="rgb(0, 0, 0)"><path d="M-188.49999929,-333.3749873381L-189.2653661525,-333.2227463917" /></g>
<g stroke="rgb(0, 0, 0)"><path d="M-189.2653661525,-333.2227463917L-189.9142128437,-332.7892008794" /></g>
<g stroke="rgb(0, 0, 0)"><path d="M-189.9142128437,-332.7892008794L-190.3477583367,-332.1403541753" /></g>
<g stroke="rgb(0, 0, 0)"><path d="M-190.3477583367,-332.1403541753L-190.4999992602,-331.3749873083" /></g>
<g stroke="rgb(0, 0, 0)"><path d="M-190.4999992602,-331.3749873083L-190.4999988784,-305.7499887279" /></g>
<g stroke="rgb(0, 0, 0)"><path d="M-190.4999988784,-305.7499887279L-210.4999985807,-285.7499884297" /></g>
<g stroke="rgb(0, 0, 0)"><path d="M-210.4999985807,-285.7499884297L-265.749995742,-285.7499876064" /></g>
<g stroke="rgb(0, 0, 0)"><path d="M-265.749995742,-285.7499876064L-285.7499960398,-305.7499873082" /></g>
<g stroke="rgb(0, 0, 0)"><path d="M-285.7499960398,-305.7499873082L-285.7499964215,-331.3749858891" /></g>
<g stroke="rgb(0, 0, 0)"><path d="M-285.7499964215,-331.3749858891L-285.902237368,-332.1403527515" /></g>
<g stroke="rgb(0, 0, 0)"><path d="M-285.902237368,-332.1403527515L-286.3357828802,-332.7891994427" /></g>
<g stroke="rgb(0, 0, 0)"><path d="M-286.3357828802,-332.7891994427L-286.9846295843,-333.2227449357" /></g>
<g stroke="rgb(0, 0, 0)"><path d="M-286.9846295843,-333.2227449357L-287.7499964513,-333.3749858593" /></g>
<g stroke="rgb(0, 0, 0)"><path d="M-287.7499964513,-333.3749858593L-313.374995032,-333.3749854774" /></g>
<g stroke="rgb(0, 0, 0)"><path d="M-313.374995032,-333.3749854774L-333.3749953301,-353.3749851794" /></g>
<g stroke="rgb(0, 0, 0)"><path d="M-333.3749953301,-353.3749851794L-333.3749966058,-439.0048505366" /></g>
<g stroke="rgb(0, 0, 0)"><path d="M-380.9999951865,-439.0048498269L-333.3749966058,-439.0048505366" /></g>
<g stroke="rgb(0, 0, 0)"><path d="M-380.9999936424,-335.3749844698L-380.9999951865,-439.0048498269" /></g>
<g stroke="rgb(0, 0, 0)"><path d="M-380.9999936424,-335.3749844698L-380.847752696,-334.6096176074" /></g>
<g stroke="rgb(0, 0, 0)"><path d="M-380.847752696,-334.6096176074L-380.4142071837,-333.9607709162" /></g>
<g stroke="rgb(0, 0, 0)"><path d="M-380.4142071837,-333.9607709162L-379.7653604796,-333.5272254232" /></g>
<g stroke="rgb(0, 0, 0)"><path d="M-379.7653604796,-333.5272254232L-378.9999936126,-333.3749844996" /></g>
<g stroke="rgb(0, 0, 0)"><path d="M-378.9999936126,-333.3749844996L-353.3749950321,-333.3749848814" /></g>
<g stroke="rgb(0, 0, 0)"><path d="M-353.3749950321,-333.3749848814L-333.3749947341,-313.3749851794" /></g>
<g stroke="rgb(0, 0, 0)"><path d="M-333.3749947341,-313.3749851794L-333.3749943521,-287.7499865988" /></g>
<g stroke="rgb(0, 0, 0)"><path d="M-333.3749943521,-287.7499865988L-333.2227534057,-286.9846197363" /></g>
<g stroke="rgb(0, 0, 0)"><path d="M-333.2227534057,-286.9846197363L-332.7892078935,-286.3357730451" /></g>
<g stroke="rgb(0, 0, 0)"><path d="M-332.7892078935,-286.3357730451L-332.1403611892,-285.9022275522" /></g>
<g stroke="rgb(0, 0, 0)"><path d="M-332.1403611892,-285.9022275522L-331.3749943222,-285.7499866286" /></g>
<g stroke="rgb(0, 0, 0)"><path d="M-331.3749943222,-285.7499866286L-305.749995742,-285.7499870104" /></g>
<g stroke="rgb(0, 0, 0)"><path d="M-305.749995742,-285.7499870104L-285.7499954438,-265.7499873082" /></g>
<g stroke="rgb(0, 0, 0)"><path d="M-285.7499954438,-265.7499873082L-285.7499929105,-95.7499929036" /></g>
<g stroke="rgb(0, 0, 0)"><path d="M-285.2499929031,-95.249992911L-240.1249943225,-95.2499935834" /></g>
<g stroke="rgb(0, 0, 0)"><path d="M-240.1249943225,-95.2499935834L-239.3596274602,-95.4022345298" /></g>
<g stroke="rgb(0, 0, 0)"><path d="M-239.3596274602,-95.4022345298L-238.710780769,-95.8357800421" /></g>
<g stroke="rgb(0, 0, 0)"><path d="M-238.710780769,-95.8357800421L-238.277235276,-96.4846267462" /></g>
<g stroke="rgb(0, 0, 0)"><path d="M-238.277235276,-96.4846267462L-238.1249943524,-97.2499936132" /></g>
<g stroke="rgb(0, 0, 0)"><path d="M-238.1249943524,-97.2499936132L-238.1249957418,-190.4999907745" /></g>
<g stroke="rgb(0, 0, 0)"><path d="M-238.1249957418,-190.4999907745L-210.4999971615,-190.4999911861" /></g>
<g stroke="rgb(0, 0, 0)"><path d="M-210.4999971615,-190.4999911861L-190.4999968633,-170.4999914839" /></g>
<g stroke="rgb(0, 0, 0)"><path d="M-190.4999968633,-170.4999914839L-190.4999950397,-48.1249957422" /></g>
<g stroke="rgb(0, 0, 0)"><path d="M-190.9999950322,-47.6249957347L-236.124993613,-47.6249950623" /></g>
<g stroke="rgb(0, 0, 0)"><path d="M-236.124993613,-47.6249950623L-236.8903604755,-47.4727541159" /></g>
<g stroke="rgb(0, 0, 0)"><path d="M-236.8903604755,-47.4727541159L-237.5392071667,-47.0392086036" /></g>
<g stroke="rgb(0, 0, 0)"><path d="M-237.5392071667,-47.0392086036L-237.9727526596,-46.3903618995" /></g>
<g stroke="rgb(0, 0, 0)"><path d="M-237.9727526596,-46.3903618995L-238.1249935831,-45.6249950325" /></g>
<g stroke="rgb(0, 0, 0)"><path d="M-238.1249935831,-45.6249950325L-238.1249921936,47.6250021288" /></g>
<g stroke="rgb(0, 0, 0)"><path d="M-238.1249921936,47.6250021288L-285.7499907742,47.6250028384" /></g>
<g stroke="rgb(0, 0, 0)"><path d="M-285.7499907742,47.6250028384L-285.7499928956,-94.7499929036" /></g>
<g stroke="rgb(0, 0, 0)"><path d="M-286.2499929031,-95.2499928961L-331.3749914838,-95.2499922238" /></g>
<g stroke="rgb(0, 0, 0)"><path d="M-331.3749914838,-95.2499922238L-332.1403583462,-95.0977512773" /></g>
<g stroke="rgb(0, 0, 0)"><path d="M-332.1403583462,-95.0977512773L-332.7892050374,-94.664205765" /></g>
<g stroke="rgb(0, 0, 0)"><path d="M-332.7892050374,-94.664205765L-333.2227505303,-94.0153590609" /></g>
<g stroke="rgb(0, 0, 0)"><path d="M-333.2227505303,-94.0153590609L-333.374991454,-93.2499921939" /></g>
<g stroke="rgb(0, 0, 0)"><path d="M-333.374991454,-93.2499921939L-333.3749893549,47.625003548" /></g>
<g stroke="rgb(0, 0, 0)"><path d="M-333.3749893549,47.625003548L-378.9999879057,47.6250042278" /></g>
<g stroke="rgb(0, 0, 0)"><path d="M-378.9999879057,47.6250042278L-379.7653547682,47.7772451742" /></g>
<g stroke="rgb(0, 0, 0)"><path d="M-379.7653547682,47.7772451742L-380.4142014595,48.2107906865" /></g>
<g stroke="rgb(0, 0, 0)"><path d="M-380.4142014595,48.2107906865L-380.8477469525,48.8596373906" /></g>
<g stroke="rgb(0, 0, 0)"><path d="M-380.8477469525,48.8596373906L-380.999987876,49.6250042576" /></g>
<g stroke="rgb(0, 0, 0)"><path d="M-380.999987876,49.6250042576L-380.999987226,93.2500028383" /></g>
<g stroke="rgb(0, 0, 0)"><path d="M-380.999987226,93.2500028383L-380.8477462796,94.0153697007" /></g>
<g stroke="rgb(0, 0, 0)"><path d="M-380.8477462796,94.0153697007L-380.4142007672,94.6642163919" /></g>
<g stroke="rgb(0, 0, 0)"><path d="M-380.4142007672,94.6642163919L-379.7653540632,95.0977618849" /></g>
<g stroke="rgb(0, 0, 0)"><path d="M-379.7653540632,95.0977618849L-378.9999871961,95.2500028085" /></g>
<g stroke="rgb(0, 0, 0)"><path d="M-378.9999871961,95.2500028085L-285.7499900348,95.250001419" /></g>
<g stroke="rgb(0, 0, 0)"><path d="M-285.7499900348,95.250001419L-285.7499893849,140.8749999997" /></g>
<g stroke="rgb(0, 0, 0)"><path d="M-285.7499893849,140.8749999997L-285.5977484385,141.6403668621" /></g>
<g stroke="rgb(0, 0, 0)"><path d="M-285.5977484385,141.6403668621L-285.1642029263,142.2892135533" /></g>
<g stroke="rgb(0, 0, 0)"><path d="M-285.1642029263,142.2892135533L-284.5153562221,142.7227590463" /></g>
<g stroke="rgb(0, 0, 0)"><path d="M-284.5153562221,142.7227590463L-283.749989355,142.8749999699" /></g>
<g stroke="rgb(0, 0, 0)"><path d="M-283.749989355,142.8749999699L-258.1249907745,142.8749995881" /></g>
<g stroke="rgb(0, 0, 0)"><path d="M-258.1249907745,142.8749995881L-238.1249904765,162.8749992901" /></g>
<g stroke="rgb(0, 0, 0)"><path d="M-238.1249904765,162.8749992901L-238.1249896533,218.1249964511" /></g>
<g stroke="rgb(0, 0, 0)"><path d="M-238.1249896533,218.1249964511L-258.1249893557,238.1249967494" /></g>
<g stroke="rgb(0, 0, 0)"><path d="M-258.1249893557,238.1249967494L-283.7499879359,238.1249971312" /></g>
<g stroke="rgb(0, 0, 0)"><path d="M-283.7499879359,238.1249971312L-284.5153547983,238.2772380776" /></g>
<g stroke="rgb(0, 0, 0)"><path d="M-284.5153547983,238.2772380776L-285.1642014895,238.7107835899" /></g>
<g stroke="rgb(0, 0, 0)"><path d="M-285.1642014895,238.7107835899L-285.5977469825,239.359630294" /></g>
<g stroke="rgb(0, 0, 0)"><path d="M-285.5977469825,239.359630294L-285.7499879061,240.124997161" /></g>
<g stroke="rgb(0, 0, 0)"><path d="M-285.7499879061,240.124997161L-285.7499875244,265.7499957414" /></g>
<g stroke="rgb(0, 0, 0)"><path d="M-285.7499875244,265.7499957414L-305.7499872266,285.7499960396" /></g>
<g stroke="rgb(0, 0, 0)"><path d="M-305.7499872266,285.7499960396L-331.3749858068,285.7499964215" /></g>
<g stroke="rgb(0, 0, 0)"><path d="M-331.3749858068,285.7499964215L-332.1403526694,285.9022373678" /></g>
<g stroke="rgb(0, 0, 0)"><path d="M-332.1403526694,285.9022373678L-332.7891993605,286.3357828802" /></g>
<g stroke="rgb(0, 0, 0)"><path d="M-332.7891993605,286.3357828802L-333.2227448535,286.9846295843" /></g>
<g stroke="rgb(0, 0, 0)"><path d="M-333.2227448535,286.9846295843L-333.3749857771,287.7499964513" /></g>
<g stroke="rgb(0, 0, 0)"><path d="M-333.3749857771,287.7499964513L-333.3749853953,313.3749950319" /></g>
<g stroke="rgb(0, 0, 0)"><path d="M-333.3749853953,313.3749950319L-353.3749850974,333.3749953299" /></g>
<g stroke="rgb(0, 0, 0)"><path d="M-353.3749850974,333.3749953299L-378.9999836779,333.3749957117" /></g>
<g stroke="rgb(0, 0, 0)"><path d="M-378.9999836779,333.3749957117L-379.7653505403,333.5272366581" /></g>
<g stroke="rgb(0, 0, 0)"><path d="M-379.7653505403,333.5272366581L-380.4141972315,333.9607821704" /></g>
<g stroke="rgb(0, 0, 0)"><path d="M-380.4141972315,333.9607821704L-380.8477427245,334.6096288745" /></g>
<g stroke="rgb(0, 0, 0)"><path d="M-380.8477427245,334.6096288745L-380.999983648,335.3749957415" /></g>
<g stroke="rgb(0, 0, 0)"><path d="M-380.999983648,335.3749957415L-380.9999829981,378.9999943222" /></g>
<g stroke="rgb(0, 0, 0)"><path d="M-380.9999829981,378.9999943222L-380.8477420517,379.7653611847" /></g>
<g stroke="rgb(0, 0, 0)"><path d="M-380.8477420517,379.7653611847L-380.4141965394,380.4142078758" /></g>
<g stroke="rgb(0, 0, 0)"><path d="M-380.4141965394,380.4142078758L-379.7653498353,380.8477533688" /></g>
<g stroke="rgb(0, 0, 0)"><path d="M-379.7653498353,380.8477533688L-378.9999829682,380.9999942924" /></g>
<g stroke="rgb(0, 0, 0)"><path d="M-378.9999829682,380.9999942924L-335.3749843876,380.9999936424" /></g>
<g stroke="rgb(0, 0, 0)"><path d="M-335.3749843876,380.9999936424L-334.6096175251,380.847752696" /></g>
<g stroke="rgb(0, 0, 0)"><path d="M-334.6096175251,380.847752696L-333.9607708339,380.4142071837" /></g>
<g stroke="rgb(0, 0, 0)"><path d="M-333.9607708339,380.4142071837L-333.527225341,379.7653604795" /></g>
<g stroke="rgb(0, 0, 0)"><path d="M-333.527225341,379.7653604795L-333.3749844174,378.9999936125" /></g>
<g stroke="rgb(0, 0, 0)"><path d="M-333.3749844174,378.9999936125L-333.3749847993,353.3749950319" /></g>
<g stroke="rgb(0, 0, 0)"><path d="M-333.3749847993,353.3749950319L-313.3749850973,333.3749947339" /></g>
<g stroke="rgb(0, 0, 0)"><path d="M-313.3749850973,333.3749947339L-287.7499865165,333.3749943521" /></g>
<g stroke="rgb(0, 0, 0)"><path d="M-287.7499865165,333.3749943521L-286.9846196541,333.2227534057" /></g>
<g stroke="rgb(0, 0, 0)"><path d="M-286.9846196541,333.2227534057L-286.335772963,332.7892078934" /></g>
<g stroke="rgb(0, 0, 0)"><path d="M-286.335772963,332.7892078934L-285.9022274699,332.1403611893" /></g>
<g stroke="rgb(0, 0, 0)"><path d="M-285.9022274699,332.1403611893L-285.7499865464,331.3749943223" /></g>
<g stroke="rgb(0, 0, 0)"><path d="M-285.7499865464,331.3749943223L-285.7499869284,305.7499957415" /></g>
<g stroke="rgb(0, 0, 0)"><path d="M-285.7499869284,305.7499957415L-265.7499872266,285.7499954436" /></g>
<g stroke="rgb(0, 0, 0)"><path d="M-265.7499872266,285.7499954436L-240.1249886455,285.7499950618" /></g>
<g stroke="rgb(0, 0, 0)"><path d="M-240.1249886455,285.7499950618L-239.3596217831,285.5977541154" /></g>
<g stroke="rgb(0, 0, 0)"><path d="M-239.3596217831,285.5977541154L-238.710775092,285.1642086031" /></g>
<g stroke="rgb(0, 0, 0)"><path d="M-238.710775092,285.1642086031L-238.2772295989,284.515361899" /></g>
<g stroke="rgb(0, 0, 0)"><path d="M-238.2772295989,284.515361899L-238.1249886754,283.749995032" /></g>
<g stroke="rgb(0, 0, 0)"><path d="M-238.1249886754,283.749995032L-238.1249890573,258.1249964511" /></g>
<g stroke="rgb(0, 0, 0)"><path d="M-238.1249890573,258.1249964511L-218.1249893555,238.1249961534" /></g>
<g stroke="rgb(0, 0, 0)"><path d="M-218.1249893555,238.1249961534L-162.8749921946,238.1249953301" /></g>
<g stroke="rgb(0, 0, 0)"><path d="M-162.8749921946,238.1249953301L-142.8749918961,258.1249950326" /></g>
<g stroke="rgb(0, 0, 0)"><path d="M-142.8749918961,258.1249950326L-142.8749915141,283.7499936128" /></g>
<g stroke="rgb(0, 0, 0)"><path d="M-142.8749915141,283.7499936128L-142.7227505678,284.5153604752" /></g>
<g stroke="rgb(0, 0, 0)"><path d="M-142.7227505678,284.5153604752L-142.2892050555,285.1642071664" /></g>
<g stroke="rgb(0, 0, 0)"><path d="M-142.2892050555,285.1642071664L-141.6403583514,285.5977526594" /></g>
<g stroke="rgb(0, 0, 0)"><path d="M-141.6403583514,285.5977526594L-140.8749914843,285.749993583" /></g>
<g stroke="rgb(0, 0, 0)"><path d="M-140.8749914843,285.749993583L-67.6249943236,285.7499924915" /></g>
<g stroke="rgb(0, 0, 0)"><path d="M-67.6249943236,285.7499924915L-47.6249940251,305.749992194" /></g>
<g stroke="rgb(0, 0, 0)"><path d="M-47.6249940251,305.749992194L-47.6249936431,331.3749907742" /></g>
<g stroke="rgb(0, 0, 0)"><path d="M-47.6249936431,331.3749907742L-47.4727526968,332.1403576366" /></g>
<g stroke="rgb(0, 0, 0)"><path d="M-47.4727526968,332.1403576366L-47.0392071844,332.7892043278" /></g>
<g stroke="rgb(0, 0, 0)"><path d="M-47.0392071844,332.7892043278L-46.3903604804,333.2227498208" /></g>
<g stroke="rgb(0, 0, 0)"><path d="M-46.3903604804,333.2227498208L-45.6249936133,333.3749907444" /></g>
<g stroke="rgb(0, 0, 0)"><path d="M-45.6249936133,333.3749907444L3.500004967,333.3749900117" /></g>
<g stroke="rgb(0, 0, 0)"><path d="M3.500004967,333.3749900117L3.5000056467,378.9999885931" /></g>
<g stroke="rgb(0, 0, 0)"><path d="M3.5000056467,378.9999885931L3.6522465931,379.7653554555" /></g>
<g stroke="rgb(0, 0, 0)"><path d="M3.6522465931,379.7653554555L4.0857921053,380.4142021467" /></g>
<g stroke="rgb(0, 0, 0)"><path d="M4.0857921053,380.4142021467L4.7346388095,380.8477476397" /></g>
<g stroke="rgb(0, 0, 0)"><path d="M4.7346388095,380.8477476397L5.5000056765,380.9999885632" /></g>
<g stroke="rgb(0, 0, 0)"><path d="M5.5000056765,380.9999885632L45.6250042576,380.9999879654" /></g>
<g stroke="rgb(0, 0, 0)"><path d="M45.6250042576,380.9999879654L46.39037112,380.847747019" /></g>
<g stroke="rgb(0, 0, 0)"><path d="M46.39037112,380.847747019L47.0392178113,380.4142015067" /></g>
<g stroke="rgb(0, 0, 0)"><path d="M47.0392178113,380.4142015067L47.4727633042,379.7653548026" /></g>
<g stroke="rgb(0, 0, 0)"><path d="M47.4727633042,379.7653548026L47.6250042278,378.9999879355" /></g>
<g stroke="rgb(0, 0, 0)"><path d="M47.6250042278,378.9999879355L47.6250028384,285.7499907743" /></g>
<g stroke="rgb(0, 0, 0)"><path d="M47.6250028384,285.7499907743L140.8749999996,285.7499893848" /></g>
<g stroke="rgb(0, 0, 0)"><path d="M140.8749999996,285.7499893848L141.640366862,285.5977484384" /></g>
<g stroke="rgb(0, 0, 0)"><path d="M141.640366862,285.5977484384L142.2892135532,285.1642029261" /></g>
<g stroke="rgb(0, 0, 0)"><path d="M142.2892135532,285.1642029261L142.7227590462,284.515356222" /></g>
<g stroke="rgb(0, 0, 0)"><path d="M142.7227590462,284.515356222L142.8749999698,283.749989355" /></g>
<g stroke="rgb(0, 0, 0)"><path d="M142.8749999698,283.749989355L142.8749992975,238.6249907744" /></g>
<g stroke="rgb(0, 0, 0)"><path d="M143.3749992901,238.1249907669L238.1249964514,238.1249893551" /></g>
<g stroke="rgb(0, 0, 0)"><path d="M238.1249964514,238.1249893551L238.1249971311,283.7499879358" /></g>
<g stroke="rgb(0, 0, 0)"><path d="M238.1249971311,283.7499879358L238.2772380774,284.5153547983" /></g>
<g stroke="rgb(0, 0, 0)"><path d="M238.2772380774,284.5153547983L238.7107835897,285.1642014894" /></g>
<g stroke="rgb(0, 0, 0)"><path d="M238.7107835897,285.1642014894L239.3596302938,285.5977469824" /></g>
<g stroke="rgb(0, 0, 0)"><path d="M239.3596302938,285.5977469824L240.1249971608,285.749987906" /></g>
<g stroke="rgb(0, 0, 0)"><path d="M240.1249971608,285.749987906L265.7499957412,285.7499875242" /></g>
<g stroke="rgb(0, 0, 0)"><path d="M265.7499957412,285.7499875242L285.7499960394,305.7499872264" /></g>
<g stroke="rgb(0, 0, 0)"><path d="M285.7499960394,305.7499872264L285.7499964214,331.3749858068" /></g>
<g stroke="rgb(0, 0, 0)"><path d="M285.7499964214,331.3749858068L285.9022373678,332.1403526693" /></g>
<g stroke="rgb(0, 0, 0)"><path d="M285.9022373678,332.1403526693L286.3357828801,332.7891993605" /></g>
<g stroke="rgb(0, 0, 0)"><path d="M286.3357828801,332.7891993605L286.9846295842,333.2227448534" /></g>
<g stroke="rgb(0, 0, 0)"><path d="M286.9846295842,333.2227448534L287.7499964513,333.374985777" /></g>
<g stroke="rgb(0, 0, 0)"><path d="M287.7499964513,333.374985777L313.3749950314,333.3749853952" /></g>
<g stroke="rgb(0, 0, 0)"><path d="M313.3749950314,333.3749853952L333.3749953299,353.3749850975" /></g>
<g stroke="rgb(0, 0, 0)"><path d="M333.3749953299,353.3749850975L333.3749957117,378.9999836779" /></g>
<g stroke="rgb(0, 0, 0)"><path d="M333.3749957117,378.9999836779L333.5272366581,379.7653505403" /></g>
<g stroke="rgb(0, 0, 0)"><path d="M333.5272366581,379.7653505403L333.9607821704,380.4141972315" /></g>
<g stroke="rgb(0, 0, 0)"><path d="M333.9607821704,380.4141972315L334.6096288745,380.8477427245" /></g>
<g stroke="rgb(0, 0, 0)"><path d="M334.6096288745,380.8477427245L335.3749957415,380.999983648" /></g>
<g stroke="rgb(0, 0, 0)"><path d="M335.3749957415,380.999983648L378.9999943221,380.999982998" /></g>
<g stroke="rgb(0, 0, 0)"><path d="M378.9999943221,380.999982998L379.7653611846,380.8477420516" /></g>
<g stroke="rgb(0, 0, 0)"><path d="M379.7653611846,380.8477420516L380.4142078758,380.4141965393" /></g>
<g stroke="rgb(0, 0, 0)"><path d="M380.4142078758,380.4141965393L380.8477533687,379.7653498352" /></g>
<g stroke="rgb(0, 0, 0)"><path d="M380.8477533687,379.7653498352L380.9999942924,378.9999829682" /></g>
<g stroke="rgb(0, 0, 0)"><path d="M380.9999942924,378.9999829682L380.9999936424,335.3749843877" /></g>
<g stroke="rgb(0, 0, 0)"><path d="M380.9999936424,335.3749843877L380.8477526959,334.6096175252" /></g>
<g stroke="rgb(0, 0, 0)"><path d="M380.8477526959,334.6096175252L380.4142071836,333.960770834" /></g>
<g stroke="rgb(0, 0, 0)"><path d="M380.4142071836,333.960770834L379.7653604795,333.527225341" /></g>
<g stroke="rgb(0, 0, 0)"><path d="M379.7653604795,333.527225341L378.9999936124,333.3749844174" /></g>
<g stroke="rgb(0, 0, 0)"><path d="M378.9999936124,333.3749844174L353.3749950315,333.3749847992" /></g>
<g stroke="rgb(0, 0, 0)"><path d="M353.3749950315,333.3749847992L333.3749947338,313.3749850974" /></g>
<g stroke="rgb(0, 0, 0)"><path d="M333.3749947338,313.3749850974L333.3749943519,287.7499865165" /></g>
<g stroke="rgb(0, 0, 0)"><path d="M333.3749943519,287.7499865165L333.2227534055,286.9846196541" /></g>
<g stroke="rgb(0, 0, 0)"><path d="M333.2227534055,286.9846196541L332.7892078932,286.3357729629" /></g>
<g stroke="rgb(0, 0, 0)"><path d="M332.7892078932,286.3357729629L332.1403611891,285.9022274699" /></g>
<g stroke="rgb(0, 0, 0)"><path d="M332.1403611891,285.9022274699L331.3749943221,285.7499865463" /></g>
<g stroke="rgb(0, 0, 0)"><path d="M331.3749943221,285.7499865463L305.7499957413,285.7499869282" /></g>
<g stroke="rgb(0, 0, 0)"><path d="M305.7499957413,285.7499869282L285.7499954434,265.7499872264" /></g>
<g stroke="rgb(0, 0, 0)"><path d="M285.7499954434,265.7499872264L285.7499929106,95.7499929036" /></g>
<g stroke="rgb(0, 0, 0)"><path d="M285.2499929031,95.249992911L240.1249943223,95.2499935834" /></g>
<g stroke="rgb(0, 0, 0)"><path d="M240.1249943223,95.2499935834L239.3596274598,95.4022345298" /></g>
<g stroke="rgb(0, 0, 0)"><path d="M239.3596274598,95.4022345298L238.7107807685,95.8357800421" /></g>
<g stroke="rgb(0, 0, 0)"><path d="M238.7107807685,95.8357800421L238.2772352755,96.4846267462" /></g>
<g stroke="rgb(0, 0, 0)"><path d="M238.2772352755,96.4846267462L238.1249943521,97.2499936132" /></g>
<g stroke="rgb(0, 0, 0)"><path d="M238.1249943521,97.2499936132L238.1249957418,190.4999907745" /></g>
<g stroke="rgb(0, 0, 0)"><path d="M238.1249957418,190.4999907745L190.4999971611,190.4999914841" /></g>
<g stroke="rgb(0, 0, 0)"><path d="M190.4999971611,190.4999914841L190.4999964812,144.8749929035" /></g>
<g stroke="rgb(0, 0, 0)"><path d="M190.4999964812,144.8749929035L190.3477555346,144.109626041" /></g>
<g stroke="rgb(0, 0, 0)"><path d="M190.3477555346,144.109626041L189.9142100223,143.4607793498" /></g>
<g stroke="rgb(0, 0, 0)"><path d="M189.9142100223,143.4607793498L189.2653633183,143.0272338568" /></g>
<g stroke="rgb(0, 0, 0)"><path d="M189.2653633183,143.0272338568L188.4999964514,142.8749929333" /></g>
<g stroke="rgb(0, 0, 0)"><path d="M188.4999964514,142.8749929333L162.8749978707,142.8749933151" /></g>
<g stroke="rgb(0, 0, 0)"><path d="M162.8749978707,142.8749933151L142.8749975728,122.8749936131" /></g>
<g stroke="rgb(0, 0, 0)"><path d="M142.8749975728,122.8749936131L142.8749971687,95.7499950324" /></g>
<g stroke="rgb(0, 0, 0)"><path d="M143.3749971613,95.249995025L188.4999957418,95.2499943526" /></g>
<g stroke="rgb(0, 0, 0)"><path d="M188.4999957418,95.2499943526L189.2653626041,95.0977534062" /></g>
<g stroke="rgb(0, 0, 0)"><path d="M189.2653626041,95.0977534062L189.9142092953,94.6642078939" /></g>
<g stroke="rgb(0, 0, 0)"><path d="M189.9142092953,94.6642078939L190.3477547883,94.0153611898" /></g>
<g stroke="rgb(0, 0, 0)"><path d="M190.3477547883,94.0153611898L190.499995712,93.2499943228" /></g>
<g stroke="rgb(0, 0, 0)"><path d="M190.499995712,93.2499943228L190.4999950323,47.6249957422" /></g>
<g stroke="rgb(0, 0, 0)"><path d="M190.4999950323,47.6249957422L236.1249936126,47.6249950623" /></g>
<g stroke="rgb(0, 0, 0)"><path d="M236.1249936126,47.6249950623L236.890360475,47.472754116" /></g>
<g stroke="rgb(0, 0, 0)"><path d="M236.890360475,47.472754116L237.5392071662,47.0392086036" /></g>
<g stroke="rgb(0, 0, 0)"><path d="M237.5392071662,47.0392086036L237.9727526592,46.3903618995" /></g>
<g stroke="rgb(0, 0, 0)"><path d="M237.9727526592,46.3903618995L238.1249935828,45.6249950325" /></g>
<g stroke="rgb(0, 0, 0)"><path d="M238.1249935828,45.6249950325L238.1249929032,-0.0000035481" /></g>
<g stroke="rgb(0, 0, 0)"><path d="M238.1249929032,-0.0000035481L285.749991484,-0.0000042577" /></g>
<g stroke="rgb(0, 0, 0)"><path d="M285.749991484,-0.0000042577L285.7499928957,94.7499929036" /></g>
<g stroke="rgb(0, 0, 0)"><path d="M286.2499929031,95.2499928961L331.3749914838,95.2499922237" /></g>
<g stroke="rgb(0, 0, 0)"><path d="M331.3749914838,95.2499922237L332.1403583461,95.0977512774" /></g>
<g stroke="rgb(0, 0, 0)"><path d="M332.1403583461,95.0977512774L332.7892050374,94.664205765" /></g>
<g stroke="rgb(0, 0, 0)"><path d="M332.7892050374,94.664205765L333.2227505303,94.0153590609" /></g>
<g stroke="rgb(0, 0, 0)"><path d="M333.2227505303,94.0153590609L333.374991454,93.2499921939" /></g>
<g stroke="rgb(0, 0, 0)"><path d="M333.374991454,93.2499921939L333.3749900646,-0.0000049674" /></g>
<g stroke="rgb(0, 0, 0)"><path d="M333.3749900646,-0.0000049674L378.9999886451,-0.0000056472" /></g>
<g stroke="rgb(0, 0, 0)"><path d="M378.9999886451,-0.0000056472L379.7653555076,-0.1522465935" /></g>
<g stroke="rgb(0, 0, 0)"><path d="M379.7653555076,-0.1522465935L380.4142021987,-0.5857921059" /></g>
<g stroke="rgb(0, 0, 0)"><path d="M380.4142021987,-0.5857921059L380.8477476917,-1.23463881" /></g>
<g stroke="rgb(0, 0, 0)"><path d="M380.8477476917,-1.23463881L380.9999886154,-2.000005677" /></g>
<g stroke="rgb(0, 0, 0)"><path d="M380.9999886154,-2.000005677L380.9999879653,-45.6250042576" /></g>
<g stroke="rgb(0, 0, 0)"><path d="M380.9999879653,-45.6250042576L380.8477470188,-46.3903711201" /></g>
<g stroke="rgb(0, 0, 0)"><path d="M380.8477470188,-46.3903711201L380.4142015066,-47.0392178113" /></g>
<g stroke="rgb(0, 0, 0)"><path d="M380.4142015066,-47.0392178113L379.7653548025,-47.4727633042" /></g>
<g stroke="rgb(0, 0, 0)"><path d="M379.7653548025,-47.4727633042L378.9999879355,-47.6250042278" /></g>
<g stroke="rgb(0, 0, 0)"><path d="M378.9999879355,-47.6250042278L333.3749893549,-47.625003548" /></g>
<g stroke="rgb(0, 0, 0)"><path d="M333.3749893549,-47.625003548L333.3749879653,-140.8750007093" /></g>
<g stroke="rgb(0, 0, 0)"><path d="M333.3749879653,-140.8750007093L333.2227470188,-141.6403675718" /></g>
<g stroke="rgb(0, 0, 0)"><path d="M333.2227470188,-141.6403675718L332.7892015065,-142.2892142629" /></g>
<g stroke="rgb(0, 0, 0)"><path d="M332.7892015065,-142.2892142629L332.1403548024,-142.7227597559" /></g>
<g stroke="rgb(0, 0, 0)"><path d="M332.1403548024,-142.7227597559L331.3749879355,-142.8750006795" /></g>
<g stroke="rgb(0, 0, 0)"><path d="M331.3749879355,-142.8750006795L305.7499893545,-142.8750002977" /></g>
<g stroke="rgb(0, 0, 0)"><path d="M305.7499893545,-142.8750002977L285.7499890568,-162.8749999994" /></g>
<g stroke="rgb(0, 0, 0)"><path d="M285.7499890568,-162.8749999994L285.7499886752,-188.4999985803" /></g>
<g stroke="rgb(0, 0, 0)"><path d="M285.7499886752,-188.4999985803L285.5977477288,-189.2653654428" /></g>
<g stroke="rgb(0, 0, 0)"><path d="M285.5977477288,-189.2653654428L285.1642022165,-189.914212134" /></g>
<g stroke="rgb(0, 0, 0)"><path d="M285.1642022165,-189.914212134L284.5153555123,-190.347757627" /></g>
<g stroke="rgb(0, 0, 0)"><path d="M284.5153555123,-190.347757627L283.7499886453,-190.4999985505" /></g>
<g stroke="rgb(0, 0, 0)"><path d="M283.7499886453,-190.4999985505L258.1249900644,-190.4999981687" /></g>
<g stroke="rgb(0, 0, 0)"><path d="M258.1249900644,-190.4999981687L238.1249897666,-210.4999978705" /></g>
<g stroke="rgb(0, 0, 0)"><path d="M238.1249897666,-210.4999978705L238.1249896531,-218.1249964516" /></g>
<g stroke="rgb(0, 0, 0)"><path d="M238.1249896531,-218.1249964516L258.1249893547,-238.1249967494" /></g>
<g stroke="rgb(0, 0, 0)"><path d="M258.1249893547,-238.1249967494L283.7499879357,-238.1249971312" /></g>
<g stroke="rgb(0, 0, 0)"><path d="M283.7499879357,-238.1249971312L284.5153547982,-238.2772380776" /></g>
<g stroke="rgb(0, 0, 0)"><path d="M284.5153547982,-238.2772380776L285.1642014894,-238.7107835899" /></g>
<g stroke="rgb(0, 0, 0)"><path d="M285.1642014894,-238.7107835899L285.5977469823,-239.359630294" /></g>
<g stroke="rgb(0, 0, 0)"><path d="M285.5977469823,-239.359630294L285.7499879059,-240.124997161" /></g>
<g stroke="rgb(0, 0, 0)"><path d="M285.7499879059,-240.124997161L285.7499875241,-265.7499957419" /></g>
<g stroke="rgb(0, 0, 0)"><path d="M285.7499875241,-265.7499957419L305.7499872258,-285.7499960396" /></g>
<g stroke="rgb(0, 0, 0)"><path d="M305.7499872258,-285.7499960396L331.3749858067,-285.7499964215" /></g>
<g stroke="rgb(0, 0, 0)"><path d="M331.3749858067,-285.7499964215L332.1403526693,-285.9022373678" /></g>
<g stroke="rgb(0, 0, 0)"><path d="M332.1403526693,-285.9022373678L332.7891993604,-286.3357828802" /></g>
<g stroke="rgb(0, 0, 0)"><path d="M332.7891993604,-286.3357828802L333.2227448534,-286.9846295843" /></g>
<g stroke="rgb(0, 0, 0)"><path d="M333.2227448534,-286.9846295843L333.374985777,-287.7499964513" /></g>
<g stroke="rgb(0, 0, 0)"><path d="M333.374985777,-287.7499964513L333.374985395,-313.3749950321" /></g>
<g stroke="rgb(0, 0, 0)"><path d="M333.374985395,-313.3749950321L353.3749850968,-333.3749953299" /></g>
<g stroke="rgb(0, 0, 0)"><path d="M353.3749850968,-333.3749953299L378.9999836778,-333.3749957118" /></g>
<g stroke="rgb(0, 0, 0)"><path d="M378.9999836778,-333.3749957118L379.7653505403,-333.5272366581" /></g>
<g stroke="rgb(0, 0, 0)"><path d="M379.7653505403,-333.5272366581L380.4141972314,-333.9607821704" /></g>
<g stroke="rgb(0, 0, 0)"><path d="M380.4141972314,-333.9607821704L380.8477427244,-334.6096288745" /></g>
<g stroke="rgb(0, 0, 0)"><path d="M380.8477427244,-334.6096288745L380.9999836481,-335.3749957415" /></g>
<g stroke="rgb(0, 0, 0)"><path d="M380.999982104,-439.0048610986L380.9999836481,-335.3749957415" /></g>
<g stroke="rgb(0, 0, 0)"><path d="M333.3749835233,-439.004860389L380.999982104,-439.0048610986" /></g>
<g stroke="rgb(0, 0, 0)"><path d="M333.3749835233,-439.004860389L333.3749847989,-353.3749950321" /></g>
<g stroke="rgb(0, 0, 0)"><path d="M47.6250021288,238.1249921936L142.3749992901,238.1249907818" /></g>
<g stroke="rgb(0, 0, 0)"><path d="M47.6250014192,190.499993613L47.6250021288,238.1249921936" /></g>
<g stroke="rgb(0, 0, 0)"><path d="M93.2499999998,190.4999929332L47.6250014192,190.499993613" /></g>
<g stroke="rgb(0, 0, 0)"><path d="M94.0153668621,190.3477519868L93.2499999998,190.4999929332" /></g>
<g stroke="rgb(0, 0, 0)"><path d="M94.6642135532,189.9142064745L94.0153668621,190.3477519868" /></g>
<g stroke="rgb(0, 0, 0)"><path d="M95.0977590462,189.2653597703L94.6642135532,189.9142064745" /></g>
<g stroke="rgb(0, 0, 0)"><path d="M95.2499999699,188.4999929034L95.0977590462,189.2653597703" /></g>
<g stroke="rgb(0, 0, 0)"><path d="M95.2499992977,143.3749943227L95.2499999699,188.4999929034" /></g>
<g stroke="rgb(0, 0, 0)"><path d="M47.6250007096,142.8749950323L94.7499992902,142.8749943302" /></g>
<g stroke="rgb(0, 0, 0)"><path d="M47.6249999999,95.2499964517L47.6250007096,142.8749950323" /></g>
<g stroke="rgb(0, 0, 0)"><path d="M75.2499985802,95.2499960401L47.6249999999,95.2499964517" /></g>
<g stroke="rgb(0, 0, 0)"><path d="M95.2499988784,115.2499957423L75.2499985802,95.2499960401" /></g>
<g stroke="rgb(0, 0, 0)"><path d="M95.2499992828,142.3749943227L95.2499988784,115.2499957423" /></g>
<g stroke="rgb(0, 0, 0)"><path d="M122.8749978704,142.8749939111L95.7499992902,142.8749943153" /></g>
<g stroke="rgb(0, 0, 0)"><path d="M142.8749981688,162.8749936133L122.8749978704,142.8749939111" /></g>
<g stroke="rgb(0, 0, 0)"><path d="M142.8749992826,237.6249907744L142.8749981688,162.8749936133" /></g>
<g stroke="rgb(0, 0, 0)"><path d="M-46.3903626093,190.3477540788L-47.0392093134,189.9142085859" /></g>
<g stroke="rgb(0, 0, 0)"><path d="M-45.6249957423,190.4999950024L-46.3903626093,190.3477540788" /></g>
<g stroke="rgb(0, 0, 0)"><path d="M3.5000028383,190.4999942698L-45.6249957423,190.4999950024" /></g>
<g stroke="rgb(0, 0, 0)"><path d="M3.5000042574,285.7499914316L3.5000028383,190.4999942698" /></g>
<g stroke="rgb(0, 0, 0)"><path d="M-27.6249943236,285.7499918955L3.5000042574,285.7499914316" /></g>
<g stroke="rgb(0, 0, 0)"><path d="M-47.6249946213,265.7499921939L-27.6249943236,285.7499918955" /></g>
<g stroke="rgb(0, 0, 0)"><path d="M-47.6249950029,239.1249936129L-47.6249946213,265.7499921939" /></g>
<g stroke="rgb(0, 0, 0)"><path d="M-47.7011154761,238.7423101816L-47.6249950029,239.1249936129" /></g>
<g stroke="rgb(0, 0, 0)"><path d="M-47.9178882322,238.4178868361L-47.7011154761,238.7423101816" /></g>
<g stroke="rgb(0, 0, 0)"><path d="M-48.2423115842,238.2011140896L-47.9178882322,238.4178868361" /></g>
<g stroke="rgb(0, 0, 0)"><path d="M-48.6249950178,238.1249936278L-48.2423115842,238.2011140896" /></g>
<g stroke="rgb(0, 0, 0)"><path d="M-122.8749921795,238.1249947192L-48.6249950178,238.1249936278" /></g>
<g stroke="rgb(0, 0, 0)"><path d="M-142.8749924771,218.1249950175L-122.8749921795,238.1249947192" /></g>
<g stroke="rgb(0, 0, 0)"><path d="M-142.8749928589,192.4999964366L-142.8749924771,218.1249950175" /></g>
<g stroke="rgb(0, 0, 0)"><path d="M-143.0272338054,191.7346295741L-142.8749928589,192.4999964366" /></g>
<g stroke="rgb(0, 0, 0)"><path d="M-143.4607793177,191.0857828829L-143.0272338054,191.7346295741" /></g>
<g stroke="rgb(0, 0, 0)"><path d="M-144.1096260217,190.65223739L-143.4607793177,191.0857828829" /></g>
<g stroke="rgb(0, 0, 0)"><path d="M-144.8749928886,190.4999964664L-144.1096260217,190.65223739" /></g>
<g stroke="rgb(0, 0, 0)"><path d="M-190.4999914842,190.4999971462L-144.8749928886,190.4999964664" /></g>
<g stroke="rgb(0, 0, 0)"><path d="M-190.4999921863,143.3749985804L-190.4999914842,190.4999971462" /></g>
<g stroke="rgb(0, 0, 0)"><path d="M-218.1249907745,142.8749989921L-190.9999921938,142.8749985879" /></g>
<g stroke="rgb(0, 0, 0)"><path d="M-238.1249910726,122.8749992901L-218.1249907745,142.8749989921" /></g>
<g stroke="rgb(0, 0, 0)"><path d="M-238.124991484,95.2500007094L-238.1249910726,122.8749992901" /></g>
<g stroke="rgb(0, 0, 0)"><path d="M-190.9999929034,95.2500000072L-238.124991484,95.2500007094" /></g>
<g stroke="rgb(0, 0, 0)"><path d="M-190.4999922012,142.3749985804L-190.4999928959,95.7499999998" /></g>
<g stroke="rgb(0, 0, 0)"><path d="M-67.6249964529,142.8749967496L-189.9999921938,142.874998573" /></g>
<g stroke="rgb(0, 0, 0)"><path d="M-47.624996154,162.8749964526L-67.6249964529,142.8749967496" /></g>
<g stroke="rgb(0, 0, 0)"><path d="M-47.6249957721,188.4999950322L-47.624996154,162.8749964526" /></g>
<g stroke="rgb(0, 0, 0)"><path d="M-47.4727548258,189.2653618947L-47.6249957721,188.4999950322" /></g>
<g stroke="rgb(0, 0, 0)"><path d="M-47.0392093134,189.9142085859L-47.4727548258,189.2653618947" /></g>
<g stroke="rgb(0, 0, 0)"><path d="M3.5000021286,142.8749956896L3.5000007081,47.6249985286" /></g>
<g stroke="rgb(0, 0, 0)"><path d="M-27.6249964527,142.8749961536L3.5000021286,142.8749956896" /></g>
<g stroke="rgb(0, 0, 0)"><path d="M-47.62499675,122.8749964522L-27.6249964527,142.8749961536" /></g>
<g stroke="rgb(0, 0, 0)"><path d="M-47.6249978712,47.6249992903L-47.62499675,122.8749964522" /></g>
<g stroke="rgb(0, 0, 0)"><path d="M3.5000007081,47.6249985286L-47.6249978712,47.6249992903" /></g>
<g stroke="rgb(0, 0, 0)"><path d="M-190.499993613,47.6250014191L-190.4999929108,94.7499999998" /></g>
<g stroke="rgb(0, 0, 0)"><path d="M-95.2499964517,47.6249999999L-190.499993613,47.6250014191" /></g>
<g stroke="rgb(0, 0, 0)"><path d="M-95.2499957421,95.2499985805L-95.2499964517,47.6249999999" /></g>
<g stroke="rgb(0, 0, 0)"><path d="M-189.9999929034,95.2499999923L-95.2499957421,95.2499985805" /></g>
<g stroke="rgb(0, 0, 0)"><path d="M142.8749964516,47.6249964518L95.2499978709,47.6249971614" /></g>
<g stroke="rgb(0, 0, 0)"><path d="M142.8749971538,94.7499950324L142.8749964516,47.6249964518" /></g>
<g stroke="rgb(0, 0, 0)"><path d="M115.2499985802,95.249995444L142.3749971613,95.2499950399" /></g>
<g stroke="rgb(0, 0, 0)"><path d="M95.2499982824,75.2499957423L115.2499985802,95.249995444" /></g>
<g stroke="rgb(0, 0, 0)"><path d="M95.2499978709,47.6249971614L95.2499982824,75.2499957423" /></g>
<g stroke="rgb(0, 0, 0)"><path d="M-190.4999950248,-47.1249957422L-190.4999943226,0.0000028385" /></g>
<g stroke="rgb(0, 0, 0)"><path d="M-144.8749964517,-47.624996422L-189.9999950322,-47.6249957496" /></g>
<g stroke="rgb(0, 0, 0)"><path d="M-144.1096295893,-47.7772373684L-144.8749964517,-47.624996422" /></g>
<g stroke="rgb(0, 0, 0)"><path d="M-143.4607828981,-48.2107828807L-144.1096295893,-47.7772373684" /></g>
<g stroke="rgb(0, 0, 0)"><path d="M-143.0272374051,-48.8596295848L-143.4607828981,-48.2107828807" /></g>
<g stroke="rgb(0, 0, 0)"><path d="M-142.8749964815,-49.6249964518L-143.0272374051,-48.8596295848" /></g>
<g stroke="rgb(0, 0, 0)"><path d="M-142.8749971612,-95.2499950324L-142.8749964815,-49.6249964518" /></g>
<g stroke="rgb(0, 0, 0)"><path d="M-115.2499985809,-95.2499954441L-142.8749971612,-95.2499950324" /></g>
<g stroke="rgb(0, 0, 0)"><path d="M-95.2499982826,-75.2499957418L-115.2499985809,-95.2499954441" /></g>
<g stroke="rgb(0, 0, 0)"><path d="M-95.2499979008,-49.6249971614L-95.2499982826,-75.2499957418" /></g>
<g stroke="rgb(0, 0, 0)"><path d="M-95.0977569545,-48.859630299L-95.2499979008,-49.6249971614" /></g>
<g stroke="rgb(0, 0, 0)"><path d="M-94.6642114422,-48.2107836078L-95.0977569545,-48.859630299" /></g>
<g stroke="rgb(0, 0, 0)"><path d="M-94.0153647381,-47.7772381148L-94.6642114422,-48.2107836078" /></g>
<g stroke="rgb(0, 0, 0)"><path d="M-93.249997871,-47.6249971912L-94.0153647381,-47.7772381148" /></g>
<g stroke="rgb(0, 0, 0)"><path d="M-47.6249992903,-47.624997871L-93.249997871,-47.6249971912" /></g>
<g stroke="rgb(0, 0, 0)"><path d="M-47.6249985808,7.096e-7L-47.6249992903,-47.624997871" /></g>
<g stroke="rgb(0, 0, 0)"><path d="M-190.4999943226,0.0000028385L-47.6249985808,7.096e-7" /></g>
<g stroke="rgb(0, 0, 0)"><path d="M94.0153633288,-47.7772409313L93.2499964664,-47.624999985" /></g>
<g stroke="rgb(0, 0, 0)"><path d="M94.6642100199,-48.2107864437L94.0153633288,-47.7772409313" /></g>
<g stroke="rgb(0, 0, 0)"><path d="M95.097755513,-48.8596331478L94.6642100199,-48.2107864437" /></g>
<g stroke="rgb(0, 0, 0)"><path d="M95.2499964366,-49.6250000148L95.097755513,-48.8596331478" /></g>
<g stroke="rgb(0, 0, 0)"><path d="M95.2499960549,-75.2499985958L95.2499964366,-49.6250000148" /></g>
<g stroke="rgb(0, 0, 0)"><path d="M115.2499957565,-95.2499988935L95.2499960549,-75.2499985958" /></g>
<g stroke="rgb(0, 0, 0)"><path d="M122.874994337,-95.2499990071L115.2499957565,-95.2499988935" /></g>
<g stroke="rgb(0, 0, 0)"><path d="M142.8749946354,-75.2499993047L122.874994337,-95.2499990071" /></g>
<g stroke="rgb(0, 0, 0)"><path d="M142.8749950172,-48.6250007244L142.8749946354,-75.2499993047" /></g>
<g stroke="rgb(0, 0, 0)"><path d="M142.9511154903,-48.2423172931L142.8749950172,-48.6250007244" /></g>
<g stroke="rgb(0, 0, 0)"><path d="M143.1678882466,-47.9178939476L142.9511154903,-48.2423172931" /></g>
<g stroke="rgb(0, 0, 0)"><path d="M143.4923115986,-47.7011212011L143.1678882466,-47.9178939476" /></g>
<g stroke="rgb(0, 0, 0)"><path d="M143.8749950321,-47.6250007393L143.4923115986,-47.7011212011" /></g>
<g stroke="rgb(0, 0, 0)"><path d="M170.4999936125,-47.6250011211L143.8749950321,-47.6250007393" /></g>
<g stroke="rgb(0, 0, 0)"><path d="M190.4999939108,-27.6250014188L170.4999936125,-47.6250011211" /></g>
<g stroke="rgb(0, 0, 0)"><path d="M190.4999943227,-0.0000028385L190.4999939108,-27.6250014188" /></g>
<g stroke="rgb(0, 0, 0)"><path d="M47.6249985954,-7.096e-7L190.4999943227,-0.0000028385" /></g>
<g stroke="rgb(0, 0, 0)"><path d="M47.6249981837,-27.6249993054L47.6249985954,-7.096e-7" /></g>
<g stroke="rgb(0, 0, 0)"><path d="M67.6249978854,-47.6249996032L47.6249981837,-27.6249993054" /></g>
<g stroke="rgb(0, 0, 0)"><path d="M93.2499964664,-47.624999985L67.6249978854,-47.6249996032" /></g>
<g stroke="rgb(0, 0, 0)"><path d="M189.265359056,-143.027239497L188.4999921936,-142.8749985506" /></g>
<g stroke="rgb(0, 0, 0)"><path d="M189.9142057471,-143.4607850093L189.265359056,-143.027239497" /></g>
<g stroke="rgb(0, 0, 0)"><path d="M190.3477512401,-144.1096317134L189.9142057471,-143.4607850093" /></g>
<g stroke="rgb(0, 0, 0)"><path d="M190.4999921638,-144.8749985804L190.3477512401,-144.1096317134" /></g>
<g stroke="rgb(0, 0, 0)"><path d="M190.4999917819,-170.4999971613L190.4999921638,-144.8749985804" /></g>
<g stroke="rgb(0, 0, 0)"><path d="M210.4999914837,-190.4999974591L190.4999917819,-170.4999971613" /></g>
<g stroke="rgb(0, 0, 0)"><path d="M218.1249900642,-190.4999975727L210.4999914837,-190.4999974591" /></g>
<g stroke="rgb(0, 0, 0)"><path d="M238.1249903626,-170.4999978704L218.1249900642,-190.4999975727" /></g>
<g stroke="rgb(0, 0, 0)"><path d="M238.1249907444,-144.8749992901L238.1249903626,-170.4999978704" /></g>
<g stroke="rgb(0, 0, 0)"><path d="M238.2772316908,-144.1096324276L238.1249907444,-144.8749992901" /></g>
<g stroke="rgb(0, 0, 0)"><path d="M238.7107772031,-143.4607857364L238.2772316908,-144.1096324276" /></g>
<g stroke="rgb(0, 0, 0)"><path d="M239.3596239071,-143.0272402435L238.7107772031,-143.4607857364" /></g>
<g stroke="rgb(0, 0, 0)"><path d="M240.1249907742,-142.8749993199L239.3596239071,-143.0272402435" /></g>
<g stroke="rgb(0, 0, 0)"><path d="M265.7499893546,-142.8749997017L240.1249907742,-142.8749993199" /></g>
<g stroke="rgb(0, 0, 0)"><path d="M285.7499896528,-122.8749999994L265.7499893546,-142.8749997017" /></g>
<g stroke="rgb(0, 0, 0)"><path d="M285.7499907743,-47.6250028384L285.7499896528,-122.8749999994" /></g>
<g stroke="rgb(0, 0, 0)"><path d="M210.4999936126,-47.6250017171L285.7499907743,-47.6250028384" /></g>
<g stroke="rgb(0, 0, 0)"><path d="M190.4999933149,-67.6250014188L210.4999936126,-47.6250017171" /></g>
<g stroke="rgb(0, 0, 0)"><path d="M190.4999929331,-93.2499999998L190.4999933149,-67.6250014188" /></g>
<g stroke="rgb(0, 0, 0)"><path d="M190.3477519866,-94.0153668623L190.4999929331,-93.2499999998" /></g>
<g stroke="rgb(0, 0, 0)"><path d="M189.9142064743,-94.6642135535L190.3477519866,-94.0153668623" /></g>
<g stroke="rgb(0, 0, 0)"><path d="M189.2653597703,-95.0977590464L189.9142064743,-94.6642135535" /></g>
<g stroke="rgb(0, 0, 0)"><path d="M188.4999929034,-95.24999997L189.2653597703,-95.0977590464" /></g>
<g stroke="rgb(0, 0, 0)"><path d="M162.8749943223,-95.2499995882L188.4999929034,-95.24999997" /></g>
<g stroke="rgb(0, 0, 0)"><path d="M142.8749940246,-115.2499992898L162.8749943223,-95.2499995882" /></g>
<g stroke="rgb(0, 0, 0)"><path d="M142.874993911,-122.8749978712L142.8749940246,-115.2499992898" /></g>
<g stroke="rgb(0, 0, 0)"><path d="M162.8749936128,-142.8749981688L142.874993911,-122.8749978712" /></g>
<g stroke="rgb(0, 0, 0)"><path d="M188.4999921936,-142.8749985506L162.8749936128,-142.8749981688" /></g>
<g stroke="rgb(0, 0, 0)"><path d="M-97.2500014192,-285.7499900349L-170.4999985807,-285.7499889434" /></g>
<g stroke="rgb(0, 0, 0)"><path d="M-96.4846345568,-285.9022309812L-97.2500014192,-285.7499900349" /></g>
<g stroke="rgb(0, 0, 0)"><path d="M-95.8357878656,-286.3357764936L-96.4846345568,-285.9022309812" /></g>
<g stroke="rgb(0, 0, 0)"><path d="M-95.4022423726,-286.9846231977L-95.8357878656,-286.3357764936" /></g>
<g stroke="rgb(0, 0, 0)"><path d="M-95.250001449,-287.7499900647L-95.4022423726,-286.9846231977" /></g>
<g stroke="rgb(0, 0, 0)"><path d="M-95.2500018308,-313.3749886455L-95.250001449,-287.7499900647" /></g>
<g stroke="rgb(0, 0, 0)"><path d="M-75.2500021291,-333.3749889433L-95.2500018308,-313.3749886455" /></g>
<g stroke="rgb(0, 0, 0)"><path d="M-47.625003548,-333.3749893549L-75.2500021291,-333.3749889433" /></g>
<g stroke="rgb(0, 0, 0)"><path d="M-47.6250021288,-238.1249921936L-47.625003548,-333.3749893549" /></g>
<g stroke="rgb(0, 0, 0)"><path d="M-140.8749992901,-238.1249908042L-47.6250021288,-238.1249921936" /></g>
<g stroke="rgb(0, 0, 0)"><path d="M-141.6403661526,-237.9727498577L-140.8749992901,-238.1249908042" /></g>
<g stroke="rgb(0, 0, 0)"><path d="M-142.2892128438,-237.5392043454L-141.6403661526,-237.9727498577" /></g>
<g stroke="rgb(0, 0, 0)"><path d="M-142.7227583368,-236.8903576413L-142.2892128438,-237.5392043454" /></g>
<g stroke="rgb(0, 0, 0)"><path d="M-142.8749992603,-236.1249907744L-142.7227583368,-236.8903576413" /></g>
<g stroke="rgb(0, 0, 0)"><path d="M-142.874998588,-190.9999921937L-142.8749992603,-236.1249907744" /></g>
<g stroke="rgb(0, 0, 0)"><path d="M-47.6250014192,-190.499993613L-142.3749985805,-190.4999922012" /></g>
<g stroke="rgb(0, 0, 0)"><path d="M-47.6249999998,-95.2499964517L-47.6250014192,-190.499993613" /></g>
<g stroke="rgb(0, 0, 0)"><path d="M-75.2499985809,-95.2499960401L-47.6249999998,-95.2499964517" /></g>
<g stroke="rgb(0, 0, 0)"><path d="M-95.2499988787,-115.2499957418L-75.2499985809,-95.2499960401" /></g>
<g stroke="rgb(0, 0, 0)"><path d="M-95.2499992605,-140.8749943227L-95.2499988787,-115.2499957418" /></g>
<g stroke="rgb(0, 0, 0)"><path d="M-95.402240207,-141.6403611852L-95.2499992605,-140.8749943227" /></g>
<g stroke="rgb(0, 0, 0)"><path d="M-95.8357857193,-142.2892078764L-95.402240207,-141.6403611852" /></g>
<g stroke="rgb(0, 0, 0)"><path d="M-96.4846324234,-142.7227533693L-95.8357857193,-142.2892078764" /></g>
<g stroke="rgb(0, 0, 0)"><path d="M-97.2499992903,-142.8749942929L-96.4846324234,-142.7227533693" /></g>
<g stroke="rgb(0, 0, 0)"><path d="M-142.8749978709,-142.8749936131L-97.2499992903,-142.8749942929" /></g>
<g stroke="rgb(0, 0, 0)"><path d="M-142.8749985731,-189.9999921937L-142.8749978709,-142.8749936131" /></g>
<g stroke="rgb(0, 0, 0)"><path d="M-170.4999971616,-190.4999917821L-143.3749985805,-190.4999921863" /></g>
<g stroke="rgb(0, 0, 0)"><path d="M-190.4999974592,-210.4999914839L-170.4999971616,-190.4999917821" /></g>
<g stroke="rgb(0, 0, 0)"><path d="M-190.4999982824,-265.7499886456L-190.4999974592,-210.4999914839" /></g>
<g stroke="rgb(0, 0, 0)"><path d="M-170.4999985807,-285.7499889434L-190.4999982824,-265.7499886456" /></g>
<g stroke="rgb(0, 0, 0)"><path d="M -285.24999290305004 -95.24999291100006 A 0.4999999999999432 0.4999999999999432 0 0 1 -285.74999291049994 -95.7499929035492" /></g>
<g stroke="rgb(0, 0, 0)"><path d="M -190.49999503969994 -48.12499574215081 A 0.5000000000000568 0.5000000000000568 0 0 1 -190.99999503225007 -47.624995734699944" /></g>
<g stroke="rgb(0, 0, 0)"><path d="M -286.24999290304993 -95.24999289610022 A 0.5000000000002274 0.5000000000002274 0 0 1 -285.74999289559975 -94.74999290354994" /></g>
<g stroke="rgb(0, 0, 0)"><path d="M 142.87499929749973 238.62499077434907 A 0.5000000000002842 0.5000000000002842 0 0 1 143.3749992900492 238.1249907668997" /></g>
<g stroke="rgb(0, 0, 0)"><path d="M 285.24999290315003 95.249992911 A 0.5 0.5 0 0 1 285.7499929106 95.74999290355007" /></g>
<g stroke="rgb(0, 0, 0)"><path d="M 142.8749971687001 95.7499950324482 A 0.4999999999998864 0.4999999999998864 0 0 1 143.37499716125006 95.24999502500012" /></g>
<g stroke="rgb(0, 0, 0)"><path d="M 286.24999290315 95.24999289609998 A 0.4999999999999858 0.4999999999999858 0 0 1 285.7499928957 94.74999290354994" /></g>
<g stroke="rgb(0, 0, 0)"><path d="M 142.87499928260019 237.62499077435007 A 0.500000000000199 0.500000000000199 0 0 1 142.3749992900499 238.1249907818002" /></g>
<g stroke="rgb(0, 0, 0)"><path d="M 94.74999929025006 142.8749943301998 A 0.5000000000002132 0.5000000000002132 0 0 1 95.24999929770021 143.37499432275092" /></g>
<g stroke="rgb(0, 0, 0)"><path d="M 95.74999929024995 142.87499431530023 A 0.5000000000002274 0.5000000000002274 0 0 1 95.24999928279978 142.37499432275342" /></g>
<g stroke="rgb(0, 0, 0)"><path d="M -190.99999219374993 142.87499858789974 A 0.5000000000002558 0.5000000000002558 0 0 1 -190.49999218629975 143.37499858045007" /></g>
<g stroke="rgb(0, 0, 0)"><path d="M -190.99999290334992 95.25000000720003 A 0.4999999999999716 0.4999999999999716 0 0 1 -190.49999289590002 95.74999999975006" /></g>
<g stroke="rgb(0, 0, 0)"><path d="M -189.9999921937492 142.87499857299966 A 0.499999999999659 0.499999999999659 0 0 1 -190.49999220119966 142.37499858044993" /></g>
<g stroke="rgb(0, 0, 0)"><path d="M -189.99999290335006 95.24999999229992 A 0.4999999999999148 0.4999999999999148 0 0 1 -190.4999929107999 94.74999999974995" /></g>
<g stroke="rgb(0, 0, 0)"><path d="M 142.87499715380008 94.74999503245006 A 0.5000000000000853 0.5000000000000853 0 0 1 142.37499716124992 95.24999503990009" /></g>
<g stroke="rgb(0, 0, 0)"><path d="M -190.49999502480014 -47.124995742150055 A 0.5000000000001421 0.5000000000001421 0 0 1 -189.99999503224993 -47.62499574960014" /></g>
<g stroke="rgb(0, 0, 0)"><path d="M -142.37499858055008 -190.49999220119983 A 0.5000000000001705 0.5000000000001705 0 0 1 -142.87499858800018 -190.99999219375007" /></g>
<g stroke="rgb(0, 0, 0)"><path d="M -143.3749985805508 -190.49999218629964 A 0.4999999999996306 0.4999999999996306 0 0 1 -142.87499857310036 -189.99999219374993" /></g>
  </g>
</svg>