<?xml version="1.0"?>
<svg
  xmlns="http://www.w3.org/2000/svg"
  xmlns:xlink="http://www.w3.org/1999/xlink" version="1.1"
  preserveAspectRatio="xMinYMin meet"
  viewBox="0 -2299.9999523163 1500 2299.9999523163"
  width="100%" height="100%"
>
  <g stroke="#000000" stroke-width="0.1%" fill="none" transform="matrix(1,0,0,-1,0,0)">
    <g stroke="rgb(0, 0, 0)"><circle cx="750.0000357623" cy="1250" r="4.600000000000023" /></g>
<g stroke="rgb(0, 0, 0)"><circle cx="850.0000357623" cy="1250" r="4.600000000000136" /></g>
<g stroke="rgb(0, 0, 0)"><circle cx="750.0000357623" cy="1150" r="4.600000000000136" /></g>
<g stroke="rgb(0, 0, 0)"><circle cx="850.0000357623" cy="1150" r="4.600000000000023" /></g>
<g stroke="rgb(0, 0, 0)"><circle cx="750.0000357623" cy="1050" r="4.600000000000023" /></g>
<g stroke="rgb(0, 0, 0)"><circle cx="850.0000357623" cy="1050" r="4.600000000000023" /></g>
<g stroke="rgb(0, 0, 0)"><circle cx="650.0000357623" cy="1150" r="4.600000000000023" /></g>
<g stroke="rgb(0, 0, 0)"><circle cx="650.0000357623" cy="1050" r="4.600000000000136" /></g>
<g stroke="rgb(0, 0, 0)"><circle cx="650.0000357623" cy="1250" r="4.600000000000023" /></g>
<g stroke="rgb(0, 0, 0)"><path d="M1259.5999240875,2104.9999046326L1259.5999240875,2195.0000476837" /></g>
<g stroke="rgb(0, 0, 0)"><path d="M 1254.5999240875 2099.9999046326 A 5 5 0 0 1 1259.5999240875 2104.9999046326" /></g>
<g stroke="rgb(0, 0, 0)"><path d="M1064.5999956131,2099.9999046326L1254.5999240875,2099.9999046326" /></g>
<g stroke="rgb(0, 0, 0)"><path d="M 1059.5999956131 2104.9999046326 A 5 5 0 0 1 1064.5999956131 2099.9999046326" /></g>
<g stroke="rgb(0, 0, 0)"><path d="M1059.5999956131,2195.0000476837L1059.5999956131,2104.9999046326" /></g>
<g stroke="rgb(0, 0, 0)"><path d="M 1064.5999956131 2200.0000476837 A 5 5 0 0 1 1059.5999956131 2195.0000476837" /></g>
<g stroke="rgb(0, 0, 0)"><path d="M1254.5999240875,2200.0000476837L1064.5999956131,2200.0000476837" /></g>
<g stroke="rgb(0, 0, 0)"><path d="M 1259.5999240875 2195.0000476837 A 5 5 0 0 1 1254.5999240875 2200.0000476837" /></g>
<g stroke="rgb(0, 0, 0)"><path d="M440.4000043869,105.0000014901L440.4000043869,195.0000029802" /></g>
<g stroke="rgb(0, 0, 0)"><path d="M 435.4000043869 100.0000014901 A 5 5 0 0 1 440.4000043869 105.0000014901" /></g>
<g stroke="rgb(0, 0, 0)"><path d="M245.3999865055,100.0000014901L435.4000043869,100.0000014901" /></g>
<g stroke="rgb(0, 0, 0)"><path d="M 240.3999865055 105.0000014901 A 5 5 0 0 1 245.3999865055 100.0000014901" /></g>
<g stroke="rgb(0, 0, 0)"><path d="M240.3999865055,195.0000029802L240.3999865055,105.0000014901" /></g>
<g stroke="rgb(0, 0, 0)"><path d="M 245.3999865055 200.0000029802 A 5 5 0 0 1 240.3999865055 195.0000029802" /></g>
<g stroke="rgb(0, 0, 0)"><path d="M435.4000043869,200.0000029802L245.3999865055,200.0000029802" /></g>
<g stroke="rgb(0, 0, 0)"><path d="M 440.4000043869 195.0000029802 A 5 5 0 0 1 435.4000043869 200.0000029802" /></g>
<g stroke="rgb(0, 0, 0)"><path d="M1490,2299.9999523163L10,2299.9999523163" /></g>
<g stroke="rgb(0, 0, 0)"><path d="M 10 2299.9999523163 A 10 10 0 0 1 0 2289.9999523163" /></g>
<g stroke="rgb(0, 0, 0)"><path d="M0,2289.9999523163L0,10" /></g>
<g stroke="rgb(0, 0, 0)"><path d="M 0 10.000000000000002 A 10 10 0 0 1 9.999999999999998 0" /></g>
<g stroke="rgb(0, 0, 0)"><path d="M10,0L1490,0" /></g>
<g stroke="rgb(0, 0, 0)"><path d="M 1490 0 A 10 10 0 0 1 1500 10" /></g>
<g stroke="rgb(0, 0, 0)"><path d="M1500,10L1500,2289.9999523163" /></g>
<g stroke="rgb(0, 0, 0)"><path d="M 1500 2289.9999523163 A 10 10 0 0 1 1490 2299.9999523163" /></g>
<g stroke="rgb(0, 0, 0)"><path d="M1259.5999240875,105.0000014901L1259.5999240875,195.0000029802" /></g>
<g stroke="rgb(0, 0, 0)"><path d="M 1254.5999240875 100.0000014901 A 5 5 0 0 1 1259.5999240875 105.0000014901" /></g>
<g stroke="rgb(0, 0, 0)"><path d="M1064.5999956131,100.0000014901L1254.5999240875,100.0000014901" /></g>
<g stroke="rgb(0, 0, 0)"><path d="M 1059.5999956131 105.0000014901 A 5 5 0 0 1 1064.5999956131 100.0000014901" /></g>
<g stroke="rgb(0, 0, 0)"><path d="M1059.5999956131,195.0000029802L1059.5999956131,105.0000014901" /></g>
<g stroke="rgb(0, 0, 0)"><path d="M 1064.5999956131 200.0000029802 A 5 5 0 0 1 1059.5999956131 195.0000029802" /></g>
<g stroke="rgb(0, 0, 0)"><path d="M1254.5999240875,200.0000029802L1064.5999956131,200.0000029802" /></g>
<g stroke="rgb(0, 0, 0)"><path d="M 1259.5999240875 195.0000029802 A 5 5 0 0 1 1254.5999240875 200.0000029802" /></g>
<g stroke="rgb(0, 0, 0)"><path d="M440.4000043869,2104.9999046326L440.4000043869,2195.0000476837" /></g>
<g stroke="rgb(0, 0, 0)"><path d="M 435.4000043869 2099.9999046326 A 5 5 0 0 1 440.4000043869 2104.9999046326" /></g>
<g stroke="rgb(0, 0, 0)"><path d="M245.3999865055,2099.9999046326L435.4000043869,2099.9999046326" /></g>
<g stroke="rgb(0, 0, 0)"><path d="M 240.3999865055 2104.9999046326 A 5 5 0 0 1 245.3999865055 2099.9999046326" /></g>
<g stroke="rgb(0, 0, 0)"><path d="M240.3999865055,2195.0000476837L240.3999865055,2104.9999046326" /></g>
<g stroke="rgb(0, 0, 0)"><path d="M 245.3999865055 2200.0000476837 A 5 5 0 0 1 240.3999865055 2195.0000476837" /></g>
<g stroke="rgb(0, 0, 0)"><path d="M435.4000043869,2200.0000476837L245.3999865055,2200.0000476837" /></g>
<g stroke="rgb(0, 0, 0)"><path d="M 440.4000043869 2195.0000476837 A 5 5 0 0 1 435.4000043869 2200.0000476837" /></g>
<g stroke="rgb(0, 0, 0)"><circle cx="49.9453415773" cy="2249.7966282183" r="10.10671968733013" /></g>
<g stroke="rgb(0, 0, 0)"><circle cx="1450.0001259342" cy="2250.0002920731" r="9.999698390429558" /></g>
<g stroke="rgb(0, 0, 0)"><circle cx="1450.0000476837" cy="50.0000545654" r="9.999730845931253" /></g>
<g stroke="rgb(0, 0, 0)"><circle cx="50.0000007451" cy="50.0000007451" r="9.999701033878452" /></g>
  </g>
</svg>