<?xml version="1.0"?>
<svg
  xmlns="http://www.w3.org/2000/svg"
  xmlns:xlink="http://www.w3.org/1999/xlink" version="1.1"
  preserveAspectRatio="xMinYMin meet"
  viewBox="-87.4732608914 -86.3319409692 40 173"
  width="100%" height="100%"
>
  <g stroke="#000000" stroke-width="0.1%" fill="none" transform="matrix(1,0,0,-1,0,0)">
    <g stroke="rgb(0, 0, 0)"><path d="M-87.4732608914,86.3319409692L-87.4732608914,-83.6680590308" /></g>
<g stroke="rgb(0, 0, 0)"><path d="M-87.4732608914,-83.6680590308L-77.4732608914,-83.6680590308" /></g>
<g stroke="rgb(0, 0, 0)"><path d="M-77.4732608914,-83.6680590308L-77.4732608914,-86.6680590308" /></g>
<g stroke="rgb(0, 0, 0)"><path d="M-77.4732608914,-86.6680590308L-47.4732608914,-86.6680590308" /></g>
<g stroke="rgb(0, 0, 0)"><path d="M-47.4732608914,-86.6680590308L-47.4732608914,-43.6680590308" /></g>
<g stroke="rgb(0, 0, 0)"><path d="M-47.4732608914,-43.6680590308L-52.4732608914,-43.6680590308" /></g>
<g stroke="rgb(0, 0, 0)"><path d="M-52.4732608914,-43.6680590308L-52.4732608914,-40.7680590308" /></g>
<g stroke="rgb(0, 0, 0)"><path d="M-52.4732608914,-40.7680590308L-47.4732608914,-40.7680590308" /></g>
<g stroke="rgb(0, 0, 0)"><path d="M-47.4732608914,-40.7680590308L-47.4732608914,53.4319409692" /></g>
<g stroke="rgb(0, 0, 0)"><path d="M-47.4732608914,53.4319409692L-52.4732608914,53.4319409692" /></g>
<g stroke="rgb(0, 0, 0)"><path d="M-52.4732608914,53.4319409692L-52.4732608914,56.3319409692" /></g>
<g stroke="rgb(0, 0, 0)"><path d="M-52.4732608914,56.3319409692L-47.4732608914,56.3319409692" /></g>
<g stroke="rgb(0, 0, 0)"><path d="M-47.4732608914,56.3319409692L-47.4732608914,86.3319409692" /></g>
<g stroke="rgb(0, 0, 0)"><path d="M-47.4732608914,86.3319409692L-87.4732608914,86.3319409692" /></g>
  </g>
</svg>