  0
SECTION
  2
HEADER
  9
$ACADVER
  1
AC1015
  9
$ACADMAINTVER
 70
     6
  9
$DWGCODEPAGE
  3
ANSI_1252
  9
$INSBASE
 10
0.0
 20
0.0
 30
0.0
  9
$EXTMIN
 10
-380.9999951865
 20
-439.0048610986
 30
0.0
  9
$EXTMAX
 10
380.9999942924
 20
380.9999942924
 30
0.0
  9
$LIMMIN
 10
0.0
 20
0.0
  9
$LIMMAX
 10
420.0
 20
297.0
  9
$ORTHOMODE
 70
     0
  9
$REGENMODE
 70
     1
  9
$FILLMODE
 70
     1
  9
$QTEXTMODE
 70
     0
  9
$MIRRTEXT
 70
     1
  9
$LTSCALE
 40
1.0
  9
$ATTMODE
 70
     1
  9
$TEXTSIZE
 40
3.5
  9
$TRACEWID
 40
1.0
  9
$TEXTSTYLE
  7
Standard
  9
$CLAYER
  8
0
  9
$CELTYPE
  6
ByLayer
  9
$CECOLOR
 62
   256
  9
$CELTSCALE
 40
1.0
  9
$DISPSILH
 70
     0
  9
$DIMSCALE
 40
1.0
  9
$DIMASZ
 40
3.302
  9
$DIMEXO
 40
0.0
  9
$DIMDLI
 40
3.75
  9
$DIMRND
 40
0.0
  9
$DIMDLE
 40
0.0
  9
$DIMEXE
 40
1.0
  9
$DIMTP
 40
0.0
  9
$DIMTM
 40
0.0
  9
$DIMTXT
 40
3.5
  9
$DIMCEN
 40
2.5
  9
$DIMTSZ
 40
0.0
  9
$DIMTOL
 70
     0
  9
$DIMLIM
 70
     0
  9
$DIMTIH
 70
     1
  9
$DIMTOH
 70
     1
  9
$DIMSE1
 70
     0
  9
$DIMSE2
 70
     0
  9
$DIMTAD
 70
     1
  9
$DIMZIN
 70
     1
  9
$DIMBLK
  1

  9
$DIMASO
 70
     1
  9
$DIMSHO
 70
     1
  9
$DIMPOST
  1

  9
$DIMAPOST
  1

  9
$DIMALT
 70
     0
  9
$DIMALTD
 70
     3
  9
$DIMALTF
 40
0.0393700787
  9
$DIMLFAC
 40
1.0
  9
$DIMTOFL
 70
     1
  9
$DIMTVP
 40
0.0
  9
$DIMTIX
 70
     0
  9
$DIMSOXD
 70
     0
  9
$DIMSAH
 70
     0
  9
$DIMBLK1
  1

  9
$DIMBLK2
  1

  9
$DIMSTYLE
  2
ISO-25
  9
$DIMCLRD
 70
     0
  9
$DIMCLRE
 70
     0
  9
$DIMCLRT
 70
     0
  9
$DIMTFAC
 40
1.0
  9
$DIMGAP
 40
1.524
  9
$DIMJUST
 70
     0
  9
$DIMSD1
 70
     0
  9
$DIMSD2
 70
     0
  9
$DIMTOLJ
 70
     0
  9
$DIMTZIN
 70
     1
  9
$DIMALTZ
 70
     0
  9
$DIMALTTZ
 70
     0
  9
$DIMUPT
 70
     0
  9
$DIMDEC
 70
     2
  9
$DIMTDEC
 70
     2
  9
$DIMALTU
 70
     2
  9
$DIMALTTD
 70
     3
  9
$DIMTXSTY
  7
Standard
  9
$DIMAUNIT
 70
     0
  9
$DIMADEC
 70
     2
  9
$DIMALTRND
 40
0.0
  9
$DIMAZIN
 70
     0
  9
$DIMDSEP
 70
    44
  9
$DIMATFIT
 70
     3
  9
$DIMFRAC
 70
     0
  9
$DIMLDRBLK
  1

  9
$DIMLUNIT
 70
     2
  9
$DIMLWD
 70
    -2
  9
$DIMLWE
 70
    -2
  9
$DIMTMOVE
 70
     0
  9
$LUNITS
 70
     2
  9
$LUPREC
 70
     2
  9
$SKETCHINC
 40
1.0
  9
$FILLETRAD
 40
0.0
  9
$AUNITS
 70
     0
  9
$AUPREC
 70
     2
  9
$MENU
  1
.
  9
$ELEVATION
 40
0.0
  9
$PELEVATION
 40
0.0
  9
$THICKNESS
 40
0.0
  9
$LIMCHECK
 70
     0
  9
$CHAMFERA
 40
0.0
  9
$CHAMFERB
 40
0.0
  9
$CHAMFERC
 40
0.0
  9
$CHAMFERD
 40
0.0
  9
$SKPOLY
 70
     0
  9
$TDCREATE
 40
2461105.055875162
  9
$TDUCREATE
 40
2461105.180875162
  9
$TDUPDATE
 40
2461105.055985764
  9
$TDUUPDATE
 40
2461105.180985764
  9
$TDINDWG
 40
0.0000000116
  9
$TDUSRTIMER
 40
0.0000000116
  9
$USRTIMER
 70
     1
  9
$ANGBASE
 50
0.0
  9
$ANGDIR
 70
     0
  9
$PDMODE
 70
     0
  9
$PDSIZE
 40
-1.0
  9
$PLINEWID
 40
0.0
  9
$SPLFRAME
 70
     0
  9
$SPLINETYPE
 70
     6
  9
$SPLINESEGS
 70
     8
  9
$HANDSEED
  5
4FC
  9
$SURFTAB1
 70
     6
  9
$SURFTAB2
 70
     6
  9
$SURFTYPE
 70
     6
  9
$SURFU
 70
     6
  9
$SURFV
 70
     6
  9
$UCSBASE
  2

  9
$UCSNAME
  2

  9
$UCSORG
 10
0.0
 20
0.0
 30
0.0
  9
$UCSXDIR
 10
1.0
 20
0.0
 30
0.0
  9
$UCSYDIR
 10
0.0
 20
1.0
 30
0.0
  9
$UCSORTHOREF
  2

  9
$UCSORTHOVIEW
 70
     0
  9
$UCSORGTOP
 10
0.0
 20
0.0
 30
0.0
  9
$UCSORGBOTTOM
 10
0.0
 20
0.0
 30
0.0
  9
$UCSORGLEFT
 10
0.0
 20
0.0
 30
0.0
  9
$UCSORGRIGHT
 10
0.0
 20
0.0
 30
0.0
  9
$UCSORGFRONT
 10
0.0
 20
0.0
 30
0.0
  9
$UCSORGBACK
 10
0.0
 20
0.0
 30
0.0
  9
$PUCSBASE
  2

  9
$PUCSNAME
  2

  9
$PUCSORG
 10
0.0
 20
0.0
 30
0.0
  9
$PUCSXDIR
 10
1.0
 20
0.0
 30
0.0
  9
$PUCSYDIR
 10
0.0
 20
1.0
 30
0.0
  9
$PUCSORTHOREF
  2

  9
$PUCSORTHOVIEW
 70
     0
  9
$PUCSORGTOP
 10
0.0
 20
0.0
 30
0.0
  9
$PUCSORGBOTTOM
 10
0.0
 20
0.0
 30
0.0
  9
$PUCSORGLEFT
 10
0.0
 20
0.0
 30
0.0
  9
$PUCSORGRIGHT
 10
0.0
 20
0.0
 30
0.0
  9
$PUCSORGFRONT
 10
0.0
 20
0.0
 30
0.0
  9
$PUCSORGBACK
 10
0.0
 20
0.0
 30
0.0
  9
$USERI1
 70
     0
  9
$USERI2
 70
     0
  9
$USERI3
 70
     0
  9
$USERI4
 70
     0
  9
$USERI5
 70
     0
  9
$USERR1
 40
0.0
  9
$USERR2
 40
0.0
  9
$USERR3
 40
0.0
  9
$USERR4
 40
0.0
  9
$USERR5
 40
0.0
  9
$WORLDVIEW
 70
     1
  9
$SHADEDGE
 70
     3
  9
$SHADEDIF
 70
    70
  9
$TILEMODE
 70
     1
  9
$MAXACTVP
 70
    64
  9
$PINSBASE
 10
0.0
 20
0.0
 30
0.0
  9
$PLIMCHECK
 70
     0
  9
$PEXTMIN
 10
1.0000000000E+20
 20
1.0000000000E+20
 30
1.0000000000E+20
  9
$PEXTMAX
 10
-1.0000000000E+20
 20
-1.0000000000E+20
 30
-1.0000000000E+20
  9
$PLIMMIN
 10
0.0
 20
0.0
  9
$PLIMMAX
 10
420.0
 20
297.0
  9
$UNITMODE
 70
     0
  9
$VISRETAIN
 70
     1
  9
$PLINEGEN
 70
     0
  9
$PSLTSCALE
 70
     1
  9
$TREEDEPTH
 70
  3020
  9
$CMLSTYLE
  2
Standard
  9
$CMLJUST
 70
     0
  9
$CMLSCALE
 40
20.0
  9
$PROXYGRAPHICS
 70
     1
  9
$MEASUREMENT
 70
     1
  9
$CELWEIGHT
370
    -1
  9
$ENDCAPS
280
     0
  9
$JOINSTYLE
280
     0
  9
$LWDISPLAY
290
     1
  9
$INSUNITS
 70
     4
  9
$HYPERLINKBASE
  1

  9
$STYLESHEET
  1

  9
$XEDIT
290
     1
  9
$CEPSNTYPE
380
     0
  9
$PSTYLEMODE
290
     1
  9
$FINGERPRINTGUID
  2
{ed374e69-4eeb-46b0-a88d-1ce5fba20fdf}
  9
$VERSIONGUID
  2
{FAEB1C32-E019-11D5-929B-00C0DF256EC4}
  9
$EXTNAMES
290
     1
  9
$PSVPSCALE
 40
0.0
  9
$OLESTARTUP
290
     0
  0
ENDSEC
  0
SECTION
  2
CLASSES
  0
CLASS
  1
ACDBDICTIONARYWDFLT
  2
AcDbDictionaryWithDefault
  3
ObjectDBX Classes
 90
        0
280
     0
281
     0
  0
CLASS
  1
VISUALSTYLE
  2
AcDbVisualStyle
  3
ObjectDBX Classes
 90
     4095
280
     0
281
     0
  0
CLASS
  1
MATERIAL
  2
AcDbMaterial
  3
ObjectDBX Classes
 90
     1153
280
     0
281
     0
  0
CLASS
  1
SCALE
  2
AcDbScale
  3
ObjectDBX Classes
 90
     1153
280
     0
281
     0
  0
CLASS
  1
TABLESTYLE
  2
AcDbTableStyle
  3
ObjectDBX Classes
 90
     4095
280
     0
281
     0
  0
CLASS
  1
MLEADERSTYLE
  2
AcDbMLeaderStyle
  3
ACDB_MLEADERSTYLE_CLASS
 90
     4095
280
     0
281
     0
  0
CLASS
  1
SUN
  2
AcDbSun
  3
SCENEOE
 90
     1153
280
     0
281
     0
  0
CLASS
  1
ACDBPLACEHOLDER
  2
AcDbPlaceHolder
  3
ObjectDBX Classes
 90
        0
280
     0
281
     0
  0
CLASS
  1
LAYOUT
  2
AcDbLayout
  3
ObjectDBX Classes
 90
        0
280
     0
281
     0
  0
ENDSEC
  0
SECTION
  2
TABLES
  0
TABLE
  2
VPORT
  5
8
330
0
100
AcDbSymbolTable
 70
     1
  0
VPORT
  5
29
330
8
100
AcDbSymbolTableRecord
100
AcDbViewportTableRecord
  2
*Active
 70
     0
 10
0.0
 20
0.0
 11
1.0
 21
1.0
 12
-0.000000447
 22
-29.0024334031
 13
0.0
 23
0.0
 14
10.0
 24
10.0
 15
10.0
 25
10.0
 16
0.0
 26
0.0
 36
1.0
 17
0.0
 27
0.0
 37
0.0
 40
836.4049524988
 41
0.9292627775
 42
50.0
 43
0.0
 44
0.0
 50
0.0
 51
0.0
 71
     0
 72
   100
 73
     1
 74
     3
 75
     0
 76
     0
 77
     0
 78
     0
281
     0
 65
     1
110
0.0
120
0.0
130
0.0
111
1.0
121
0.0
131
0.0
112
0.0
122
1.0
132
0.0
 79
     0
146
0.0
  0
ENDTAB
  0
TABLE
  2
LTYPE
  5
5
330
0
100
AcDbSymbolTable
 70
     6
  0
LTYPE
  5
14
330
5
100
AcDbSymbolTableRecord
100
AcDbLinetypeTableRecord
  2
ByBlock
 70
     0
  3

 72
    65
 73
     0
 40
0.0
  0
LTYPE
  5
15
330
5
100
AcDbSymbolTableRecord
100
AcDbLinetypeTableRecord
  2
ByLayer
 70
     0
  3

 72
    65
 73
     0
 40
0.0
  0
LTYPE
  5
16
330
5
100
AcDbSymbolTableRecord
100
AcDbLinetypeTableRecord
  2
Continuous
 70
     0
  3
Solid line
 72
    65
 73
     0
 40
0.0
  0
LTYPE
  5
5E
330
5
100
AcDbSymbolTableRecord
100
AcDbLinetypeTableRecord
  2
HIDDEN
 70
     0
  3
Hidden __ __ __ __ __ __ __ __ __ __ __ __ __ __
 72
    65
 73
     2
 40
1.905
 49
1.27
 74
     0
 49
-0.635
 74
     0
  0
LTYPE
  5
5F
330
5
100
AcDbSymbolTableRecord
100
AcDbLinetypeTableRecord
  2
PHANTOM
 70
     0
  3
Phantom ______  __  __  ______  __  __  ______
 72
    65
 73
     6
 40
12.7
 49
6.35
 74
     0
 49
-1.27
 74
     0
 49
1.27
 74
     0
 49
-1.27
 74
     0
 49
1.27
 74
     0
 49
-1.27
 74
     0
  0
LTYPE
  5
60
330
5
100
AcDbSymbolTableRecord
100
AcDbLinetypeTableRecord
  2
CENTER
 70
     0
  3
Center ____ _ ____ _ ____ _ ____ _ ____ _ ____
 72
    65
 73
     4
 40
10.16
 49
6.35
 74
     0
 49
-1.27
 74
     0
 49
1.27
 74
     0
 49
-1.27
 74
     0
  0
LTYPE
  5
61
330
5
100
AcDbSymbolTableRecord
100
AcDbLinetypeTableRecord
  2
CENTERX2
 70
     0
  3
Center (2x) ________  __  ________  __  _____
 72
    65
 73
     4
 40
20.32
 49
12.7
 74
     0
 49
-2.54
 74
     0
 49
2.54
 74
     0
 49
-2.54
 74
     0
  0
LTYPE
  5
62
330
5
100
AcDbSymbolTableRecord
100
AcDbLinetypeTableRecord
  2
DOT2
 70
     0
  3
Dot (.5x) ........................................
 72
    65
 73
     2
 40
0.635
 49
0.0
 74
     0
 49
-0.635
 74
     0
  0
ENDTAB
  0
TABLE
  2
LAYER
  5
2
330
0
100
AcDbSymbolTable
 70
     1
  0
LAYER
  5
10
330
2
100
AcDbSymbolTableRecord
100
AcDbLayerTableRecord
  2
0
 70
     0
 62
     7
  6
Continuous
370
    -3
390
F
  0
ENDTAB
  0
TABLE
  2
STYLE
  5
3
330
0
100
AcDbSymbolTable
 70
     1
  0
STYLE
  5
11
330
3
100
AcDbSymbolTableRecord
100
AcDbTextStyleTableRecord
  2
Standard
 70
     0
 40
0.0
 41
1.0
 50
0.0
 71
     0
 42
3.5
  3
txt
  4

  0
ENDTAB
  0
TABLE
  2
VIEW
  5
6
330
0
100
AcDbSymbolTable
 70
     0
  0
ENDTAB
  0
TABLE
  2
UCS
  5
7
330
0
100
AcDbSymbolTable
 70
     0
  0
ENDTAB
  0
TABLE
  2
APPID
  5
9
330
0
100
AcDbSymbolTable
 70
     1
  0
APPID
  5
12
330
9
100
AcDbSymbolTableRecord
100
AcDbRegAppTableRecord
  2
ACAD
 70
     0
  0
ENDTAB
  0
TABLE
  2
DIMSTYLE
  5
A
330
0
100
AcDbSymbolTable
 70
     1
100
AcDbDimStyleTable
  0
DIMSTYLE
105
27
330
A
100
AcDbSymbolTableRecord
100
AcDbDimStyleTableRecord
  2
ISO-25
 70
     0
 41
2.5
 42
0.625
 43
3.75
 44
1.25
 73
     0
 74
     0
 77
     1
 78
     8
140
2.5
141
2.5
143
0.0393700787
147
0.625
171
     3
172
     1
178
     0
271
     2
272
     2
274
     3
278
    44
283
     0
284
     8
340
11
  0
ENDTAB
  0
TABLE
  2
BLOCK_RECORD
  5
1
330
0
100
AcDbSymbolTable
 70
     1
  0
BLOCK_RECORD
  5
1F
330
1
100
AcDbSymbolTableRecord
100
AcDbBlockTableRecord
  2
*Model_Space
340
22
  0
BLOCK_RECORD
  5
1B
330
1
100
AcDbSymbolTableRecord
100
AcDbBlockTableRecord
  2
*Paper_Space
340
1E
  0
BLOCK_RECORD
  5
23
330
1
100
AcDbSymbolTableRecord
100
AcDbBlockTableRecord
  2
*Paper_Space0
340
26
  0
ENDTAB
  0
ENDSEC
  0
SECTION
  2
BLOCKS
  0
BLOCK
  5
20
330
1F
100
AcDbEntity
  8
0
100
AcDbBlockBegin
  2
*Model_Space
 70
     0
 10
0.0
 20
0.0
 30
0.0
  3
*Model_Space
  1

  0
ENDBLK
  5
21
330
1F
100
AcDbEntity
  8
0
100
AcDbBlockEnd
  0
BLOCK
  5
1C
330
1B
100
AcDbEntity
 67
     1
  8
0
100
AcDbBlockBegin
  2
*Paper_Space
 70
     0
 10
0.0
 20
0.0
 30
0.0
  3
*Paper_Space
  1

  0
ENDBLK
  5
1D
330
1B
100
AcDbEntity
 67
     1
  8
0
100
AcDbBlockEnd
  0
BLOCK
  5
24
330
23
100
AcDbEntity
  8
0
100
AcDbBlockBegin
  2
*Paper_Space0
 70
     0
 10
0.0
 20
0.0
 30
0.0
  3
*Paper_Space0
  1

  0
ENDBLK
  5
25
330
23
100
AcDbEntity
  8
0
100
AcDbBlockEnd
  0
ENDSEC
  0
SECTION
  2
ENTITIES
  0
LINE
  5
63
330
1F
100
AcDbEntity
  8
0
  6
HIDDEN
 62
     7
100
AcDbLine
 10
380.9999829242
 20
-381.1274277104
 30
0.0
 11
333.3749844278
 21
-381.1274270008
 31
0.0
  0
LINE
  5
64
330
1F
100
AcDbEntity
  8
0
  6
HIDDEN
 62
     7
100
AcDbLine
 10
-333.3749957855
 20
-381.1274171483
 30
0.0
 11
-380.999994282
 21
-381.1274164387
 31
0.0
  0
CIRCLE
  5
65
330
1F
100
AcDbEntity
  8
0
  6
Continuous
 62
     7
370
    25
100
AcDbCircle
 10
-357.1874954675
 20
-410.2348501817
 30
0.0
 40
3.000000000000171
  0
CIRCLE
  5
66
330
1F
100
AcDbEntity
  8
0
  6
Continuous
 62
     7
370
    25
100
AcDbCircle
 10
357.1874832423
 20
-410.2348607438
 30
0.0
 40
3.0
  0
LINE
  5
2B5
330
1F
100
AcDbEntity
  8
0
  6
Continuous
 62
     7
370
    25
100
AcDbLine
 10
333.3749847989
 20
-353.3749950321
 30
0.0
 11
313.3749850969
 21
-333.3749947339
 31
0.0
  0
LINE
  5
2B6
330
1F
100
AcDbEntity
  8
0
  6
Continuous
 62
     7
370
    25
100
AcDbLine
 10
313.3749850969
 20
-333.3749947339
 30
0.0
 11
287.7499865166
 21
-333.3749943521
 31
0.0
  0
LINE
  5
2B7
330
1F
100
AcDbEntity
  8
0
  6
Continuous
 62
     7
370
    25
100
AcDbLine
 10
287.7499865166
 20
-333.3749943521
 30
0.0
 11
286.984619654
 21
-333.2227534057
 31
0.0
  0
LINE
  5
2B8
330
1F
100
AcDbEntity
  8
0
  6
Continuous
 62
     7
370
    25
100
AcDbLine
 10
286.984619654
 20
-333.2227534057
 30
0.0
 11
286.3357729628
 21
-332.7892078934
 31
0.0
  0
LINE
  5
2B9
330
1F
100
AcDbEntity
  8
0
  6
Continuous
 62
     7
370
    25
100
AcDbLine
 10
286.3357729628
 20
-332.7892078934
 30
0.0
 11
285.9022274699
 21
-332.1403611893
 31
0.0
  0
LINE
  5
2BA
330
1F
100
AcDbEntity
  8
0
  6
Continuous
 62
     7
370
    25
100
AcDbLine
 10
285.9022274699
 20
-332.1403611893
 30
0.0
 11
285.7499865463
 21
-331.3749943223
 31
0.0
  0
LINE
  5
2BB
330
1F
100
AcDbEntity
  8
0
  6
Continuous
 62
     7
370
    25
100
AcDbLine
 10
285.7499865463
 20
-331.3749943223
 30
0.0
 11
285.7499869281
 21
-305.7499957419
 31
0.0
  0
LINE
  5
2BC
330
1F
100
AcDbEntity
  8
0
  6
Continuous
 62
     7
370
    25
100
AcDbLine
 10
285.7499869281
 20
-305.7499957419
 30
0.0
 11
265.7499872258
 21
-285.7499954436
 31
0.0
  0
LINE
  5
2BD
330
1F
100
AcDbEntity
  8
0
  6
Continuous
 62
     7
370
    25
100
AcDbLine
 10
265.7499872258
 20
-285.7499954436
 30
0.0
 11
240.1249886454
 21
-285.7499950618
 31
0.0
  0
LINE
  5
2BE
330
1F
100
AcDbEntity
  8
0
  6
Continuous
 62
     7
370
    25
100
AcDbLine
 10
240.1249886454
 20
-285.7499950618
 30
0.0
 11
239.3596217829
 21
-285.5977541154
 31
0.0
  0
LINE
  5
2BF
330
1F
100
AcDbEntity
  8
0
  6
Continuous
 62
     7
370
    25
100
AcDbLine
 10
239.3596217829
 20
-285.5977541154
 30
0.0
 11
238.7107750918
 21
-285.1642086031
 31
0.0
  0
LINE
  5
2C0
330
1F
100
AcDbEntity
  8
0
  6
Continuous
 62
     7
370
    25
100
AcDbLine
 10
238.7107750918
 20
-285.1642086031
 30
0.0
 11
238.2772295988
 21
-284.515361899
 31
0.0
  0
LINE
  5
2C1
330
1F
100
AcDbEntity
  8
0
  6
Continuous
 62
     7
370
    25
100
AcDbLine
 10
238.2772295988
 20
-284.515361899
 30
0.0
 11
238.1249886752
 21
-283.749995032
 31
0.0
  0
LINE
  5
2C2
330
1F
100
AcDbEntity
  8
0
  6
Continuous
 62
     7
370
    25
100
AcDbLine
 10
238.1249886752
 20
-283.749995032
 30
0.0
 11
238.124989057
 21
-258.1249964516
 31
0.0
  0
LINE
  5
2C3
330
1F
100
AcDbEntity
  8
0
  6
Continuous
 62
     7
370
    25
100
AcDbLine
 10
238.124989057
 20
-258.1249964516
 30
0.0
 11
218.1249893548
 21
-238.1249961534
 31
0.0
  0
LINE
  5
2C4
330
1F
100
AcDbEntity
  8
0
  6
Continuous
 62
     7
370
    25
100
AcDbLine
 10
218.1249893548
 20
-238.1249961534
 30
0.0
 11
210.4999907739
 21
-238.1249960397
 31
0.0
  0
LINE
  5
2C5
330
1F
100
AcDbEntity
  8
0
  6
Continuous
 62
     7
370
    25
100
AcDbLine
 10
210.4999907739
 20
-238.1249960397
 30
0.0
 11
190.4999904763
 21
-258.1249957414
 31
0.0
  0
LINE
  5
2C6
330
1F
100
AcDbEntity
  8
0
  6
Continuous
 62
     7
370
    25
100
AcDbLine
 10
190.4999904763
 20
-258.1249957414
 30
0.0
 11
190.4999900947
 21
-283.7499943224
 31
0.0
  0
LINE
  5
2C7
330
1F
100
AcDbEntity
  8
0
  6
Continuous
 62
     7
370
    25
100
AcDbLine
 10
190.4999900947
 20
-283.7499943224
 30
0.0
 11
190.3477491482
 21
-284.5153611849
 31
0.0
  0
LINE
  5
2C8
330
1F
100
AcDbEntity
  8
0
  6
Continuous
 62
     7
370
    25
100
AcDbLine
 10
190.3477491482
 20
-284.5153611849
 30
0.0
 11
189.914203636
 21
-285.164207876
 31
0.0
  0
LINE
  5
2C9
330
1F
100
AcDbEntity
  8
0
  6
Continuous
 62
     7
370
    25
100
AcDbLine
 10
189.914203636
 20
-285.164207876
 30
0.0
 11
189.2653569318
 21
-285.597753369
 31
0.0
  0
LINE
  5
2CA
330
1F
100
AcDbEntity
  8
0
  6
Continuous
 62
     7
370
    25
100
AcDbLine
 10
189.2653569318
 20
-285.597753369
 30
0.0
 11
188.4999900648
 21
-285.7499942926
 31
0.0
  0
LINE
  5
2CB
330
1F
100
AcDbEntity
  8
0
  6
Continuous
 62
     7
370
    25
100
AcDbLine
 10
188.4999900648
 20
-285.7499942926
 30
0.0
 11
162.8749914837
 21
-285.7499939108
 31
0.0
  0
LINE
  5
2CC
330
1F
100
AcDbEntity
  8
0
  6
Continuous
 62
     7
370
    25
100
AcDbLine
 10
162.8749914837
 20
-285.7499939108
 30
0.0
 11
142.8749911859
 21
-305.7499936126
 31
0.0
  0
LINE
  5
2CD
330
1F
100
AcDbEntity
  8
0
  6
Continuous
 62
     7
370
    25
100
AcDbLine
 10
142.8749911859
 20
-305.7499936126
 30
0.0
 11
142.8749908044
 21
-331.3749921934
 31
0.0
  0
LINE
  5
2CE
330
1F
100
AcDbEntity
  8
0
  6
Continuous
 62
     7
370
    25
100
AcDbLine
 10
142.8749908044
 20
-331.3749921934
 30
0.0
 11
142.7227498579
 21
-332.1403590559
 31
0.0
  0
LINE
  5
2CF
330
1F
100
AcDbEntity
  8
0
  6
Continuous
 62
     7
370
    25
100
AcDbLine
 10
142.7227498579
 20
-332.1403590559
 30
0.0
 11
142.2892043456
 21
-332.7892057471
 31
0.0
  0
LINE
  5
2D0
330
1F
100
AcDbEntity
  8
0
  6
Continuous
 62
     7
370
    25
100
AcDbLine
 10
142.2892043456
 20
-332.7892057471
 30
0.0
 11
141.6403576416
 21
-333.22275124
 31
0.0
  0
LINE
  5
2D1
330
1F
100
AcDbEntity
  8
0
  6
Continuous
 62
     7
370
    25
100
AcDbLine
 10
141.6403576416
 20
-333.22275124
 30
0.0
 11
140.8749907746
 21
-333.3749921636
 31
0.0
  0
LINE
  5
2D2
330
1F
100
AcDbEntity
  8
0
  6
Continuous
 62
     7
370
    25
100
AcDbLine
 10
140.8749907746
 20
-333.3749921636
 30
0.0
 11
67.6249936128
 21
-333.3749910722
 31
0.0
  0
LINE
  5
2D3
330
1F
100
AcDbEntity
  8
0
  6
Continuous
 62
     7
370
    25
100
AcDbLine
 10
67.6249936128
 20
-333.3749910722
 30
0.0
 11
47.6249933151
 21
-353.3749907739
 31
0.0
  0
LINE
  5
2D4
330
1F
100
AcDbEntity
  8
0
  6
Continuous
 62
     7
370
    25
100
AcDbLine
 10
47.6249933151
 20
-353.3749907739
 30
0.0
 11
47.6249929334
 21
-378.9999893548
 31
0.0
  0
LINE
  5
2D5
330
1F
100
AcDbEntity
  8
0
  6
Continuous
 62
     7
370
    25
100
AcDbLine
 10
47.6249929334
 20
-378.9999893548
 30
0.0
 11
47.472751987
 21
-379.7653562173
 31
0.0
  0
LINE
  5
2D6
330
1F
100
AcDbEntity
  8
0
  6
Continuous
 62
     7
370
    25
100
AcDbLine
 10
47.472751987
 20
-379.7653562173
 30
0.0
 11
47.0392064747
 21
-380.4142029085
 31
0.0
  0
LINE
  5
2D7
330
1F
100
AcDbEntity
  8
0
  6
Continuous
 62
     7
370
    25
100
AcDbLine
 10
47.0392064747
 20
-380.4142029085
 30
0.0
 11
46.3903597706
 21
-380.8477484015
 31
0.0
  0
LINE
  5
2D8
330
1F
100
AcDbEntity
  8
0
  6
Continuous
 62
     7
370
    25
100
AcDbLine
 10
46.3903597706
 20
-380.8477484015
 30
0.0
 11
45.6249929037
 21
-380.999989325
 31
0.0
  0
LINE
  5
2D9
330
1F
100
AcDbEntity
  8
0
  6
Continuous
 62
     7
370
    25
100
AcDbLine
 10
45.6249929037
 20
-380.999989325
 30
0.0
 11
5.4999943227
 21
-380.9999887349
 31
0.0
  0
LINE
  5
2DA
330
1F
100
AcDbEntity
  8
0
  6
Continuous
 62
     7
370
    25
100
AcDbLine
 10
5.4999943227
 20
-380.9999887349
 30
0.0
 11
4.7346274602
 21
-380.8477477885
 31
0.0
  0
LINE
  5
2DB
330
1F
100
AcDbEntity
  8
0
  6
Continuous
 62
     7
370
    25
100
AcDbLine
 10
4.7346274602
 20
-380.8477477885
 30
0.0
 11
4.085780769
 21
-380.4142022762
 31
0.0
  0
LINE
  5
2DC
330
1F
100
AcDbEntity
  8
0
  6
Continuous
 62
     7
370
    25
100
AcDbLine
 10
4.085780769
 20
-380.4142022762
 30
0.0
 11
3.652235276
 21
-379.7653555721
 31
0.0
  0
LINE
  5
2DD
330
1F
100
AcDbEntity
  8
0
  6
Continuous
 62
     7
370
    25
100
AcDbLine
 10
3.652235276
 20
-379.7653555721
 30
0.0
 11
3.4999943525
 21
-378.9999887051
 31
0.0
  0
LINE
  5
2DE
330
1F
100
AcDbEntity
  8
0
  6
Continuous
 62
     7
370
    25
100
AcDbLine
 10
3.4999943525
 20
-378.9999887051
 30
0.0
 11
3.4999950025
 21
-335.3749901244
 31
0.0
  0
LINE
  5
2DF
330
1F
100
AcDbEntity
  8
0
  6
Continuous
 62
     7
370
    25
100
AcDbLine
 10
3.4999950025
 20
-335.3749901244
 30
0.0
 11
3.6522359488
 21
-334.609623262
 31
0.0
  0
LINE
  5
2E0
330
1F
100
AcDbEntity
  8
0
  6
Continuous
 62
     7
370
    25
100
AcDbLine
 10
3.6522359488
 20
-334.609623262
 30
0.0
 11
4.0857814611
 21
-333.9607765708
 31
0.0
  0
LINE
  5
2E1
330
1F
100
AcDbEntity
  8
0
  6
Continuous
 62
     7
370
    25
100
AcDbLine
 10
4.0857814611
 20
-333.9607765708
 30
0.0
 11
4.7346281652
 21
-333.5272310778
 31
0.0
  0
LINE
  5
2E2
330
1F
100
AcDbEntity
  8
0
  6
Continuous
 62
     7
370
    25
100
AcDbLine
 10
4.7346281652
 20
-333.5272310778
 30
0.0
 11
5.4999950324
 21
-333.3749901542
 31
0.0
  0
LINE
  5
2E3
330
1F
100
AcDbEntity
  8
0
  6
Continuous
 62
     7
370
    25
100
AcDbLine
 10
5.4999950324
 20
-333.3749901542
 30
0.0
 11
27.6249936128
 21
-333.3749904839
 31
0.0
  0
LINE
  5
2E4
330
1F
100
AcDbEntity
  8
0
  6
Continuous
 62
     7
370
    25
100
AcDbLine
 10
27.6249936128
 20
-333.3749904839
 30
0.0
 11
47.6249939112
 21
-313.3749907816
 31
0.0
  0
LINE
  5
2E5
330
1F
100
AcDbEntity
  8
0
  6
Continuous
 62
     7
370
    25
100
AcDbLine
 10
47.6249939112
 20
-313.3749907816
 30
0.0
 11
47.6249942929
 21
-287.7499922013
 31
0.0
  0
LINE
  5
2E6
330
1F
100
AcDbEntity
  8
0
  6
Continuous
 62
     7
370
    25
100
AcDbLine
 10
47.6249942929
 20
-287.7499922013
 30
0.0
 11
47.7772352393
 21
-286.9846253388
 31
0.0
  0
LINE
  5
2E7
330
1F
100
AcDbEntity
  8
0
  6
Continuous
 62
     7
370
    25
100
AcDbLine
 10
47.7772352393
 20
-286.9846253388
 30
0.0
 11
48.2107807516
 21
-286.3357786476
 31
0.0
  0
LINE
  5
2E8
330
1F
100
AcDbEntity
  8
0
  6
Continuous
 62
     7
370
    25
100
AcDbLine
 10
48.2107807516
 20
-286.3357786476
 30
0.0
 11
48.8596274558
 21
-285.9022331546
 31
0.0
  0
LINE
  5
2E9
330
1F
100
AcDbEntity
  8
0
  6
Continuous
 62
     7
370
    25
100
AcDbLine
 10
48.8596274558
 20
-285.9022331546
 30
0.0
 11
49.6249943228
 21
-285.7499922311
 31
0.0
  0
LINE
  5
2EA
330
1F
100
AcDbEntity
  8
0
  6
Continuous
 62
     7
370
    25
100
AcDbLine
 10
49.6249943228
 20
-285.7499922311
 30
0.0
 11
122.8749914838
 21
-285.7499933225
 31
0.0
  0
LINE
  5
2EB
330
1F
100
AcDbEntity
  8
0
  6
Continuous
 62
     7
370
    25
100
AcDbLine
 10
122.8749914838
 20
-285.7499933225
 30
0.0
 11
142.8749917821
 21
-265.7499936202
 31
0.0
  0
LINE
  5
2EC
330
1F
100
AcDbEntity
  8
0
  6
Continuous
 62
     7
370
    25
100
AcDbLine
 10
142.8749917821
 20
-265.7499936202
 30
0.0
 11
142.874992164
 21
-240.1249950399
 31
0.0
  0
LINE
  5
2ED
330
1F
100
AcDbEntity
  8
0
  6
Continuous
 62
     7
370
    25
100
AcDbLine
 10
142.874992164
 20
-240.1249950399
 30
0.0
 11
143.0272331102
 21
-239.3596281774
 31
0.0
  0
LINE
  5
2EE
330
1F
100
AcDbEntity
  8
0
  6
Continuous
 62
     7
370
    25
100
AcDbLine
 10
143.0272331102
 20
-239.3596281774
 30
0.0
 11
143.4607786225
 21
-238.7107814862
 31
0.0
  0
LINE
  5
2EF
330
1F
100
AcDbEntity
  8
0
  6
Continuous
 62
     7
370
    25
100
AcDbLine
 10
143.4607786225
 20
-238.7107814862
 30
0.0
 11
144.1096253266
 21
-238.2772359932
 31
0.0
  0
LINE
  5
2F0
330
1F
100
AcDbEntity
  8
0
  6
Continuous
 62
     7
370
    25
100
AcDbLine
 10
144.1096253266
 20
-238.2772359932
 30
0.0
 11
144.8749921938
 21
-238.1249950697
 31
0.0
  0
LINE
  5
2F1
330
1F
100
AcDbEntity
  8
0
  6
Continuous
 62
     7
370
    25
100
AcDbLine
 10
144.8749921938
 20
-238.1249950697
 30
0.0
 11
170.499990774
 21
-238.1249954515
 31
0.0
  0
LINE
  5
2F2
330
1F
100
AcDbEntity
  8
0
  6
Continuous
 62
     7
370
    25
100
AcDbLine
 10
170.499990774
 20
-238.1249954515
 30
0.0
 11
190.4999910723
 21
-218.1249957493
 31
0.0
  0
LINE
  5
2F3
330
1F
100
AcDbEntity
  8
0
  6
Continuous
 62
     7
370
    25
100
AcDbLine
 10
190.4999910723
 20
-218.1249957493
 30
0.0
 11
190.4999911859
 21
-210.4999971691
 31
0.0
  0
LINE
  5
2F4
330
1F
100
AcDbEntity
  8
0
  6
Continuous
 62
     7
370
    25
100
AcDbLine
 10
190.4999911859
 20
-210.4999971691
 30
0.0
 11
170.4999914838
 21
-190.4999968708
 31
0.0
  0
LINE
  5
2F5
330
1F
100
AcDbEntity
  8
0
  6
Continuous
 62
     7
370
    25
100
AcDbLine
 10
170.4999914838
 20
-190.4999968708
 30
0.0
 11
144.8749929034
 21
-190.499996489
 31
0.0
  0
LINE
  5
2F6
330
1F
100
AcDbEntity
  8
0
  6
Continuous
 62
     7
370
    25
100
AcDbLine
 10
144.8749929034
 20
-190.499996489
 30
0.0
 11
144.1096260408
 21
-190.3477555426
 31
0.0
  0
LINE
  5
2F7
330
1F
100
AcDbEntity
  8
0
  6
Continuous
 62
     7
370
    25
100
AcDbLine
 10
144.1096260408
 20
-190.3477555426
 30
0.0
 11
143.4607793497
 21
-189.9142100303
 31
0.0
  0
LINE
  5
2F8
330
1F
100
AcDbEntity
  8
0
  6
Continuous
 62
     7
370
    25
100
AcDbLine
 10
143.4607793497
 20
-189.9142100303
 30
0.0
 11
143.0272338567
 21
-189.2653633262
 31
0.0
  0
LINE
  5
2F9
330
1F
100
AcDbEntity
  8
0
  6
Continuous
 62
     7
370
    25
100
AcDbLine
 10
143.0272338567
 20
-189.2653633262
 30
0.0
 11
142.8749929331
 21
-188.4999964592
 31
0.0
  0
LINE
  5
2FA
330
1F
100
AcDbEntity
  8
0
  6
Continuous
 62
     7
370
    25
100
AcDbLine
 10
142.8749929331
 20
-188.4999964592
 30
0.0
 11
142.8749933149
 21
-162.8749978788
 31
0.0
  0
LINE
  5
2FB
330
1F
100
AcDbEntity
  8
0
  6
Continuous
 62
     7
370
    25
100
AcDbLine
 10
142.8749933149
 20
-162.8749978788
 30
0.0
 11
122.8749936127
 21
-142.8749975806
 31
0.0
  0
LINE
  5
2FC
330
1F
100
AcDbEntity
  8
0
  6
Continuous
 62
     7
370
    25
100
AcDbLine
 10
122.8749936127
 20
-142.8749975806
 30
0.0
 11
115.2499950319
 21
-142.8749974669
 31
0.0
  0
LINE
  5
2FD
330
1F
100
AcDbEntity
  8
0
  6
Continuous
 62
     7
370
    25
100
AcDbLine
 10
115.2499950319
 20
-142.8749974669
 30
0.0
 11
95.2499947343
 21
-162.8749971686
 31
0.0
  0
LINE
  5
2FE
330
1F
100
AcDbEntity
  8
0
  6
Continuous
 62
     7
370
    25
100
AcDbLine
 10
95.2499947343
 20
-162.8749971686
 30
0.0
 11
95.2499943526
 21
-188.4999957496
 31
0.0
  0
LINE
  5
2FF
330
1F
100
AcDbEntity
  8
0
  6
Continuous
 62
     7
370
    25
100
AcDbLine
 10
95.2499943526
 20
-188.4999957496
 30
0.0
 11
95.0977534062
 21
-189.2653626121
 31
0.0
  0
LINE
  5
300
330
1F
100
AcDbEntity
  8
0
  6
Continuous
 62
     7
370
    25
100
AcDbLine
 10
95.0977534062
 20
-189.2653626121
 30
0.0
 11
94.6642078939
 21
-189.9142093033
 31
0.0
  0
LINE
  5
301
330
1F
100
AcDbEntity
  8
0
  6
Continuous
 62
     7
370
    25
100
AcDbLine
 10
94.6642078939
 20
-189.9142093033
 30
0.0
 11
94.0153611897
 21
-190.3477547963
 31
0.0
  0
LINE
  5
302
330
1F
100
AcDbEntity
  8
0
  6
Continuous
 62
     7
370
    25
100
AcDbLine
 10
94.0153611897
 20
-190.3477547963
 30
0.0
 11
93.2499943228
 21
-190.4999957198
 31
0.0
  0
LINE
  5
303
330
1F
100
AcDbEntity
  8
0
  6
Continuous
 62
     7
370
    25
100
AcDbLine
 10
93.2499943228
 20
-190.4999957198
 30
0.0
 11
67.6249957416
 21
-190.499995338
 31
0.0
  0
LINE
  5
304
330
1F
100
AcDbEntity
  8
0
  6
Continuous
 62
     7
370
    25
100
AcDbLine
 10
67.6249957416
 20
-190.499995338
 30
0.0
 11
47.624995444
 21
-210.4999950396
 31
0.0
  0
LINE
  5
305
330
1F
100
AcDbEntity
  8
0
  6
Continuous
 62
     7
370
    25
100
AcDbLine
 10
47.624995444
 20
-210.4999950396
 30
0.0
 11
47.6249950621
 21
-236.1249936206
 31
0.0
  0
LINE
  5
306
330
1F
100
AcDbEntity
  8
0
  6
Continuous
 62
     7
370
    25
100
AcDbLine
 10
47.6249950621
 20
-236.1249936206
 30
0.0
 11
47.5520460332
 21
-236.9340106139
 31
0.0
  0
LINE
  5
307
330
1F
100
AcDbEntity
  8
0
  6
Continuous
 62
     7
370
    25
100
AcDbLine
 10
47.5520460332
 20
-236.9340106139
 30
0.0
 11
47.1249950398
 21
-237.6249936132
 31
0.0
  0
LINE
  5
308
330
1F
100
AcDbEntity
  8
0
  6
Continuous
 62
     7
370
    25
100
AcDbLine
 10
47.1249950398
 20
-237.6249936132
 30
0.0
 11
46.4340120278
 21
-238.052044586
 31
0.0
  0
LINE
  5
309
330
1F
100
AcDbEntity
  8
0
  6
Continuous
 62
     7
370
    25
100
AcDbLine
 10
46.4340120278
 20
-238.052044586
 30
0.0
 11
45.6249950325
 21
-238.1249935908
 31
0.0
  0
LINE
  5
30A
330
1F
100
AcDbEntity
  8
0
  6
Continuous
 62
     7
370
    25
100
AcDbLine
 10
45.6249950325
 20
-238.1249935908
 30
0.0
 11
5.4999964515
 21
-238.1249929929
 31
0.0
  0
LINE
  5
30B
330
1F
100
AcDbEntity
  8
0
  6
Continuous
 62
     7
370
    25
100
AcDbLine
 10
5.4999964515
 20
-238.1249929929
 30
0.0
 11
4.734629589
 21
-237.9727520465
 31
0.0
  0
LINE
  5
30C
330
1F
100
AcDbEntity
  8
0
  6
Continuous
 62
     7
370
    25
100
AcDbLine
 10
4.734629589
 20
-237.9727520465
 30
0.0
 11
4.0857828978
 21
-237.5392065342
 31
0.0
  0
LINE
  5
30D
330
1F
100
AcDbEntity
  8
0
  6
Continuous
 62
     7
370
    25
100
AcDbLine
 10
4.0857828978
 20
-237.5392065342
 30
0.0
 11
3.6522374049
 21
-236.8903598301
 31
0.0
  0
LINE
  5
30E
330
1F
100
AcDbEntity
  8
0
  6
Continuous
 62
     7
370
    25
100
AcDbLine
 10
3.6522374049
 20
-236.8903598301
 30
0.0
 11
3.4999964813
 21
-236.1249929631
 31
0.0
  0
LINE
  5
30F
330
1F
100
AcDbEntity
  8
0
  6
Continuous
 62
     7
370
    25
100
AcDbLine
 10
3.4999964813
 20
-236.1249929631
 30
0.0
 11
3.4999971313
 21
-192.4999943825
 31
0.0
  0
LINE
  5
310
330
1F
100
AcDbEntity
  8
0
  6
Continuous
 62
     7
370
    25
100
AcDbLine
 10
3.4999971313
 20
-192.4999943825
 30
0.0
 11
3.6522380776
 21
-191.73462752
 31
0.0
  0
LINE
  5
311
330
1F
100
AcDbEntity
  8
0
  6
Continuous
 62
     7
370
    25
100
AcDbLine
 10
3.6522380776
 20
-191.73462752
 30
0.0
 11
4.0857835899
 21
-191.0857808289
 31
0.0
  0
LINE
  5
312
330
1F
100
AcDbEntity
  8
0
  6
Continuous
 62
     7
370
    25
100
AcDbLine
 10
4.0857835899
 20
-191.0857808289
 30
0.0
 11
4.734630294
 21
-190.6522353359
 31
0.0
  0
LINE
  5
313
330
1F
100
AcDbEntity
  8
0
  6
Continuous
 62
     7
370
    25
100
AcDbLine
 10
4.734630294
 20
-190.6522353359
 30
0.0
 11
5.4999971611
 21
-190.4999944123
 31
0.0
  0
LINE
  5
314
330
1F
100
AcDbEntity
  8
0
  6
Continuous
 62
     7
370
    25
100
AcDbLine
 10
5.4999971611
 20
-190.4999944123
 30
0.0
 11
27.6249957417
 21
-190.499994742
 31
0.0
  0
LINE
  5
315
330
1F
100
AcDbEntity
  8
0
  6
Continuous
 62
     7
370
    25
100
AcDbLine
 10
27.6249957417
 20
-190.499994742
 30
0.0
 11
47.62499604
 21
-170.4999950396
 31
0.0
  0
LINE
  5
316
330
1F
100
AcDbEntity
  8
0
  6
Continuous
 62
     7
370
    25
100
AcDbLine
 10
47.62499604
 20
-170.4999950396
 30
0.0
 11
47.6249964218
 21
-144.8749964593
 31
0.0
  0
LINE
  5
317
330
1F
100
AcDbEntity
  8
0
  6
Continuous
 62
     7
370
    25
100
AcDbLine
 10
47.6249964218
 20
-144.8749964593
 30
0.0
 11
47.777237368
 21
-144.1096295969
 31
0.0
  0
LINE
  5
318
330
1F
100
AcDbEntity
  8
0
  6
Continuous
 62
     7
370
    25
100
AcDbLine
 10
47.777237368
 20
-144.1096295969
 30
0.0
 11
48.2107828804
 21
-143.4607829057
 31
0.0
  0
LINE
  5
319
330
1F
100
AcDbEntity
  8
0
  6
Continuous
 62
     7
370
    25
100
AcDbLine
 10
48.2107828804
 20
-143.4607829057
 30
0.0
 11
48.8596295845
 21
-143.0272374127
 31
0.0
  0
LINE
  5
31A
330
1F
100
AcDbEntity
  8
0
  6
Continuous
 62
     7
370
    25
100
AcDbLine
 10
48.8596295845
 20
-143.0272374127
 30
0.0
 11
49.6249964516
 21
-142.8749964891
 31
0.0
  0
LINE
  5
31B
330
1F
100
AcDbEntity
  8
0
  6
Continuous
 62
     7
370
    25
100
AcDbLine
 10
49.6249964516
 20
-142.8749964891
 30
0.0
 11
75.249995032
 21
-142.8749968709
 31
0.0
  0
LINE
  5
31C
330
1F
100
AcDbEntity
  8
0
  6
Continuous
 62
     7
370
    25
100
AcDbLine
 10
75.249995032
 20
-142.8749968709
 30
0.0
 11
95.2499953303
 21
-122.8749971686
 31
0.0
  0
LINE
  5
31D
330
1F
100
AcDbEntity
  8
0
  6
Continuous
 62
     7
370
    25
100
AcDbLine
 10
95.2499953303
 20
-122.8749971686
 30
0.0
 11
95.249995444
 21
-115.2499985886
 31
0.0
  0
LINE
  5
31E
330
1F
100
AcDbEntity
  8
0
  6
Continuous
 62
     7
370
    25
100
AcDbLine
 10
95.249995444
 20
-115.2499985886
 30
0.0
 11
75.2499957417
 21
-95.2499982903
 31
0.0
  0
LINE
  5
31F
330
1F
100
AcDbEntity
  8
0
  6
Continuous
 62
     7
370
    25
100
AcDbLine
 10
75.2499957417
 20
-95.2499982903
 30
0.0
 11
49.6249971612
 21
-95.2499979085
 31
0.0
  0
LINE
  5
320
330
1F
100
AcDbEntity
  8
0
  6
Continuous
 62
     7
370
    25
100
AcDbLine
 10
49.6249971612
 20
-95.2499979085
 30
0.0
 11
48.8596302987
 21
-95.097756962
 31
0.0
  0
LINE
  5
321
330
1F
100
AcDbEntity
  8
0
  6
Continuous
 62
     7
370
    25
100
AcDbLine
 10
48.8596302987
 20
-95.097756962
 30
0.0
 11
48.2107836076
 21
-94.6642114497
 31
0.0
  0
LINE
  5
322
330
1F
100
AcDbEntity
  8
0
  6
Continuous
 62
     7
370
    25
100
AcDbLine
 10
48.2107836076
 20
-94.6642114497
 30
0.0
 11
47.7772381146
 21
-94.0153647456
 31
0.0
  0
LINE
  5
323
330
1F
100
AcDbEntity
  8
0
  6
Continuous
 62
     7
370
    25
100
AcDbLine
 10
47.7772381146
 20
-94.0153647456
 30
0.0
 11
47.6249971911
 21
-93.2499978787
 31
0.0
  0
LINE
  5
324
330
1F
100
AcDbEntity
  8
0
  6
Continuous
 62
     7
370
    25
100
AcDbLine
 10
47.6249971911
 20
-93.2499978787
 30
0.0
 11
47.6249975729
 21
-67.6249992984
 31
0.0
  0
LINE
  5
325
330
1F
100
AcDbEntity
  8
0
  6
Continuous
 62
     7
370
    25
100
AcDbLine
 10
47.6249975729
 20
-67.6249992984
 30
0.0
 11
27.6249978707
 21
-47.624999
 31
0.0
  0
LINE
  5
326
330
1F
100
AcDbEntity
  8
0
  6
Continuous
 62
     7
370
    25
100
AcDbLine
 10
27.6249978707
 20
-47.624999
 30
0.0
 11
5.4999992899
 21
-47.6249986703
 31
0.0
  0
LINE
  5
327
330
1F
100
AcDbEntity
  8
0
  6
Continuous
 62
     7
370
    25
100
AcDbLine
 10
5.4999992899
 20
-47.6249986703
 30
0.0
 11
4.7346324275
 21
-47.4727577239
 31
0.0
  0
LINE
  5
328
330
1F
100
AcDbEntity
  8
0
  6
Continuous
 62
     7
370
    25
100
AcDbLine
 10
4.7346324275
 20
-47.4727577239
 30
0.0
 11
4.0857857363
 21
-47.0392122116
 31
0.0
  0
LINE
  5
329
330
1F
100
AcDbEntity
  8
0
  6
Continuous
 62
     7
370
    25
100
AcDbLine
 10
4.0857857363
 20
-47.0392122116
 30
0.0
 11
3.6522402433
 21
-46.3903655075
 31
0.0
  0
LINE
  5
32A
330
1F
100
AcDbEntity
  8
0
  6
Continuous
 62
     7
370
    25
100
AcDbLine
 10
3.6522402433
 20
-46.3903655075
 30
0.0
 11
3.4999993198
 21
-45.6249986405
 31
0.0
  0
LINE
  5
32B
330
1F
100
AcDbEntity
  8
0
  6
Continuous
 62
     7
370
    25
100
AcDbLine
 10
3.4999993198
 20
-45.6249986405
 30
0.0
 11
3.4999999997
 21
-0.0000000599
 31
0.0
  0
LINE
  5
32C
330
1F
100
AcDbEntity
  8
0
  6
Continuous
 62
     7
370
    25
100
AcDbLine
 10
3.4999999997
 20
-0.0000000599
 30
0.0
 11
-0.0000000003
 21
-0.0000000599
 31
0.0
  0
LINE
  5
32D
330
1F
100
AcDbEntity
  8
0
  6
Continuous
 62
     7
370
    25
100
AcDbLine
 10
-0.0000000003
 20
-0.0000000599
 30
0.0
 11
-0.0000056472
 21
-378.9999887051
 31
0.0
  0
LINE
  5
32E
330
1F
100
AcDbEntity
  8
0
  6
Continuous
 62
     7
370
    25
100
AcDbLine
 10
-0.0000056472
 20
-378.9999887051
 30
0.0
 11
-0.1522465937
 21
-379.7653555676
 31
0.0
  0
LINE
  5
32F
330
1F
100
AcDbEntity
  8
0
  6
Continuous
 62
     7
370
    25
100
AcDbLine
 10
-0.1522465937
 20
-379.7653555676
 30
0.0
 11
-0.585792106
 21
-380.4142022588
 31
0.0
  0
LINE
  5
330
330
1F
100
AcDbEntity
  8
0
  6
Continuous
 62
     7
370
    25
100
AcDbLine
 10
-0.585792106
 20
-380.4142022588
 30
0.0
 11
-1.2346388101
 21
-380.8477477518
 31
0.0
  0
LINE
  5
331
330
1F
100
AcDbEntity
  8
0
  6
Continuous
 62
     7
370
    25
100
AcDbLine
 10
-1.2346388101
 20
-380.8477477518
 30
0.0
 11
-2.0000056771
 21
-380.9999886753
 31
0.0
  0
LINE
  5
332
330
1F
100
AcDbEntity
  8
0
  6
Continuous
 62
     7
370
    25
100
AcDbLine
 10
-2.0000056771
 20
-380.9999886753
 30
0.0
 11
-93.2500028383
 21
-380.999987338
 31
0.0
  0
LINE
  5
333
330
1F
100
AcDbEntity
  8
0
  6
Continuous
 62
     7
370
    25
100
AcDbLine
 10
-93.2500028383
 20
-380.999987338
 30
0.0
 11
-94.0153697008
 21
-380.8477463916
 31
0.0
  0
LINE
  5
334
330
1F
100
AcDbEntity
  8
0
  6
Continuous
 62
     7
370
    25
100
AcDbLine
 10
-94.0153697008
 20
-380.8477463916
 30
0.0
 11
-94.664216392
 21
-380.4142008793
 31
0.0
  0
LINE
  5
335
330
1F
100
AcDbEntity
  8
0
  6
Continuous
 62
     7
370
    25
100
AcDbLine
 10
-94.664216392
 20
-380.4142008793
 30
0.0
 11
-95.097761885
 21
-379.7653541752
 31
0.0
  0
LINE
  5
336
330
1F
100
AcDbEntity
  8
0
  6
Continuous
 62
     7
370
    25
100
AcDbLine
 10
-95.097761885
 20
-379.7653541752
 30
0.0
 11
-95.2500028085
 21
-378.9999873082
 31
0.0
  0
LINE
  5
337
330
1F
100
AcDbEntity
  8
0
  6
Continuous
 62
     7
370
    25
100
AcDbLine
 10
-95.2500028085
 20
-378.9999873082
 30
0.0
 11
-95.2500024268
 21
-353.3749887278
 31
0.0
  0
LINE
  5
338
330
1F
100
AcDbEntity
  8
0
  6
Continuous
 62
     7
370
    25
100
AcDbLine
 10
-95.2500024268
 20
-353.3749887278
 30
0.0
 11
-115.250002129
 21
-333.3749884296
 31
0.0
  0
LINE
  5
339
330
1F
100
AcDbEntity
  8
0
  6
Continuous
 62
     7
370
    25
100
AcDbLine
 10
-115.250002129
 20
-333.3749884296
 30
0.0
 11
-188.49999929
 21
-333.3749873381
 31
0.0
  0
LINE
  5
33A
330
1F
100
AcDbEntity
  8
0
  6
Continuous
 62
     7
370
    25
100
AcDbLine
 10
-188.49999929
 20
-333.3749873381
 30
0.0
 11
-189.2653661525
 21
-333.2227463917
 31
0.0
  0
LINE
  5
33B
330
1F
100
AcDbEntity
  8
0
  6
Continuous
 62
     7
370
    25
100
AcDbLine
 10
-189.2653661525
 20
-333.2227463917
 30
0.0
 11
-189.9142128437
 21
-332.7892008794
 31
0.0
  0
LINE
  5
33C
330
1F
100
AcDbEntity
  8
0
  6
Continuous
 62
     7
370
    25
100
AcDbLine
 10
-189.9142128437
 20
-332.7892008794
 30
0.0
 11
-190.3477583367
 21
-332.1403541753
 31
0.0
  0
LINE
  5
33D
330
1F
100
AcDbEntity
  8
0
  6
Continuous
 62
     7
370
    25
100
AcDbLine
 10
-190.3477583367
 20
-332.1403541753
 30
0.0
 11
-190.4999992602
 21
-331.3749873083
 31
0.0
  0
LINE
  5
33E
330
1F
100
AcDbEntity
  8
0
  6
Continuous
 62
     7
370
    25
100
AcDbLine
 10
-190.4999992602
 20
-331.3749873083
 30
0.0
 11
-190.4999988784
 21
-305.7499887279
 31
0.0
  0
LINE
  5
33F
330
1F
100
AcDbEntity
  8
0
  6
Continuous
 62
     7
370
    25
100
AcDbLine
 10
-190.4999988784
 20
-305.7499887279
 30
0.0
 11
-210.4999985807
 21
-285.7499884297
 31
0.0
  0
LINE
  5
340
330
1F
100
AcDbEntity
  8
0
  6
Continuous
 62
     7
370
    25
100
AcDbLine
 10
-210.4999985807
 20
-285.7499884297
 30
0.0
 11
-265.749995742
 21
-285.7499876064
 31
0.0
  0
LINE
  5
341
330
1F
100
AcDbEntity
  8
0
  6
Continuous
 62
     7
370
    25
100
AcDbLine
 10
-265.749995742
 20
-285.7499876064
 30
0.0
 11
-285.7499960398
 21
-305.7499873082
 31
0.0
  0
LINE
  5
342
330
1F
100
AcDbEntity
  8
0
  6
Continuous
 62
     7
370
    25
100
AcDbLine
 10
-285.7499960398
 20
-305.7499873082
 30
0.0
 11
-285.7499964215
 21
-331.3749858891
 31
0.0
  0
LINE
  5
343
330
1F
100
AcDbEntity
  8
0
  6
Continuous
 62
     7
370
    25
100
AcDbLine
 10
-285.7499964215
 20
-331.3749858891
 30
0.0
 11
-285.902237368
 21
-332.1403527515
 31
0.0
  0
LINE
  5
344
330
1F
100
AcDbEntity
  8
0
  6
Continuous
 62
     7
370
    25
100
AcDbLine
 10
-285.902237368
 20
-332.1403527515
 30
0.0
 11
-286.3357828802
 21
-332.7891994427
 31
0.0
  0
LINE
  5
345
330
1F
100
AcDbEntity
  8
0
  6
Continuous
 62
     7
370
    25
100
AcDbLine
 10
-286.3357828802
 20
-332.7891994427
 30
0.0
 11
-286.9846295843
 21
-333.2227449357
 31
0.0
  0
LINE
  5
346
330
1F
100
AcDbEntity
  8
0
  6
Continuous
 62
     7
370
    25
100
AcDbLine
 10
-286.9846295843
 20
-333.2227449357
 30
0.0
 11
-287.7499964513
 21
-333.3749858593
 31
0.0
  0
LINE
  5
347
330
1F
100
AcDbEntity
  8
0
  6
Continuous
 62
     7
370
    25
100
AcDbLine
 10
-287.7499964513
 20
-333.3749858593
 30
0.0
 11
-313.374995032
 21
-333.3749854774
 31
0.0
  0
LINE
  5
348
330
1F
100
AcDbEntity
  8
0
  6
Continuous
 62
     7
370
    25
100
AcDbLine
 10
-313.374995032
 20
-333.3749854774
 30
0.0
 11
-333.3749953301
 21
-353.3749851794
 31
0.0
  0
LINE
  5
349
330
1F
100
AcDbEntity
  8
0
  6
Continuous
 62
     7
370
    25
100
AcDbLine
 10
-333.3749953301
 20
-353.3749851794
 30
0.0
 11
-333.3749966058
 21
-439.0048505366
 31
0.0
  0
LINE
  5
34A
330
1F
100
AcDbEntity
  8
0
  6
Continuous
 62
     7
370
    25
100
AcDbLine
 10
-380.9999951865
 20
-439.0048498269
 30
0.0
 11
-333.3749966058
 21
-439.0048505366
 31
0.0
  0
LINE
  5
34B
330
1F
100
AcDbEntity
  8
0
  6
Continuous
 62
     7
370
    25
100
AcDbLine
 10
-380.9999936424
 20
-335.3749844698
 30
0.0
 11
-380.9999951865
 21
-439.0048498269
 31
0.0
  0
LINE
  5
34C
330
1F
100
AcDbEntity
  8
0
  6
Continuous
 62
     7
370
    25
100
AcDbLine
 10
-380.9999936424
 20
-335.3749844698
 30
0.0
 11
-380.847752696
 21
-334.6096176074
 31
0.0
  0
LINE
  5
34D
330
1F
100
AcDbEntity
  8
0
  6
Continuous
 62
     7
370
    25
100
AcDbLine
 10
-380.847752696
 20
-334.6096176074
 30
0.0
 11
-380.4142071837
 21
-333.9607709162
 31
0.0
  0
LINE
  5
34E
330
1F
100
AcDbEntity
  8
0
  6
Continuous
 62
     7
370
    25
100
AcDbLine
 10
-380.4142071837
 20
-333.9607709162
 30
0.0
 11
-379.7653604796
 21
-333.5272254232
 31
0.0
  0
LINE
  5
34F
330
1F
100
AcDbEntity
  8
0
  6
Continuous
 62
     7
370
    25
100
AcDbLine
 10
-379.7653604796
 20
-333.5272254232
 30
0.0
 11
-378.9999936126
 21
-333.3749844996
 31
0.0
  0
LINE
  5
350
330
1F
100
AcDbEntity
  8
0
  6
Continuous
 62
     7
370
    25
100
AcDbLine
 10
-378.9999936126
 20
-333.3749844996
 30
0.0
 11
-353.3749950321
 21
-333.3749848814
 31
0.0
  0
LINE
  5
351
330
1F
100
AcDbEntity
  8
0
  6
Continuous
 62
     7
370
    25
100
AcDbLine
 10
-353.3749950321
 20
-333.3749848814
 30
0.0
 11
-333.3749947341
 21
-313.3749851794
 31
0.0
  0
LINE
  5
352
330
1F
100
AcDbEntity
  8
0
  6
Continuous
 62
     7
370
    25
100
AcDbLine
 10
-333.3749947341
 20
-313.3749851794
 30
0.0
 11
-333.3749943521
 21
-287.7499865988
 31
0.0
  0
LINE
  5
353
330
1F
100
AcDbEntity
  8
0
  6
Continuous
 62
     7
370
    25
100
AcDbLine
 10
-333.3749943521
 20
-287.7499865988
 30
0.0
 11
-333.2227534057
 21
-286.9846197363
 31
0.0
  0
LINE
  5
354
330
1F
100
AcDbEntity
  8
0
  6
Continuous
 62
     7
370
    25
100
AcDbLine
 10
-333.2227534057
 20
-286.9846197363
 30
0.0
 11
-332.7892078935
 21
-286.3357730451
 31
0.0
  0
LINE
  5
355
330
1F
100
AcDbEntity
  8
0
  6
Continuous
 62
     7
370
    25
100
AcDbLine
 10
-332.7892078935
 20
-286.3357730451
 30
0.0
 11
-332.1403611892
 21
-285.9022275522
 31
0.0
  0
LINE
  5
356
330
1F
100
AcDbEntity
  8
0
  6
Continuous
 62
     7
370
    25
100
AcDbLine
 10
-332.1403611892
 20
-285.9022275522
 30
0.0
 11
-331.3749943222
 21
-285.7499866286
 31
0.0
  0
LINE
  5
357
330
1F
100
AcDbEntity
  8
0
  6
Continuous
 62
     7
370
    25
100
AcDbLine
 10
-331.3749943222
 20
-285.7499866286
 30
0.0
 11
-305.749995742
 21
-285.7499870104
 31
0.0
  0
LINE
  5
358
330
1F
100
AcDbEntity
  8
0
  6
Continuous
 62
     7
370
    25
100
AcDbLine
 10
-305.749995742
 20
-285.7499870104
 30
0.0
 11
-285.7499954438
 21
-265.7499873082
 31
0.0
  0
LINE
  5
359
330
1F
100
AcDbEntity
  8
0
  6
Continuous
 62
     7
370
    25
100
AcDbLine
 10
-285.7499954438
 20
-265.7499873082
 30
0.0
 11
-285.7499929105
 21
-95.7499929036
 31
0.0
  0
LINE
  5
35A
330
1F
100
AcDbEntity
  8
0
  6
Continuous
 62
     7
370
    25
100
AcDbLine
 10
-285.2499929031
 20
-95.249992911
 30
0.0
 11
-240.1249943225
 21
-95.2499935834
 31
0.0
  0
LINE
  5
35B
330
1F
100
AcDbEntity
  8
0
  6
Continuous
 62
     7
370
    25
100
AcDbLine
 10
-240.1249943225
 20
-95.2499935834
 30
0.0
 11
-239.3596274602
 21
-95.4022345298
 31
0.0
  0
LINE
  5
35C
330
1F
100
AcDbEntity
  8
0
  6
Continuous
 62
     7
370
    25
100
AcDbLine
 10
-239.3596274602
 20
-95.4022345298
 30
0.0
 11
-238.710780769
 21
-95.8357800421
 31
0.0
  0
LINE
  5
35D
330
1F
100
AcDbEntity
  8
0
  6
Continuous
 62
     7
370
    25
100
AcDbLine
 10
-238.710780769
 20
-95.8357800421
 30
0.0
 11
-238.277235276
 21
-96.4846267462
 31
0.0
  0
LINE
  5
35E
330
1F
100
AcDbEntity
  8
0
  6
Continuous
 62
     7
370
    25
100
AcDbLine
 10
-238.277235276
 20
-96.4846267462
 30
0.0
 11
-238.1249943524
 21
-97.2499936132
 31
0.0
  0
LINE
  5
35F
330
1F
100
AcDbEntity
  8
0
  6
Continuous
 62
     7
370
    25
100
AcDbLine
 10
-238.1249943524
 20
-97.2499936132
 30
0.0
 11
-238.1249957418
 21
-190.4999907745
 31
0.0
  0
LINE
  5
360
330
1F
100
AcDbEntity
  8
0
  6
Continuous
 62
     7
370
    25
100
AcDbLine
 10
-238.1249957418
 20
-190.4999907745
 30
0.0
 11
-210.4999971615
 21
-190.4999911861
 31
0.0
  0
LINE
  5
361
330
1F
100
AcDbEntity
  8
0
  6
Continuous
 62
     7
370
    25
100
AcDbLine
 10
-210.4999971615
 20
-190.4999911861
 30
0.0
 11
-190.4999968633
 21
-170.4999914839
 31
0.0
  0
LINE
  5
362
330
1F
100
AcDbEntity
  8
0
  6
Continuous
 62
     7
370
    25
100
AcDbLine
 10
-190.4999968633
 20
-170.4999914839
 30
0.0
 11
-190.4999950397
 21
-48.1249957422
 31
0.0
  0
LINE
  5
363
330
1F
100
AcDbEntity
  8
0
  6
Continuous
 62
     7
370
    25
100
AcDbLine
 10
-190.9999950322
 20
-47.6249957347
 30
0.0
 11
-236.124993613
 21
-47.6249950623
 31
0.0
  0
LINE
  5
364
330
1F
100
AcDbEntity
  8
0
  6
Continuous
 62
     7
370
    25
100
AcDbLine
 10
-236.124993613
 20
-47.6249950623
 30
0.0
 11
-236.8903604755
 21
-47.4727541159
 31
0.0
  0
LINE
  5
365
330
1F
100
AcDbEntity
  8
0
  6
Continuous
 62
     7
370
    25
100
AcDbLine
 10
-236.8903604755
 20
-47.4727541159
 30
0.0
 11
-237.5392071667
 21
-47.0392086036
 31
0.0
  0
LINE
  5
366
330
1F
100
AcDbEntity
  8
0
  6
Continuous
 62
     7
370
    25
100
AcDbLine
 10
-237.5392071667
 20
-47.0392086036
 30
0.0
 11
-237.9727526596
 21
-46.3903618995
 31
0.0
  0
LINE
  5
367
330
1F
100
AcDbEntity
  8
0
  6
Continuous
 62
     7
370
    25
100
AcDbLine
 10
-237.9727526596
 20
-46.3903618995
 30
0.0
 11
-238.1249935831
 21
-45.6249950325
 31
0.0
  0
LINE
  5
368
330
1F
100
AcDbEntity
  8
0
  6
Continuous
 62
     7
370
    25
100
AcDbLine
 10
-238.1249935831
 20
-45.6249950325
 30
0.0
 11
-238.1249921936
 21
47.6250021288
 31
0.0
  0
LINE
  5
369
330
1F
100
AcDbEntity
  8
0
  6
Continuous
 62
     7
370
    25
100
AcDbLine
 10
-238.1249921936
 20
47.6250021288
 30
0.0
 11
-285.7499907742
 21
47.6250028384
 31
0.0
  0
LINE
  5
36A
330
1F
100
AcDbEntity
  8
0
  6
Continuous
 62
     7
370
    25
100
AcDbLine
 10
-285.7499907742
 20
47.6250028384
 30
0.0
 11
-285.7499928956
 21
-94.7499929036
 31
0.0
  0
LINE
  5
36B
330
1F
100
AcDbEntity
  8
0
  6
Continuous
 62
     7
370
    25
100
AcDbLine
 10
-286.2499929031
 20
-95.2499928961
 30
0.0
 11
-331.3749914838
 21
-95.2499922238
 31
0.0
  0
LINE
  5
36C
330
1F
100
AcDbEntity
  8
0
  6
Continuous
 62
     7
370
    25
100
AcDbLine
 10
-331.3749914838
 20
-95.2499922238
 30
0.0
 11
-332.1403583462
 21
-95.0977512773
 31
0.0
  0
LINE
  5
36D
330
1F
100
AcDbEntity
  8
0
  6
Continuous
 62
     7
370
    25
100
AcDbLine
 10
-332.1403583462
 20
-95.0977512773
 30
0.0
 11
-332.7892050374
 21
-94.664205765
 31
0.0
  0
LINE
  5
36E
330
1F
100
AcDbEntity
  8
0
  6
Continuous
 62
     7
370
    25
100
AcDbLine
 10
-332.7892050374
 20
-94.664205765
 30
0.0
 11
-333.2227505303
 21
-94.0153590609
 31
0.0
  0
LINE
  5
36F
330
1F
100
AcDbEntity
  8
0
  6
Continuous
 62
     7
370
    25
100
AcDbLine
 10
-333.2227505303
 20
-94.0153590609
 30
0.0
 11
-333.374991454
 21
-93.2499921939
 31
0.0
  0
LINE
  5
370
330
1F
100
AcDbEntity
  8
0
  6
Continuous
 62
     7
370
    25
100
AcDbLine
 10
-333.374991454
 20
-93.2499921939
 30
0.0
 11
-333.3749893549
 21
47.625003548
 31
0.0
  0
LINE
  5
371
330
1F
100
AcDbEntity
  8
0
  6
Continuous
 62
     7
370
    25
100
AcDbLine
 10
-333.3749893549
 20
47.625003548
 30
0.0
 11
-378.9999879057
 21
47.6250042278
 31
0.0
  0
LINE
  5
372
330
1F
100
AcDbEntity
  8
0
  6
Continuous
 62
     7
370
    25
100
AcDbLine
 10
-378.9999879057
 20
47.6250042278
 30
0.0
 11
-379.7653547682
 21
47.7772451742
 31
0.0
  0
LINE
  5
373
330
1F
100
AcDbEntity
  8
0
  6
Continuous
 62
     7
370
    25
100
AcDbLine
 10
-379.7653547682
 20
47.7772451742
 30
0.0
 11
-380.4142014595
 21
48.2107906865
 31
0.0
  0
LINE
  5
374
330
1F
100
AcDbEntity
  8
0
  6
Continuous
 62
     7
370
    25
100
AcDbLine
 10
-380.4142014595
 20
48.2107906865
 30
0.0
 11
-380.8477469525
 21
48.8596373906
 31
0.0
  0
LINE
  5
375
330
1F
100
AcDbEntity
  8
0
  6
Continuous
 62
     7
370
    25
100
AcDbLine
 10
-380.8477469525
 20
48.8596373906
 30
0.0
 11
-380.999987876
 21
49.6250042576
 31
0.0
  0
LINE
  5
376
330
1F
100
AcDbEntity
  8
0
  6
Continuous
 62
     7
370
    25
100
AcDbLine
 10
-380.999987876
 20
49.6250042576
 30
0.0
 11
-380.999987226
 21
93.2500028383
 31
0.0
  0
LINE
  5
377
330
1F
100
AcDbEntity
  8
0
  6
Continuous
 62
     7
370
    25
100
AcDbLine
 10
-380.999987226
 20
93.2500028383
 30
0.0
 11
-380.8477462796
 21
94.0153697007
 31
0.0
  0
LINE
  5
378
330
1F
100
AcDbEntity
  8
0
  6
Continuous
 62
     7
370
    25
100
AcDbLine
 10
-380.8477462796
 20
94.0153697007
 30
0.0
 11
-380.4142007672
 21
94.6642163919
 31
0.0
  0
LINE
  5
379
330
1F
100
AcDbEntity
  8
0
  6
Continuous
 62
     7
370
    25
100
AcDbLine
 10
-380.4142007672
 20
94.6642163919
 30
0.0
 11
-379.7653540632
 21
95.0977618849
 31
0.0
  0
LINE
  5
37A
330
1F
100
AcDbEntity
  8
0
  6
Continuous
 62
     7
370
    25
100
AcDbLine
 10
-379.7653540632
 20
95.0977618849
 30
0.0
 11
-378.9999871961
 21
95.2500028085
 31
0.0
  0
LINE
  5
37B
330
1F
100
AcDbEntity
  8
0
  6
Continuous
 62
     7
370
    25
100
AcDbLine
 10
-378.9999871961
 20
95.2500028085
 30
0.0
 11
-285.7499900348
 21
95.250001419
 31
0.0
  0
LINE
  5
37C
330
1F
100
AcDbEntity
  8
0
  6
Continuous
 62
     7
370
    25
100
AcDbLine
 10
-285.7499900348
 20
95.250001419
 30
0.0
 11
-285.7499893849
 21
140.8749999997
 31
0.0
  0
LINE
  5
37D
330
1F
100
AcDbEntity
  8
0
  6
Continuous
 62
     7
370
    25
100
AcDbLine
 10
-285.7499893849
 20
140.8749999997
 30
0.0
 11
-285.5977484385
 21
141.6403668621
 31
0.0
  0
LINE
  5
37E
330
1F
100
AcDbEntity
  8
0
  6
Continuous
 62
     7
370
    25
100
AcDbLine
 10
-285.5977484385
 20
141.6403668621
 30
0.0
 11
-285.1642029263
 21
142.2892135533
 31
0.0
  0
LINE
  5
37F
330
1F
100
AcDbEntity
  8
0
  6
Continuous
 62
     7
370
    25
100
AcDbLine
 10
-285.1642029263
 20
142.2892135533
 30
0.0
 11
-284.5153562221
 21
142.7227590463
 31
0.0
  0
LINE
  5
380
330
1F
100
AcDbEntity
  8
0
  6
Continuous
 62
     7
370
    25
100
AcDbLine
 10
-284.5153562221
 20
142.7227590463
 30
0.0
 11
-283.749989355
 21
142.8749999699
 31
0.0
  0
LINE
  5
381
330
1F
100
AcDbEntity
  8
0
  6
Continuous
 62
     7
370
    25
100
AcDbLine
 10
-283.749989355
 20
142.8749999699
 30
0.0
 11
-258.1249907745
 21
142.8749995881
 31
0.0
  0
LINE
  5
382
330
1F
100
AcDbEntity
  8
0
  6
Continuous
 62
     7
370
    25
100
AcDbLine
 10
-258.1249907745
 20
142.8749995881
 30
0.0
 11
-238.1249904765
 21
162.8749992901
 31
0.0
  0
LINE
  5
383
330
1F
100
AcDbEntity
  8
0
  6
Continuous
 62
     7
370
    25
100
AcDbLine
 10
-238.1249904765
 20
162.8749992901
 30
0.0
 11
-238.1249896533
 21
218.1249964511
 31
0.0
  0
LINE
  5
384
330
1F
100
AcDbEntity
  8
0
  6
Continuous
 62
     7
370
    25
100
AcDbLine
 10
-238.1249896533
 20
218.1249964511
 30
0.0
 11
-258.1249893557
 21
238.1249967494
 31
0.0
  0
LINE
  5
385
330
1F
100
AcDbEntity
  8
0
  6
Continuous
 62
     7
370
    25
100
AcDbLine
 10
-258.1249893557
 20
238.1249967494
 30
0.0
 11
-283.7499879359
 21
238.1249971312
 31
0.0
  0
LINE
  5
386
330
1F
100
AcDbEntity
  8
0
  6
Continuous
 62
     7
370
    25
100
AcDbLine
 10
-283.7499879359
 20
238.1249971312
 30
0.0
 11
-284.5153547983
 21
238.2772380776
 31
0.0
  0
LINE
  5
387
330
1F
100
AcDbEntity
  8
0
  6
Continuous
 62
     7
370
    25
100
AcDbLine
 10
-284.5153547983
 20
238.2772380776
 30
0.0
 11
-285.1642014895
 21
238.7107835899
 31
0.0
  0
LINE
  5
388
330
1F
100
AcDbEntity
  8
0
  6
Continuous
 62
     7
370
    25
100
AcDbLine
 10
-285.1642014895
 20
238.7107835899
 30
0.0
 11
-285.5977469825
 21
239.359630294
 31
0.0
  0
LINE
  5
389
330
1F
100
AcDbEntity
  8
0
  6
Continuous
 62
     7
370
    25
100
AcDbLine
 10
-285.5977469825
 20
239.359630294
 30
0.0
 11
-285.7499879061
 21
240.124997161
 31
0.0
  0
LINE
  5
38A
330
1F
100
AcDbEntity
  8
0
  6
Continuous
 62
     7
370
    25
100
AcDbLine
 10
-285.7499879061
 20
240.124997161
 30
0.0
 11
-285.7499875244
 21
265.7499957414
 31
0.0
  0
LINE
  5
38B
330
1F
100
AcDbEntity
  8
0
  6
Continuous
 62
     7
370
    25
100
AcDbLine
 10
-285.7499875244
 20
265.7499957414
 30
0.0
 11
-305.7499872266
 21
285.7499960396
 31
0.0
  0
LINE
  5
38C
330
1F
100
AcDbEntity
  8
0
  6
Continuous
 62
     7
370
    25
100
AcDbLine
 10
-305.7499872266
 20
285.7499960396
 30
0.0
 11
-331.3749858068
 21
285.7499964215
 31
0.0
  0
LINE
  5
38D
330
1F
100
AcDbEntity
  8
0
  6
Continuous
 62
     7
370
    25
100
AcDbLine
 10
-331.3749858068
 20
285.7499964215
 30
0.0
 11
-332.1403526694
 21
285.9022373678
 31
0.0
  0
LINE
  5
38E
330
1F
100
AcDbEntity
  8
0
  6
Continuous
 62
     7
370
    25
100
AcDbLine
 10
-332.1403526694
 20
285.9022373678
 30
0.0
 11
-332.7891993605
 21
286.3357828802
 31
0.0
  0
LINE
  5
38F
330
1F
100
AcDbEntity
  8
0
  6
Continuous
 62
     7
370
    25
100
AcDbLine
 10
-332.7891993605
 20
286.3357828802
 30
0.0
 11
-333.2227448535
 21
286.9846295843
 31
0.0
  0
LINE
  5
390
330
1F
100
AcDbEntity
  8
0
  6
Continuous
 62
     7
370
    25
100
AcDbLine
 10
-333.2227448535
 20
286.9846295843
 30
0.0
 11
-333.3749857771
 21
287.7499964513
 31
0.0
  0
LINE
  5
391
330
1F
100
AcDbEntity
  8
0
  6
Continuous
 62
     7
370
    25
100
AcDbLine
 10
-333.3749857771
 20
287.7499964513
 30
0.0
 11
-333.3749853953
 21
313.3749950319
 31
0.0
  0
LINE
  5
392
330
1F
100
AcDbEntity
  8
0
  6
Continuous
 62
     7
370
    25
100
AcDbLine
 10
-333.3749853953
 20
313.3749950319
 30
0.0
 11
-353.3749850974
 21
333.3749953299
 31
0.0
  0
LINE
  5
393
330
1F
100
AcDbEntity
  8
0
  6
Continuous
 62
     7
370
    25
100
AcDbLine
 10
-353.3749850974
 20
333.3749953299
 30
0.0
 11
-378.9999836779
 21
333.3749957117
 31
0.0
  0
LINE
  5
394
330
1F
100
AcDbEntity
  8
0
  6
Continuous
 62
     7
370
    25
100
AcDbLine
 10
-378.9999836779
 20
333.3749957117
 30
0.0
 11
-379.7653505403
 21
333.5272366581
 31
0.0
  0
LINE
  5
395
330
1F
100
AcDbEntity
  8
0
  6
Continuous
 62
     7
370
    25
100
AcDbLine
 10
-379.7653505403
 20
333.5272366581
 30
0.0
 11
-380.4141972315
 21
333.9607821704
 31
0.0
  0
LINE
  5
396
330
1F
100
AcDbEntity
  8
0
  6
Continuous
 62
     7
370
    25
100
AcDbLine
 10
-380.4141972315
 20
333.9607821704
 30
0.0
 11
-380.8477427245
 21
334.6096288745
 31
0.0
  0
LINE
  5
397
330
1F
100
AcDbEntity
  8
0
  6
Continuous
 62
     7
370
    25
100
AcDbLine
 10
-380.8477427245
 20
334.6096288745
 30
0.0
 11
-380.999983648
 21
335.3749957415
 31
0.0
  0
LINE
  5
398
330
1F
100
AcDbEntity
  8
0
  6
Continuous
 62
     7
370
    25
100
AcDbLine
 10
-380.999983648
 20
335.3749957415
 30
0.0
 11
-380.9999829981
 21
378.9999943222
 31
0.0
  0
LINE
  5
399
330
1F
100
AcDbEntity
  8
0
  6
Continuous
 62
     7
370
    25
100
AcDbLine
 10
-380.9999829981
 20
378.9999943222
 30
0.0
 11
-380.8477420517
 21
379.7653611847
 31
0.0
  0
LINE
  5
39A
330
1F
100
AcDbEntity
  8
0
  6
Continuous
 62
     7
370
    25
100
AcDbLine
 10
-380.8477420517
 20
379.7653611847
 30
0.0
 11
-380.4141965394
 21
380.4142078758
 31
0.0
  0
LINE
  5
39B
330
1F
100
AcDbEntity
  8
0
  6
Continuous
 62
     7
370
    25
100
AcDbLine
 10
-380.4141965394
 20
380.4142078758
 30
0.0
 11
-379.7653498353
 21
380.8477533688
 31
0.0
  0
LINE
  5
39C
330
1F
100
AcDbEntity
  8
0
  6
Continuous
 62
     7
370
    25
100
AcDbLine
 10
-379.7653498353
 20
380.8477533688
 30
0.0
 11
-378.9999829682
 21
380.9999942924
 31
0.0
  0
LINE
  5
39D
330
1F
100
AcDbEntity
  8
0
  6
Continuous
 62
     7
370
    25
100
AcDbLine
 10
-378.9999829682
 20
380.9999942924
 30
0.0
 11
-335.3749843876
 21
380.9999936424
 31
0.0
  0
LINE
  5
39E
330
1F
100
AcDbEntity
  8
0
  6
Continuous
 62
     7
370
    25
100
AcDbLine
 10
-335.3749843876
 20
380.9999936424
 30
0.0
 11
-334.6096175251
 21
380.847752696
 31
0.0
  0
LINE
  5
39F
330
1F
100
AcDbEntity
  8
0
  6
Continuous
 62
     7
370
    25
100
AcDbLine
 10
-334.6096175251
 20
380.847752696
 30
0.0
 11
-333.9607708339
 21
380.4142071837
 31
0.0
  0
LINE
  5
3A0
330
1F
100
AcDbEntity
  8
0
  6
Continuous
 62
     7
370
    25
100
AcDbLine
 10
-333.9607708339
 20
380.4142071837
 30
0.0
 11
-333.527225341
 21
379.7653604795
 31
0.0
  0
LINE
  5
3A1
330
1F
100
AcDbEntity
  8
0
  6
Continuous
 62
     7
370
    25
100
AcDbLine
 10
-333.527225341
 20
379.7653604795
 30
0.0
 11
-333.3749844174
 21
378.9999936125
 31
0.0
  0
LINE
  5
3A2
330
1F
100
AcDbEntity
  8
0
  6
Continuous
 62
     7
370
    25
100
AcDbLine
 10
-333.3749844174
 20
378.9999936125
 30
0.0
 11
-333.3749847993
 21
353.3749950319
 31
0.0
  0
LINE
  5
3A3
330
1F
100
AcDbEntity
  8
0
  6
Continuous
 62
     7
370
    25
100
AcDbLine
 10
-333.3749847993
 20
353.3749950319
 30
0.0
 11
-313.3749850973
 21
333.3749947339
 31
0.0
  0
LINE
  5
3A4
330
1F
100
AcDbEntity
  8
0
  6
Continuous
 62
     7
370
    25
100
AcDbLine
 10
-313.3749850973
 20
333.3749947339
 30
0.0
 11
-287.7499865165
 21
333.3749943521
 31
0.0
  0
LINE
  5
3A5
330
1F
100
AcDbEntity
  8
0
  6
Continuous
 62
     7
370
    25
100
AcDbLine
 10
-287.7499865165
 20
333.3749943521
 30
0.0
 11
-286.9846196541
 21
333.2227534057
 31
0.0
  0
LINE
  5
3A6
330
1F
100
AcDbEntity
  8
0
  6
Continuous
 62
     7
370
    25
100
AcDbLine
 10
-286.9846196541
 20
333.2227534057
 30
0.0
 11
-286.335772963
 21
332.7892078934
 31
0.0
  0
LINE
  5
3A7
330
1F
100
AcDbEntity
  8
0
  6
Continuous
 62
     7
370
    25
100
AcDbLine
 10
-286.335772963
 20
332.7892078934
 30
0.0
 11
-285.9022274699
 21
332.1403611893
 31
0.0
  0
LINE
  5
3A8
330
1F
100
AcDbEntity
  8
0
  6
Continuous
 62
     7
370
    25
100
AcDbLine
 10
-285.9022274699
 20
332.1403611893
 30
0.0
 11
-285.7499865464
 21
331.3749943223
 31
0.0
  0
LINE
  5
3A9
330
1F
100
AcDbEntity
  8
0
  6
Continuous
 62
     7
370
    25
100
AcDbLine
 10
-285.7499865464
 20
331.3749943223
 30
0.0
 11
-285.7499869284
 21
305.7499957415
 31
0.0
  0
LINE
  5
3AA
330
1F
100
AcDbEntity
  8
0
  6
Continuous
 62
     7
370
    25
100
AcDbLine
 10
-285.7499869284
 20
305.7499957415
 30
0.0
 11
-265.7499872266
 21
285.7499954436
 31
0.0
  0
LINE
  5
3AB
330
1F
100
AcDbEntity
  8
0
  6
Continuous
 62
     7
370
    25
100
AcDbLine
 10
-265.7499872266
 20
285.7499954436
 30
0.0
 11
-240.1249886455
 21
285.7499950618
 31
0.0
  0
LINE
  5
3AC
330
1F
100
AcDbEntity
  8
0
  6
Continuous
 62
     7
370
    25
100
AcDbLine
 10
-240.1249886455
 20
285.7499950618
 30
0.0
 11
-239.3596217831
 21
285.5977541154
 31
0.0
  0
LINE
  5
3AD
330
1F
100
AcDbEntity
  8
0
  6
Continuous
 62
     7
370
    25
100
AcDbLine
 10
-239.3596217831
 20
285.5977541154
 30
0.0
 11
-238.710775092
 21
285.1642086031
 31
0.0
  0
LINE
  5
3AE
330
1F
100
AcDbEntity
  8
0
  6
Continuous
 62
     7
370
    25
100
AcDbLine
 10
-238.710775092
 20
285.1642086031
 30
0.0
 11
-238.2772295989
 21
284.515361899
 31
0.0
  0
LINE
  5
3AF
330
1F
100
AcDbEntity
  8
0
  6
Continuous
 62
     7
370
    25
100
AcDbLine
 10
-238.2772295989
 20
284.515361899
 30
0.0
 11
-238.1249886754
 21
283.749995032
 31
0.0
  0
LINE
  5
3B0
330
1F
100
AcDbEntity
  8
0
  6
Continuous
 62
     7
370
    25
100
AcDbLine
 10
-238.1249886754
 20
283.749995032
 30
0.0
 11
-238.1249890573
 21
258.1249964511
 31
0.0
  0
LINE
  5
3B1
330
1F
100
AcDbEntity
  8
0
  6
Continuous
 62
     7
370
    25
100
AcDbLine
 10
-238.1249890573
 20
258.1249964511
 30
0.0
 11
-218.1249893555
 21
238.1249961534
 31
0.0
  0
LINE
  5
3B2
330
1F
100
AcDbEntity
  8
0
  6
Continuous
 62
     7
370
    25
100
AcDbLine
 10
-218.1249893555
 20
238.1249961534
 30
0.0
 11
-162.8749921946
 21
238.1249953301
 31
0.0
  0
LINE
  5
3B3
330
1F
100
AcDbEntity
  8
0
  6
Continuous
 62
     7
370
    25
100
AcDbLine
 10
-162.8749921946
 20
238.1249953301
 30
0.0
 11
-142.8749918961
 21
258.1249950326
 31
0.0
  0
LINE
  5
3B4
330
1F
100
AcDbEntity
  8
0
  6
Continuous
 62
     7
370
    25
100
AcDbLine
 10
-142.8749918961
 20
258.1249950326
 30
0.0
 11
-142.8749915141
 21
283.7499936128
 31
0.0
  0
LINE
  5
3B5
330
1F
100
AcDbEntity
  8
0
  6
Continuous
 62
     7
370
    25
100
AcDbLine
 10
-142.8749915141
 20
283.7499936128
 30
0.0
 11
-142.7227505678
 21
284.5153604752
 31
0.0
  0
LINE
  5
3B6
330
1F
100
AcDbEntity
  8
0
  6
Continuous
 62
     7
370
    25
100
AcDbLine
 10
-142.7227505678
 20
284.5153604752
 30
0.0
 11
-142.2892050555
 21
285.1642071664
 31
0.0
  0
LINE
  5
3B7
330
1F
100
AcDbEntity
  8
0
  6
Continuous
 62
     7
370
    25
100
AcDbLine
 10
-142.2892050555
 20
285.1642071664
 30
0.0
 11
-141.6403583514
 21
285.5977526594
 31
0.0
  0
LINE
  5
3B8
330
1F
100
AcDbEntity
  8
0
  6
Continuous
 62
     7
370
    25
100
AcDbLine
 10
-141.6403583514
 20
285.5977526594
 30
0.0
 11
-140.8749914843
 21
285.749993583
 31
0.0
  0
LINE
  5
3B9
330
1F
100
AcDbEntity
  8
0
  6
Continuous
 62
     7
370
    25
100
AcDbLine
 10
-140.8749914843
 20
285.749993583
 30
0.0
 11
-67.6249943236
 21
285.7499924915
 31
0.0
  0
LINE
  5
3BA
330
1F
100
AcDbEntity
  8
0
  6
Continuous
 62
     7
370
    25
100
AcDbLine
 10
-67.6249943236
 20
285.7499924915
 30
0.0
 11
-47.6249940251
 21
305.749992194
 31
0.0
  0
LINE
  5
3BB
330
1F
100
AcDbEntity
  8
0
  6
Continuous
 62
     7
370
    25
100
AcDbLine
 10
-47.6249940251
 20
305.749992194
 30
0.0
 11
-47.6249936431
 21
331.3749907742
 31
0.0
  0
LINE
  5
3BC
330
1F
100
AcDbEntity
  8
0
  6
Continuous
 62
     7
370
    25
100
AcDbLine
 10
-47.6249936431
 20
331.3749907742
 30
0.0
 11
-47.4727526968
 21
332.1403576366
 31
0.0
  0
LINE
  5
3BD
330
1F
100
AcDbEntity
  8
0
  6
Continuous
 62
     7
370
    25
100
AcDbLine
 10
-47.4727526968
 20
332.1403576366
 30
0.0
 11
-47.0392071844
 21
332.7892043278
 31
0.0
  0
LINE
  5
3BE
330
1F
100
AcDbEntity
  8
0
  6
Continuous
 62
     7
370
    25
100
AcDbLine
 10
-47.0392071844
 20
332.7892043278
 30
0.0
 11
-46.3903604804
 21
333.2227498208
 31
0.0
  0
LINE
  5
3BF
330
1F
100
AcDbEntity
  8
0
  6
Continuous
 62
     7
370
    25
100
AcDbLine
 10
-46.3903604804
 20
333.2227498208
 30
0.0
 11
-45.6249936133
 21
333.3749907444
 31
0.0
  0
LINE
  5
3C0
330
1F
100
AcDbEntity
  8
0
  6
Continuous
 62
     7
370
    25
100
AcDbLine
 10
-45.6249936133
 20
333.3749907444
 30
0.0
 11
3.500004967
 21
333.3749900117
 31
0.0
  0
LINE
  5
3C1
330
1F
100
AcDbEntity
  8
0
  6
Continuous
 62
     7
370
    25
100
AcDbLine
 10
3.500004967
 20
333.3749900117
 30
0.0
 11
3.5000056467
 21
378.9999885931
 31
0.0
  0
LINE
  5
3C2
330
1F
100
AcDbEntity
  8
0
  6
Continuous
 62
     7
370
    25
100
AcDbLine
 10
3.5000056467
 20
378.9999885931
 30
0.0
 11
3.6522465931
 21
379.7653554555
 31
0.0
  0
LINE
  5
3C3
330
1F
100
AcDbEntity
  8
0
  6
Continuous
 62
     7
370
    25
100
AcDbLine
 10
3.6522465931
 20
379.7653554555
 30
0.0
 11
4.0857921053
 21
380.4142021467
 31
0.0
  0
LINE
  5
3C4
330
1F
100
AcDbEntity
  8
0
  6
Continuous
 62
     7
370
    25
100
AcDbLine
 10
4.0857921053
 20
380.4142021467
 30
0.0
 11
4.7346388095
 21
380.8477476397
 31
0.0
  0
LINE
  5
3C5
330
1F
100
AcDbEntity
  8
0
  6
Continuous
 62
     7
370
    25
100
AcDbLine
 10
4.7346388095
 20
380.8477476397
 30
0.0
 11
5.5000056765
 21
380.9999885632
 31
0.0
  0
LINE
  5
3C6
330
1F
100
AcDbEntity
  8
0
  6
Continuous
 62
     7
370
    25
100
AcDbLine
 10
5.5000056765
 20
380.9999885632
 30
0.0
 11
45.6250042576
 21
380.9999879654
 31
0.0
  0
LINE
  5
3C7
330
1F
100
AcDbEntity
  8
0
  6
Continuous
 62
     7
370
    25
100
AcDbLine
 10
45.6250042576
 20
380.9999879654
 30
0.0
 11
46.39037112
 21
380.847747019
 31
0.0
  0
LINE
  5
3C8
330
1F
100
AcDbEntity
  8
0
  6
Continuous
 62
     7
370
    25
100
AcDbLine
 10
46.39037112
 20
380.847747019
 30
0.0
 11
47.0392178113
 21
380.4142015067
 31
0.0
  0
LINE
  5
3C9
330
1F
100
AcDbEntity
  8
0
  6
Continuous
 62
     7
370
    25
100
AcDbLine
 10
47.0392178113
 20
380.4142015067
 30
0.0
 11
47.4727633042
 21
379.7653548026
 31
0.0
  0
LINE
  5
3CA
330
1F
100
AcDbEntity
  8
0
  6
Continuous
 62
     7
370
    25
100
AcDbLine
 10
47.4727633042
 20
379.7653548026
 30
0.0
 11
47.6250042278
 21
378.9999879355
 31
0.0
  0
LINE
  5
3CB
330
1F
100
AcDbEntity
  8
0
  6
Continuous
 62
     7
370
    25
100
AcDbLine
 10
47.6250042278
 20
378.9999879355
 30
0.0
 11
47.6250028384
 21
285.7499907743
 31
0.0
  0
LINE
  5
3CC
330
1F
100
AcDbEntity
  8
0
  6
Continuous
 62
     7
370
    25
100
AcDbLine
 10
47.6250028384
 20
285.7499907743
 30
0.0
 11
140.8749999996
 21
285.7499893848
 31
0.0
  0
LINE
  5
3CD
330
1F
100
AcDbEntity
  8
0
  6
Continuous
 62
     7
370
    25
100
AcDbLine
 10
140.8749999996
 20
285.7499893848
 30
0.0
 11
141.640366862
 21
285.5977484384
 31
0.0
  0
LINE
  5
3CE
330
1F
100
AcDbEntity
  8
0
  6
Continuous
 62
     7
370
    25
100
AcDbLine
 10
141.640366862
 20
285.5977484384
 30
0.0
 11
142.2892135532
 21
285.1642029261
 31
0.0
  0
LINE
  5
3CF
330
1F
100
AcDbEntity
  8
0
  6
Continuous
 62
     7
370
    25
100
AcDbLine
 10
142.2892135532
 20
285.1642029261
 30
0.0
 11
142.7227590462
 21
284.515356222
 31
0.0
  0
LINE
  5
3D0
330
1F
100
AcDbEntity
  8
0
  6
Continuous
 62
     7
370
    25
100
AcDbLine
 10
142.7227590462
 20
284.515356222
 30
0.0
 11
142.8749999698
 21
283.749989355
 31
0.0
  0
LINE
  5
3D1
330
1F
100
AcDbEntity
  8
0
  6
Continuous
 62
     7
370
    25
100
AcDbLine
 10
142.8749999698
 20
283.749989355
 30
0.0
 11
142.8749992975
 21
238.6249907744
 31
0.0
  0
LINE
  5
3D2
330
1F
100
AcDbEntity
  8
0
  6
Continuous
 62
     7
370
    25
100
AcDbLine
 10
143.3749992901
 20
238.1249907669
 30
0.0
 11
238.1249964514
 21
238.1249893551
 31
0.0
  0
LINE
  5
3D3
330
1F
100
AcDbEntity
  8
0
  6
Continuous
 62
     7
370
    25
100
AcDbLine
 10
238.1249964514
 20
238.1249893551
 30
0.0
 11
238.1249971311
 21
283.7499879358
 31
0.0
  0
LINE
  5
3D4
330
1F
100
AcDbEntity
  8
0
  6
Continuous
 62
     7
370
    25
100
AcDbLine
 10
238.1249971311
 20
283.7499879358
 30
0.0
 11
238.2772380774
 21
284.5153547983
 31
0.0
  0
LINE
  5
3D5
330
1F
100
AcDbEntity
  8
0
  6
Continuous
 62
     7
370
    25
100
AcDbLine
 10
238.2772380774
 20
284.5153547983
 30
0.0
 11
238.7107835897
 21
285.1642014894
 31
0.0
  0
LINE
  5
3D6
330
1F
100
AcDbEntity
  8
0
  6
Continuous
 62
     7
370
    25
100
AcDbLine
 10
238.7107835897
 20
285.1642014894
 30
0.0
 11
239.3596302938
 21
285.5977469824
 31
0.0
  0
LINE
  5
3D7
330
1F
100
AcDbEntity
  8
0
  6
Continuous
 62
     7
370
    25
100
AcDbLine
 10
239.3596302938
 20
285.5977469824
 30
0.0
 11
240.1249971608
 21
285.749987906
 31
0.0
  0
LINE
  5
3D8
330
1F
100
AcDbEntity
  8
0
  6
Continuous
 62
     7
370
    25
100
AcDbLine
 10
240.1249971608
 20
285.749987906
 30
0.0
 11
265.7499957412
 21
285.7499875242
 31
0.0
  0
LINE
  5
3D9
330
1F
100
AcDbEntity
  8
0
  6
Continuous
 62
     7
370
    25
100
AcDbLine
 10
265.7499957412
 20
285.7499875242
 30
0.0
 11
285.7499960394
 21
305.7499872264
 31
0.0
  0
LINE
  5
3DA
330
1F
100
AcDbEntity
  8
0
  6
Continuous
 62
     7
370
    25
100
AcDbLine
 10
285.7499960394
 20
305.7499872264
 30
0.0
 11
285.7499964214
 21
331.3749858068
 31
0.0
  0
LINE
  5
3DB
330
1F
100
AcDbEntity
  8
0
  6
Continuous
 62
     7
370
    25
100
AcDbLine
 10
285.7499964214
 20
331.3749858068
 30
0.0
 11
285.9022373678
 21
332.1403526693
 31
0.0
  0
LINE
  5
3DC
330
1F
100
AcDbEntity
  8
0
  6
Continuous
 62
     7
370
    25
100
AcDbLine
 10
285.9022373678
 20
332.1403526693
 30
0.0
 11
286.3357828801
 21
332.7891993605
 31
0.0
  0
LINE
  5
3DD
330
1F
100
AcDbEntity
  8
0
  6
Continuous
 62
     7
370
    25
100
AcDbLine
 10
286.3357828801
 20
332.7891993605
 30
0.0
 11
286.9846295842
 21
333.2227448534
 31
0.0
  0
LINE
  5
3DE
330
1F
100
AcDbEntity
  8
0
  6
Continuous
 62
     7
370
    25
100
AcDbLine
 10
286.9846295842
 20
333.2227448534
 30
0.0
 11
287.7499964513
 21
333.374985777
 31
0.0
  0
LINE
  5
3DF
330
1F
100
AcDbEntity
  8
0
  6
Continuous
 62
     7
370
    25
100
AcDbLine
 10
287.7499964513
 20
333.374985777
 30
0.0
 11
313.3749950314
 21
333.3749853952
 31
0.0
  0
LINE
  5
3E0
330
1F
100
AcDbEntity
  8
0
  6
Continuous
 62
     7
370
    25
100
AcDbLine
 10
313.3749950314
 20
333.3749853952
 30
0.0
 11
333.3749953299
 21
353.3749850975
 31
0.0
  0
LINE
  5
3E1
330
1F
100
AcDbEntity
  8
0
  6
Continuous
 62
     7
370
    25
100
AcDbLine
 10
333.3749953299
 20
353.3749850975
 30
0.0
 11
333.3749957117
 21
378.9999836779
 31
0.0
  0
LINE
  5
3E2
330
1F
100
AcDbEntity
  8
0
  6
Continuous
 62
     7
370
    25
100
AcDbLine
 10
333.3749957117
 20
378.9999836779
 30
0.0
 11
333.5272366581
 21
379.7653505403
 31
0.0
  0
LINE
  5
3E3
330
1F
100
AcDbEntity
  8
0
  6
Continuous
 62
     7
370
    25
100
AcDbLine
 10
333.5272366581
 20
379.7653505403
 30
0.0
 11
333.9607821704
 21
380.4141972315
 31
0.0
  0
LINE
  5
3E4
330
1F
100
AcDbEntity
  8
0
  6
Continuous
 62
     7
370
    25
100
AcDbLine
 10
333.9607821704
 20
380.4141972315
 30
0.0
 11
334.6096288745
 21
380.8477427245
 31
0.0
  0
LINE
  5
3E5
330
1F
100
AcDbEntity
  8
0
  6
Continuous
 62
     7
370
    25
100
AcDbLine
 10
334.6096288745
 20
380.8477427245
 30
0.0
 11
335.3749957415
 21
380.999983648
 31
0.0
  0
LINE
  5
3E6
330
1F
100
AcDbEntity
  8
0
  6
Continuous
 62
     7
370
    25
100
AcDbLine
 10
335.3749957415
 20
380.999983648
 30
0.0
 11
378.9999943221
 21
380.999982998
 31
0.0
  0
LINE
  5
3E7
330
1F
100
AcDbEntity
  8
0
  6
Continuous
 62
     7
370
    25
100
AcDbLine
 10
378.9999943221
 20
380.999982998
 30
0.0
 11
379.7653611846
 21
380.8477420516
 31
0.0
  0
LINE
  5
3E8
330
1F
100
AcDbEntity
  8
0
  6
Continuous
 62
     7
370
    25
100
AcDbLine
 10
379.7653611846
 20
380.8477420516
 30
0.0
 11
380.4142078758
 21
380.4141965393
 31
0.0
  0
LINE
  5
3E9
330
1F
100
AcDbEntity
  8
0
  6
Continuous
 62
     7
370
    25
100
AcDbLine
 10
380.4142078758
 20
380.4141965393
 30
0.0
 11
380.8477533687
 21
379.7653498352
 31
0.0
  0
LINE
  5
3EA
330
1F
100
AcDbEntity
  8
0
  6
Continuous
 62
     7
370
    25
100
AcDbLine
 10
380.8477533687
 20
379.7653498352
 30
0.0
 11
380.9999942924
 21
378.9999829682
 31
0.0
  0
LINE
  5
3EB
330
1F
100
AcDbEntity
  8
0
  6
Continuous
 62
     7
370
    25
100
AcDbLine
 10
380.9999942924
 20
378.9999829682
 30
0.0
 11
380.9999936424
 21
335.3749843877
 31
0.0
  0
LINE
  5
3EC
330
1F
100
AcDbEntity
  8
0
  6
Continuous
 62
     7
370
    25
100
AcDbLine
 10
380.9999936424
 20
335.3749843877
 30
0.0
 11
380.8477526959
 21
334.6096175252
 31
0.0
  0
LINE
  5
3ED
330
1F
100
AcDbEntity
  8
0
  6
Continuous
 62
     7
370
    25
100
AcDbLine
 10
380.8477526959
 20
334.6096175252
 30
0.0
 11
380.4142071836
 21
333.960770834
 31
0.0
  0
LINE
  5
3EE
330
1F
100
AcDbEntity
  8
0
  6
Continuous
 62
     7
370
    25
100
AcDbLine
 10
380.4142071836
 20
333.960770834
 30
0.0
 11
379.7653604795
 21
333.527225341
 31
0.0
  0
LINE
  5
3EF
330
1F
100
AcDbEntity
  8
0
  6
Continuous
 62
     7
370
    25
100
AcDbLine
 10
379.7653604795
 20
333.527225341
 30
0.0
 11
378.9999936124
 21
333.3749844174
 31
0.0
  0
LINE
  5
3F0
330
1F
100
AcDbEntity
  8
0
  6
Continuous
 62
     7
370
    25
100
AcDbLine
 10
378.9999936124
 20
333.3749844174
 30
0.0
 11
353.3749950315
 21
333.3749847992
 31
0.0
  0
LINE
  5
3F1
330
1F
100
AcDbEntity
  8
0
  6
Continuous
 62
     7
370
    25
100
AcDbLine
 10
353.3749950315
 20
333.3749847992
 30
0.0
 11
333.3749947338
 21
313.3749850974
 31
0.0
  0
LINE
  5
3F2
330
1F
100
AcDbEntity
  8
0
  6
Continuous
 62
     7
370
    25
100
AcDbLine
 10
333.3749947338
 20
313.3749850974
 30
0.0
 11
333.3749943519
 21
287.7499865165
 31
0.0
  0
LINE
  5
3F3
330
1F
100
AcDbEntity
  8
0
  6
Continuous
 62
     7
370
    25
100
AcDbLine
 10
333.3749943519
 20
287.7499865165
 30
0.0
 11
333.2227534055
 21
286.9846196541
 31
0.0
  0
LINE
  5
3F4
330
1F
100
AcDbEntity
  8
0
  6
Continuous
 62
     7
370
    25
100
AcDbLine
 10
333.2227534055
 20
286.9846196541
 30
0.0
 11
332.7892078932
 21
286.3357729629
 31
0.0
  0
LINE
  5
3F5
330
1F
100
AcDbEntity
  8
0
  6
Continuous
 62
     7
370
    25
100
AcDbLine
 10
332.7892078932
 20
286.3357729629
 30
0.0
 11
332.1403611891
 21
285.9022274699
 31
0.0
  0
LINE
  5
3F6
330
1F
100
AcDbEntity
  8
0
  6
Continuous
 62
     7
370
    25
100
AcDbLine
 10
332.1403611891
 20
285.9022274699
 30
0.0
 11
331.3749943221
 21
285.7499865463
 31
0.0
  0
LINE
  5
3F7
330
1F
100
AcDbEntity
  8
0
  6
Continuous
 62
     7
370
    25
100
AcDbLine
 10
331.3749943221
 20
285.7499865463
 30
0.0
 11
305.7499957413
 21
285.7499869282
 31
0.0
  0
LINE
  5
3F8
330
1F
100
AcDbEntity
  8
0
  6
Continuous
 62
     7
370
    25
100
AcDbLine
 10
305.7499957413
 20
285.7499869282
 30
0.0
 11
285.7499954434
 21
265.7499872264
 31
0.0
  0
LINE
  5
3F9
330
1F
100
AcDbEntity
  8
0
  6
Continuous
 62
     7
370
    25
100
AcDbLine
 10
285.7499954434
 20
265.7499872264
 30
0.0
 11
285.7499929106
 21
95.7499929036
 31
0.0
  0
LINE
  5
3FA
330
1F
100
AcDbEntity
  8
0
  6
Continuous
 62
     7
370
    25
100
AcDbLine
 10
285.2499929031
 20
95.249992911
 30
0.0
 11
240.1249943223
 21
95.2499935834
 31
0.0
  0
LINE
  5
3FB
330
1F
100
AcDbEntity
  8
0
  6
Continuous
 62
     7
370
    25
100
AcDbLine
 10
240.1249943223
 20
95.2499935834
 30
0.0
 11
239.3596274598
 21
95.4022345298
 31
0.0
  0
LINE
  5
3FC
330
1F
100
AcDbEntity
  8
0
  6
Continuous
 62
     7
370
    25
100
AcDbLine
 10
239.3596274598
 20
95.4022345298
 30
0.0
 11
238.7107807685
 21
95.8357800421
 31
0.0
  0
LINE
  5
3FD
330
1F
100
AcDbEntity
  8
0
  6
Continuous
 62
     7
370
    25
100
AcDbLine
 10
238.7107807685
 20
95.8357800421
 30
0.0
 11
238.2772352755
 21
96.4846267462
 31
0.0
  0
LINE
  5
3FE
330
1F
100
AcDbEntity
  8
0
  6
Continuous
 62
     7
370
    25
100
AcDbLine
 10
238.2772352755
 20
96.4846267462
 30
0.0
 11
238.1249943521
 21
97.2499936132
 31
0.0
  0
LINE
  5
3FF
330
1F
100
AcDbEntity
  8
0
  6
Continuous
 62
     7
370
    25
100
AcDbLine
 10
238.1249943521
 20
97.2499936132
 30
0.0
 11
238.1249957418
 21
190.4999907745
 31
0.0
  0
LINE
  5
400
330
1F
100
AcDbEntity
  8
0
  6
Continuous
 62
     7
370
    25
100
AcDbLine
 10
238.1249957418
 20
190.4999907745
 30
0.0
 11
190.4999971611
 21
190.4999914841
 31
0.0
  0
LINE
  5
401
330
1F
100
AcDbEntity
  8
0
  6
Continuous
 62
     7
370
    25
100
AcDbLine
 10
190.4999971611
 20
190.4999914841
 30
0.0
 11
190.4999964812
 21
144.8749929035
 31
0.0
  0
LINE
  5
402
330
1F
100
AcDbEntity
  8
0
  6
Continuous
 62
     7
370
    25
100
AcDbLine
 10
190.4999964812
 20
144.8749929035
 30
0.0
 11
190.3477555346
 21
144.109626041
 31
0.0
  0
LINE
  5
403
330
1F
100
AcDbEntity
  8
0
  6
Continuous
 62
     7
370
    25
100
AcDbLine
 10
190.3477555346
 20
144.109626041
 30
0.0
 11
189.9142100223
 21
143.4607793498
 31
0.0
  0
LINE
  5
404
330
1F
100
AcDbEntity
  8
0
  6
Continuous
 62
     7
370
    25
100
AcDbLine
 10
189.9142100223
 20
143.4607793498
 30
0.0
 11
189.2653633183
 21
143.0272338568
 31
0.0
  0
LINE
  5
405
330
1F
100
AcDbEntity
  8
0
  6
Continuous
 62
     7
370
    25
100
AcDbLine
 10
189.2653633183
 20
143.0272338568
 30
0.0
 11
188.4999964514
 21
142.8749929333
 31
0.0
  0
LINE
  5
406
330
1F
100
AcDbEntity
  8
0
  6
Continuous
 62
     7
370
    25
100
AcDbLine
 10
188.4999964514
 20
142.8749929333
 30
0.0
 11
162.8749978707
 21
142.8749933151
 31
0.0
  0
LINE
  5
407
330
1F
100
AcDbEntity
  8
0
  6
Continuous
 62
     7
370
    25
100
AcDbLine
 10
162.8749978707
 20
142.8749933151
 30
0.0
 11
142.8749975728
 21
122.8749936131
 31
0.0
  0
LINE
  5
408
330
1F
100
AcDbEntity
  8
0
  6
Continuous
 62
     7
370
    25
100
AcDbLine
 10
142.8749975728
 20
122.8749936131
 30
0.0
 11
142.8749971687
 21
95.7499950324
 31
0.0
  0
LINE
  5
409
330
1F
100
AcDbEntity
  8
0
  6
Continuous
 62
     7
370
    25
100
AcDbLine
 10
143.3749971613
 20
95.249995025
 30
0.0
 11
188.4999957418
 21
95.2499943526
 31
0.0
  0
LINE
  5
40A
330
1F
100
AcDbEntity
  8
0
  6
Continuous
 62
     7
370
    25
100
AcDbLine
 10
188.4999957418
 20
95.2499943526
 30
0.0
 11
189.2653626041
 21
95.0977534062
 31
0.0
  0
LINE
  5
40B
330
1F
100
AcDbEntity
  8
0
  6
Continuous
 62
     7
370
    25
100
AcDbLine
 10
189.2653626041
 20
95.0977534062
 30
0.0
 11
189.9142092953
 21
94.6642078939
 31
0.0
  0
LINE
  5
40C
330
1F
100
AcDbEntity
  8
0
  6
Continuous
 62
     7
370
    25
100
AcDbLine
 10
189.9142092953
 20
94.6642078939
 30
0.0
 11
190.3477547883
 21
94.0153611898
 31
0.0
  0
LINE
  5
40D
330
1F
100
AcDbEntity
  8
0
  6
Continuous
 62
     7
370
    25
100
AcDbLine
 10
190.3477547883
 20
94.0153611898
 30
0.0
 11
190.499995712
 21
93.2499943228
 31
0.0
  0
LINE
  5
40E
330
1F
100
AcDbEntity
  8
0
  6
Continuous
 62
     7
370
    25
100
AcDbLine
 10
190.499995712
 20
93.2499943228
 30
0.0
 11
190.4999950323
 21
47.6249957422
 31
0.0
  0
LINE
  5
40F
330
1F
100
AcDbEntity
  8
0
  6
Continuous
 62
     7
370
    25
100
AcDbLine
 10
190.4999950323
 20
47.6249957422
 30
0.0
 11
236.1249936126
 21
47.6249950623
 31
0.0
  0
LINE
  5
410
330
1F
100
AcDbEntity
  8
0
  6
Continuous
 62
     7
370
    25
100
AcDbLine
 10
236.1249936126
 20
47.6249950623
 30
0.0
 11
236.890360475
 21
47.472754116
 31
0.0
  0
LINE
  5
411
330
1F
100
AcDbEntity
  8
0
  6
Continuous
 62
     7
370
    25
100
AcDbLine
 10
236.890360475
 20
47.472754116
 30
0.0
 11
237.5392071662
 21
47.0392086036
 31
0.0
  0
LINE
  5
412
330
1F
100
AcDbEntity
  8
0
  6
Continuous
 62
     7
370
    25
100
AcDbLine
 10
237.5392071662
 20
47.0392086036
 30
0.0
 11
237.9727526592
 21
46.3903618995
 31
0.0
  0
LINE
  5
413
330
1F
100
AcDbEntity
  8
0
  6
Continuous
 62
     7
370
    25
100
AcDbLine
 10
237.9727526592
 20
46.3903618995
 30
0.0
 11
238.1249935828
 21
45.6249950325
 31
0.0
  0
LINE
  5
414
330
1F
100
AcDbEntity
  8
0
  6
Continuous
 62
     7
370
    25
100
AcDbLine
 10
238.1249935828
 20
45.6249950325
 30
0.0
 11
238.1249929032
 21
-0.0000035481
 31
0.0
  0
LINE
  5
415
330
1F
100
AcDbEntity
  8
0
  6
Continuous
 62
     7
370
    25
100
AcDbLine
 10
238.1249929032
 20
-0.0000035481
 30
0.0
 11
285.749991484
 21
-0.0000042577
 31
0.0
  0
LINE
  5
416
330
1F
100
AcDbEntity
  8
0
  6
Continuous
 62
     7
370
    25
100
AcDbLine
 10
285.749991484
 20
-0.0000042577
 30
0.0
 11
285.7499928957
 21
94.7499929036
 31
0.0
  0
LINE
  5
417
330
1F
100
AcDbEntity
  8
0
  6
Continuous
 62
     7
370
    25
100
AcDbLine
 10
286.2499929031
 20
95.2499928961
 30
0.0
 11
331.3749914838
 21
95.2499922237
 31
0.0
  0
LINE
  5
418
330
1F
100
AcDbEntity
  8
0
  6
Continuous
 62
     7
370
    25
100
AcDbLine
 10
331.3749914838
 20
95.2499922237
 30
0.0
 11
332.1403583461
 21
95.0977512774
 31
0.0
  0
LINE
  5
419
330
1F
100
AcDbEntity
  8
0
  6
Continuous
 62
     7
370
    25
100
AcDbLine
 10
332.1403583461
 20
95.0977512774
 30
0.0
 11
332.7892050374
 21
94.664205765
 31
0.0
  0
LINE
  5
41A
330
1F
100
AcDbEntity
  8
0
  6
Continuous
 62
     7
370
    25
100
AcDbLine
 10
332.7892050374
 20
94.664205765
 30
0.0
 11
333.2227505303
 21
94.0153590609
 31
0.0
  0
LINE
  5
41B
330
1F
100
AcDbEntity
  8
0
  6
Continuous
 62
     7
370
    25
100
AcDbLine
 10
333.2227505303
 20
94.0153590609
 30
0.0
 11
333.374991454
 21
93.2499921939
 31
0.0
  0
LINE
  5
41C
330
1F
100
AcDbEntity
  8
0
  6
Continuous
 62
     7
370
    25
100
AcDbLine
 10
333.374991454
 20
93.2499921939
 30
0.0
 11
333.3749900646
 21
-0.0000049674
 31
0.0
  0
LINE
  5
41D
330
1F
100
AcDbEntity
  8
0
  6
Continuous
 62
     7
370
    25
100
AcDbLine
 10
333.3749900646
 20
-0.0000049674
 30
0.0
 11
378.9999886451
 21
-0.0000056472
 31
0.0
  0
LINE
  5
41E
330
1F
100
AcDbEntity
  8
0
  6
Continuous
 62
     7
370
    25
100
AcDbLine
 10
378.9999886451
 20
-0.0000056472
 30
0.0
 11
379.7653555076
 21
-0.1522465935
 31
0.0
  0
LINE
  5
41F
330
1F
100
AcDbEntity
  8
0
  6
Continuous
 62
     7
370
    25
100
AcDbLine
 10
379.7653555076
 20
-0.1522465935
 30
0.0
 11
380.4142021987
 21
-0.5857921059
 31
0.0
  0
LINE
  5
420
330
1F
100
AcDbEntity
  8
0
  6
Continuous
 62
     7
370
    25
100
AcDbLine
 10
380.4142021987
 20
-0.5857921059
 30
0.0
 11
380.8477476917
 21
-1.23463881
 31
0.0
  0
LINE
  5
421
330
1F
100
AcDbEntity
  8
0
  6
Continuous
 62
     7
370
    25
100
AcDbLine
 10
380.8477476917
 20
-1.23463881
 30
0.0
 11
380.9999886154
 21
-2.000005677
 31
0.0
  0
LINE
  5
422
330
1F
100
AcDbEntity
  8
0
  6
Continuous
 62
     7
370
    25
100
AcDbLine
 10
380.9999886154
 20
-2.000005677
 30
0.0
 11
380.9999879653
 21
-45.6250042576
 31
0.0
  0
LINE
  5
423
330
1F
100
AcDbEntity
  8
0
  6
Continuous
 62
     7
370
    25
100
AcDbLine
 10
380.9999879653
 20
-45.6250042576
 30
0.0
 11
380.8477470188
 21
-46.3903711201
 31
0.0
  0
LINE
  5
424
330
1F
100
AcDbEntity
  8
0
  6
Continuous
 62
     7
370
    25
100
AcDbLine
 10
380.8477470188
 20
-46.3903711201
 30
0.0
 11
380.4142015066
 21
-47.0392178113
 31
0.0
  0
LINE
  5
425
330
1F
100
AcDbEntity
  8
0
  6
Continuous
 62
     7
370
    25
100
AcDbLine
 10
380.4142015066
 20
-47.0392178113
 30
0.0
 11
379.7653548025
 21
-47.4727633042
 31
0.0
  0
LINE
  5
426
330
1F
100
AcDbEntity
  8
0
  6
Continuous
 62
     7
370
    25
100
AcDbLine
 10
379.7653548025
 20
-47.4727633042
 30
0.0
 11
378.9999879355
 21
-47.6250042278
 31
0.0
  0
LINE
  5
427
330
1F
100
AcDbEntity
  8
0
  6
Continuous
 62
     7
370
    25
100
AcDbLine
 10
378.9999879355
 20
-47.6250042278
 30
0.0
 11
333.3749893549
 21
-47.625003548
 31
0.0
  0
LINE
  5
428
330
1F
100
AcDbEntity
  8
0
  6
Continuous
 62
     7
370
    25
100
AcDbLine
 10
333.3749893549
 20
-47.625003548
 30
0.0
 11
333.3749879653
 21
-140.8750007093
 31
0.0
  0
LINE
  5
429
330
1F
100
AcDbEntity
  8
0
  6
Continuous
 62
     7
370
    25
100
AcDbLine
 10
333.3749879653
 20
-140.8750007093
 30
0.0
 11
333.2227470188
 21
-141.6403675718
 31
0.0
  0
LINE
  5
42A
330
1F
100
AcDbEntity
  8
0
  6
Continuous
 62
     7
370
    25
100
AcDbLine
 10
333.2227470188
 20
-141.6403675718
 30
0.0
 11
332.7892015065
 21
-142.2892142629
 31
0.0
  0
LINE
  5
42B
330
1F
100
AcDbEntity
  8
0
  6
Continuous
 62
     7
370
    25
100
AcDbLine
 10
332.7892015065
 20
-142.2892142629
 30
0.0
 11
332.1403548024
 21
-142.7227597559
 31
0.0
  0
LINE
  5
42C
330
1F
100
AcDbEntity
  8
0
  6
Continuous
 62
     7
370
    25
100
AcDbLine
 10
332.1403548024
 20
-142.7227597559
 30
0.0
 11
331.3749879355
 21
-142.8750006795
 31
0.0
  0
LINE
  5
42D
330
1F
100
AcDbEntity
  8
0
  6
Continuous
 62
     7
370
    25
100
AcDbLine
 10
331.3749879355
 20
-142.8750006795
 30
0.0
 11
305.7499893545
 21
-142.8750002977
 31
0.0
  0
LINE
  5
42E
330
1F
100
AcDbEntity
  8
0
  6
Continuous
 62
     7
370
    25
100
AcDbLine
 10
305.7499893545
 20
-142.8750002977
 30
0.0
 11
285.7499890568
 21
-162.8749999994
 31
0.0
  0
LINE
  5
42F
330
1F
100
AcDbEntity
  8
0
  6
Continuous
 62
     7
370
    25
100
AcDbLine
 10
285.7499890568
 20
-162.8749999994
 30
0.0
 11
285.7499886752
 21
-188.4999985803
 31
0.0
  0
LINE
  5
430
330
1F
100
AcDbEntity
  8
0
  6
Continuous
 62
     7
370
    25
100
AcDbLine
 10
285.7499886752
 20
-188.4999985803
 30
0.0
 11
285.5977477288
 21
-189.2653654428
 31
0.0
  0
LINE
  5
431
330
1F
100
AcDbEntity
  8
0
  6
Continuous
 62
     7
370
    25
100
AcDbLine
 10
285.5977477288
 20
-189.2653654428
 30
0.0
 11
285.1642022165
 21
-189.914212134
 31
0.0
  0
LINE
  5
432
330
1F
100
AcDbEntity
  8
0
  6
Continuous
 62
     7
370
    25
100
AcDbLine
 10
285.1642022165
 20
-189.914212134
 30
0.0
 11
284.5153555123
 21
-190.347757627
 31
0.0
  0
LINE
  5
433
330
1F
100
AcDbEntity
  8
0
  6
Continuous
 62
     7
370
    25
100
AcDbLine
 10
284.5153555123
 20
-190.347757627
 30
0.0
 11
283.7499886453
 21
-190.4999985505
 31
0.0
  0
LINE
  5
434
330
1F
100
AcDbEntity
  8
0
  6
Continuous
 62
     7
370
    25
100
AcDbLine
 10
283.7499886453
 20
-190.4999985505
 30
0.0
 11
258.1249900644
 21
-190.4999981687
 31
0.0
  0
LINE
  5
435
330
1F
100
AcDbEntity
  8
0
  6
Continuous
 62
     7
370
    25
100
AcDbLine
 10
258.1249900644
 20
-190.4999981687
 30
0.0
 11
238.1249897666
 21
-210.4999978705
 31
0.0
  0
LINE
  5
436
330
1F
100
AcDbEntity
  8
0
  6
Continuous
 62
     7
370
    25
100
AcDbLine
 10
238.1249897666
 20
-210.4999978705
 30
0.0
 11
238.1249896531
 21
-218.1249964516
 31
0.0
  0
LINE
  5
437
330
1F
100
AcDbEntity
  8
0
  6
Continuous
 62
     7
370
    25
100
AcDbLine
 10
238.1249896531
 20
-218.1249964516
 30
0.0
 11
258.1249893547
 21
-238.1249967494
 31
0.0
  0
LINE
  5
438
330
1F
100
AcDbEntity
  8
0
  6
Continuous
 62
     7
370
    25
100
AcDbLine
 10
258.1249893547
 20
-238.1249967494
 30
0.0
 11
283.7499879357
 21
-238.1249971312
 31
0.0
  0
LINE
  5
439
330
1F
100
AcDbEntity
  8
0
  6
Continuous
 62
     7
370
    25
100
AcDbLine
 10
283.7499879357
 20
-238.1249971312
 30
0.0
 11
284.5153547982
 21
-238.2772380776
 31
0.0
  0
LINE
  5
43A
330
1F
100
AcDbEntity
  8
0
  6
Continuous
 62
     7
370
    25
100
AcDbLine
 10
284.5153547982
 20
-238.2772380776
 30
0.0
 11
285.1642014894
 21
-238.7107835899
 31
0.0
  0
LINE
  5
43B
330
1F
100
AcDbEntity
  8
0
  6
Continuous
 62
     7
370
    25
100
AcDbLine
 10
285.1642014894
 20
-238.7107835899
 30
0.0
 11
285.5977469823
 21
-239.359630294
 31
0.0
  0
LINE
  5
43C
330
1F
100
AcDbEntity
  8
0
  6
Continuous
 62
     7
370
    25
100
AcDbLine
 10
285.5977469823
 20
-239.359630294
 30
0.0
 11
285.7499879059
 21
-240.124997161
 31
0.0
  0
LINE
  5
43D
330
1F
100
AcDbEntity
  8
0
  6
Continuous
 62
     7
370
    25
100
AcDbLine
 10
285.7499879059
 20
-240.124997161
 30
0.0
 11
285.7499875241
 21
-265.7499957419
 31
0.0
  0
LINE
  5
43E
330
1F
100
AcDbEntity
  8
0
  6
Continuous
 62
     7
370
    25
100
AcDbLine
 10
285.7499875241
 20
-265.7499957419
 30
0.0
 11
305.7499872258
 21
-285.7499960396
 31
0.0
  0
LINE
  5
43F
330
1F
100
AcDbEntity
  8
0
  6
Continuous
 62
     7
370
    25
100
AcDbLine
 10
305.7499872258
 20
-285.7499960396
 30
0.0
 11
331.3749858067
 21
-285.7499964215
 31
0.0
  0
LINE
  5
440
330
1F
100
AcDbEntity
  8
0
  6
Continuous
 62
     7
370
    25
100
AcDbLine
 10
331.3749858067
 20
-285.7499964215
 30
0.0
 11
332.1403526693
 21
-285.9022373678
 31
0.0
  0
LINE
  5
441
330
1F
100
AcDbEntity
  8
0
  6
Continuous
 62
     7
370
    25
100
AcDbLine
 10
332.1403526693
 20
-285.9022373678
 30
0.0
 11
332.7891993604
 21
-286.3357828802
 31
0.0
  0
LINE
  5
442
330
1F
100
AcDbEntity
  8
0
  6
Continuous
 62
     7
370
    25
100
AcDbLine
 10
332.7891993604
 20
-286.3357828802
 30
0.0
 11
333.2227448534
 21
-286.9846295843
 31
0.0
  0
LINE
  5
443
330
1F
100
AcDbEntity
  8
0
  6
Continuous
 62
     7
370
    25
100
AcDbLine
 10
333.2227448534
 20
-286.9846295843
 30
0.0
 11
333.374985777
 21
-287.7499964513
 31
0.0
  0
LINE
  5
444
330
1F
100
AcDbEntity
  8
0
  6
Continuous
 62
     7
370
    25
100
AcDbLine
 10
333.374985777
 20
-287.7499964513
 30
0.0
 11
333.374985395
 21
-313.3749950321
 31
0.0
  0
LINE
  5
445
330
1F
100
AcDbEntity
  8
0
  6
Continuous
 62
     7
370
    25
100
AcDbLine
 10
333.374985395
 20
-313.3749950321
 30
0.0
 11
353.3749850968
 21
-333.3749953299
 31
0.0
  0
LINE
  5
446
330
1F
100
AcDbEntity
  8
0
  6
Continuous
 62
     7
370
    25
100
AcDbLine
 10
353.3749850968
 20
-333.3749953299
 30
0.0
 11
378.9999836778
 21
-333.3749957118
 31
0.0
  0
LINE
  5
447
330
1F
100
AcDbEntity
  8
0
  6
Continuous
 62
     7
370
    25
100
AcDbLine
 10
378.9999836778
 20
-333.3749957118
 30
0.0
 11
379.7653505403
 21
-333.5272366581
 31
0.0
  0
LINE
  5
448
330
1F
100
AcDbEntity
  8
0
  6
Continuous
 62
     7
370
    25
100
AcDbLine
 10
379.7653505403
 20
-333.5272366581
 30
0.0
 11
380.4141972314
 21
-333.9607821704
 31
0.0
  0
LINE
  5
449
330
1F
100
AcDbEntity
  8
0
  6
Continuous
 62
     7
370
    25
100
AcDbLine
 10
380.4141972314
 20
-333.9607821704
 30
0.0
 11
380.8477427244
 21
-334.6096288745
 31
0.0
  0
LINE
  5
44A
330
1F
100
AcDbEntity
  8
0
  6
Continuous
 62
     7
370
    25
100
AcDbLine
 10
380.8477427244
 20
-334.6096288745
 30
0.0
 11
380.9999836481
 21
-335.3749957415
 31
0.0
  0
LINE
  5
44B
330
1F
100
AcDbEntity
  8
0
  6
Continuous
 62
     7
370
    25
100
AcDbLine
 10
380.999982104
 20
-439.0048610986
 30
0.0
 11
380.9999836481
 21
-335.3749957415
 31
0.0
  0
LINE
  5
44C
330
1F
100
AcDbEntity
  8
0
  6
Continuous
 62
     7
370
    25
100
AcDbLine
 10
333.3749835233
 20
-439.004860389
 30
0.0
 11
380.999982104
 21
-439.0048610986
 31
0.0
  0
LINE
  5
44D
330
1F
100
AcDbEntity
  8
0
  6
Continuous
 62
     7
370
    25
100
AcDbLine
 10
333.3749835233
 20
-439.004860389
 30
0.0
 11
333.3749847989
 21
-353.3749950321
 31
0.0
  0
LINE
  5
44E
330
1F
100
AcDbEntity
  8
0
  6
Continuous
 62
     7
370
    25
100
AcDbLine
 10
47.6250021288
 20
238.1249921936
 30
0.0
 11
142.3749992901
 21
238.1249907818
 31
0.0
  0
LINE
  5
44F
330
1F
100
AcDbEntity
  8
0
  6
Continuous
 62
     7
370
    25
100
AcDbLine
 10
47.6250014192
 20
190.499993613
 30
0.0
 11
47.6250021288
 21
238.1249921936
 31
0.0
  0
LINE
  5
450
330
1F
100
AcDbEntity
  8
0
  6
Continuous
 62
     7
370
    25
100
AcDbLine
 10
93.2499999998
 20
190.4999929332
 30
0.0
 11
47.6250014192
 21
190.499993613
 31
0.0
  0
LINE
  5
451
330
1F
100
AcDbEntity
  8
0
  6
Continuous
 62
     7
370
    25
100
AcDbLine
 10
94.0153668621
 20
190.3477519868
 30
0.0
 11
93.2499999998
 21
190.4999929332
 31
0.0
  0
LINE
  5
452
330
1F
100
AcDbEntity
  8
0
  6
Continuous
 62
     7
370
    25
100
AcDbLine
 10
94.6642135532
 20
189.9142064745
 30
0.0
 11
94.0153668621
 21
190.3477519868
 31
0.0
  0
LINE
  5
453
330
1F
100
AcDbEntity
  8
0
  6
Continuous
 62
     7
370
    25
100
AcDbLine
 10
95.0977590462
 20
189.2653597703
 30
0.0
 11
94.6642135532
 21
189.9142064745
 31
0.0
  0
LINE
  5
454
330
1F
100
AcDbEntity
  8
0
  6
Continuous
 62
     7
370
    25
100
AcDbLine
 10
95.2499999699
 20
188.4999929034
 30
0.0
 11
95.0977590462
 21
189.2653597703
 31
0.0
  0
LINE
  5
455
330
1F
100
AcDbEntity
  8
0
  6
Continuous
 62
     7
370
    25
100
AcDbLine
 10
95.2499992977
 20
143.3749943227
 30
0.0
 11
95.2499999699
 21
188.4999929034
 31
0.0
  0
LINE
  5
456
330
1F
100
AcDbEntity
  8
0
  6
Continuous
 62
     7
370
    25
100
AcDbLine
 10
47.6250007096
 20
142.8749950323
 30
0.0
 11
94.7499992902
 21
142.8749943302
 31
0.0
  0
LINE
  5
457
330
1F
100
AcDbEntity
  8
0
  6
Continuous
 62
     7
370
    25
100
AcDbLine
 10
47.6249999999
 20
95.2499964517
 30
0.0
 11
47.6250007096
 21
142.8749950323
 31
0.0
  0
LINE
  5
458
330
1F
100
AcDbEntity
  8
0
  6
Continuous
 62
     7
370
    25
100
AcDbLine
 10
75.2499985802
 20
95.2499960401
 30
0.0
 11
47.6249999999
 21
95.2499964517
 31
0.0
  0
LINE
  5
459
330
1F
100
AcDbEntity
  8
0
  6
Continuous
 62
     7
370
    25
100
AcDbLine
 10
95.2499988784
 20
115.2499957423
 30
0.0
 11
75.2499985802
 21
95.2499960401
 31
0.0
  0
LINE
  5
45A
330
1F
100
AcDbEntity
  8
0
  6
Continuous
 62
     7
370
    25
100
AcDbLine
 10
95.2499992828
 20
142.3749943227
 30
0.0
 11
95.2499988784
 21
115.2499957423
 31
0.0
  0
LINE
  5
45B
330
1F
100
AcDbEntity
  8
0
  6
Continuous
 62
     7
370
    25
100
AcDbLine
 10
122.8749978704
 20
142.8749939111
 30
0.0
 11
95.7499992902
 21
142.8749943153
 31
0.0
  0
LINE
  5
45C
330
1F
100
AcDbEntity
  8
0
  6
Continuous
 62
     7
370
    25
100
AcDbLine
 10
142.8749981688
 20
162.8749936133
 30
0.0
 11
122.8749978704
 21
142.8749939111
 31
0.0
  0
LINE
  5
45D
330
1F
100
AcDbEntity
  8
0
  6
Continuous
 62
     7
370
    25
100
AcDbLine
 10
142.8749992826
 20
237.6249907744
 30
0.0
 11
142.8749981688
 21
162.8749936133
 31
0.0
  0
LINE
  5
45E
330
1F
100
AcDbEntity
  8
0
  6
Continuous
 62
     7
370
    25
100
AcDbLine
 10
-46.3903626093
 20
190.3477540788
 30
0.0
 11
-47.0392093134
 21
189.9142085859
 31
0.0
  0
LINE
  5
45F
330
1F
100
AcDbEntity
  8
0
  6
Continuous
 62
     7
370
    25
100
AcDbLine
 10
-45.6249957423
 20
190.4999950024
 30
0.0
 11
-46.3903626093
 21
190.3477540788
 31
0.0
  0
LINE
  5
460
330
1F
100
AcDbEntity
  8
0
  6
Continuous
 62
     7
370
    25
100
AcDbLine
 10
3.5000028383
 20
190.4999942698
 30
0.0
 11
-45.6249957423
 21
190.4999950024
 31
0.0
  0
LINE
  5
461
330
1F
100
AcDbEntity
  8
0
  6
Continuous
 62
     7
370
    25
100
AcDbLine
 10
3.5000042574
 20
285.7499914316
 30
0.0
 11
3.5000028383
 21
190.4999942698
 31
0.0
  0
LINE
  5
462
330
1F
100
AcDbEntity
  8
0
  6
Continuous
 62
     7
370
    25
100
AcDbLine
 10
-27.6249943236
 20
285.7499918955
 30
0.0
 11
3.5000042574
 21
285.7499914316
 31
0.0
  0
LINE
  5
463
330
1F
100
AcDbEntity
  8
0
  6
Continuous
 62
     7
370
    25
100
AcDbLine
 10
-47.6249946213
 20
265.7499921939
 30
0.0
 11
-27.6249943236
 21
285.7499918955
 31
0.0
  0
LINE
  5
464
330
1F
100
AcDbEntity
  8
0
  6
Continuous
 62
     7
370
    25
100
AcDbLine
 10
-47.6249950029
 20
239.1249936129
 30
0.0
 11
-47.6249946213
 21
265.7499921939
 31
0.0
  0
LINE
  5
465
330
1F
100
AcDbEntity
  8
0
  6
Continuous
 62
     7
370
    25
100
AcDbLine
 10
-47.7011154761
 20
238.7423101816
 30
0.0
 11
-47.6249950029
 21
239.1249936129
 31
0.0
  0
LINE
  5
466
330
1F
100
AcDbEntity
  8
0
  6
Continuous
 62
     7
370
    25
100
AcDbLine
 10
-47.9178882322
 20
238.4178868361
 30
0.0
 11
-47.7011154761
 21
238.7423101816
 31
0.0
  0
LINE
  5
467
330
1F
100
AcDbEntity
  8
0
  6
Continuous
 62
     7
370
    25
100
AcDbLine
 10
-48.2423115842
 20
238.2011140896
 30
0.0
 11
-47.9178882322
 21
238.4178868361
 31
0.0
  0
LINE
  5
468
330
1F
100
AcDbEntity
  8
0
  6
Continuous
 62
     7
370
    25
100
AcDbLine
 10
-48.6249950178
 20
238.1249936278
 30
0.0
 11
-48.2423115842
 21
238.2011140896
 31
0.0
  0
LINE
  5
469
330
1F
100
AcDbEntity
  8
0
  6
Continuous
 62
     7
370
    25
100
AcDbLine
 10
-122.8749921795
 20
238.1249947192
 30
0.0
 11
-48.6249950178
 21
238.1249936278
 31
0.0
  0
LINE
  5
46A
330
1F
100
AcDbEntity
  8
0
  6
Continuous
 62
     7
370
    25
100
AcDbLine
 10
-142.8749924771
 20
218.1249950175
 30
0.0
 11
-122.8749921795
 21
238.1249947192
 31
0.0
  0
LINE
  5
46B
330
1F
100
AcDbEntity
  8
0
  6
Continuous
 62
     7
370
    25
100
AcDbLine
 10
-142.8749928589
 20
192.4999964366
 30
0.0
 11
-142.8749924771
 21
218.1249950175
 31
0.0
  0
LINE
  5
46C
330
1F
100
AcDbEntity
  8
0
  6
Continuous
 62
     7
370
    25
100
AcDbLine
 10
-143.0272338054
 20
191.7346295741
 30
0.0
 11
-142.8749928589
 21
192.4999964366
 31
0.0
  0
LINE
  5
46D
330
1F
100
AcDbEntity
  8
0
  6
Continuous
 62
     7
370
    25
100
AcDbLine
 10
-143.4607793177
 20
191.0857828829
 30
0.0
 11
-143.0272338054
 21
191.7346295741
 31
0.0
  0
LINE
  5
46E
330
1F
100
AcDbEntity
  8
0
  6
Continuous
 62
     7
370
    25
100
AcDbLine
 10
-144.1096260217
 20
190.65223739
 30
0.0
 11
-143.4607793177
 21
191.0857828829
 31
0.0
  0
LINE
  5
46F
330
1F
100
AcDbEntity
  8
0
  6
Continuous
 62
     7
370
    25
100
AcDbLine
 10
-144.8749928886
 20
190.4999964664
 30
0.0
 11
-144.1096260217
 21
190.65223739
 31
0.0
  0
LINE
  5
470
330
1F
100
AcDbEntity
  8
0
  6
Continuous
 62
     7
370
    25
100
AcDbLine
 10
-190.4999914842
 20
190.4999971462
 30
0.0
 11
-144.8749928886
 21
190.4999964664
 31
0.0
  0
LINE
  5
471
330
1F
100
AcDbEntity
  8
0
  6
Continuous
 62
     7
370
    25
100
AcDbLine
 10
-190.4999921863
 20
143.3749985804
 30
0.0
 11
-190.4999914842
 21
190.4999971462
 31
0.0
  0
LINE
  5
472
330
1F
100
AcDbEntity
  8
0
  6
Continuous
 62
     7
370
    25
100
AcDbLine
 10
-218.1249907745
 20
142.8749989921
 30
0.0
 11
-190.9999921938
 21
142.8749985879
 31
0.0
  0
LINE
  5
473
330
1F
100
AcDbEntity
  8
0
  6
Continuous
 62
     7
370
    25
100
AcDbLine
 10
-238.1249910726
 20
122.8749992901
 30
0.0
 11
-218.1249907745
 21
142.8749989921
 31
0.0
  0
LINE
  5
474
330
1F
100
AcDbEntity
  8
0
  6
Continuous
 62
     7
370
    25
100
AcDbLine
 10
-238.124991484
 20
95.2500007094
 30
0.0
 11
-238.1249910726
 21
122.8749992901
 31
0.0
  0
LINE
  5
475
330
1F
100
AcDbEntity
  8
0
  6
Continuous
 62
     7
370
    25
100
AcDbLine
 10
-190.9999929034
 20
95.2500000072
 30
0.0
 11
-238.124991484
 21
95.2500007094
 31
0.0
  0
LINE
  5
476
330
1F
100
AcDbEntity
  8
0
  6
Continuous
 62
     7
370
    25
100
AcDbLine
 10
-190.4999922012
 20
142.3749985804
 30
0.0
 11
-190.4999928959
 21
95.7499999998
 31
0.0
  0
LINE
  5
477
330
1F
100
AcDbEntity
  8
0
  6
Continuous
 62
     7
370
    25
100
AcDbLine
 10
-67.6249964529
 20
142.8749967496
 30
0.0
 11
-189.9999921938
 21
142.874998573
 31
0.0
  0
LINE
  5
478
330
1F
100
AcDbEntity
  8
0
  6
Continuous
 62
     7
370
    25
100
AcDbLine
 10
-47.624996154
 20
162.8749964526
 30
0.0
 11
-67.6249964529
 21
142.8749967496
 31
0.0
  0
LINE
  5
479
330
1F
100
AcDbEntity
  8
0
  6
Continuous
 62
     7
370
    25
100
AcDbLine
 10
-47.6249957721
 20
188.4999950322
 30
0.0
 11
-47.624996154
 21
162.8749964526
 31
0.0
  0
LINE
  5
47A
330
1F
100
AcDbEntity
  8
0
  6
Continuous
 62
     7
370
    25
100
AcDbLine
 10
-47.4727548258
 20
189.2653618947
 30
0.0
 11
-47.6249957721
 21
188.4999950322
 31
0.0
  0
LINE
  5
47B
330
1F
100
AcDbEntity
  8
0
  6
Continuous
 62
     7
370
    25
100
AcDbLine
 10
-47.0392093134
 20
189.9142085859
 30
0.0
 11
-47.4727548258
 21
189.2653618947
 31
0.0
  0
LINE
  5
47C
330
1F
100
AcDbEntity
  8
0
  6
Continuous
 62
     7
370
    25
100
AcDbLine
 10
3.5000021286
 20
142.8749956896
 30
0.0
 11
3.5000007081
 21
47.6249985286
 31
0.0
  0
LINE
  5
47D
330
1F
100
AcDbEntity
  8
0
  6
Continuous
 62
     7
370
    25
100
AcDbLine
 10
-27.6249964527
 20
142.8749961536
 30
0.0
 11
3.5000021286
 21
142.8749956896
 31
0.0
  0
LINE
  5
47E
330
1F
100
AcDbEntity
  8
0
  6
Continuous
 62
     7
370
    25
100
AcDbLine
 10
-47.62499675
 20
122.8749964522
 30
0.0
 11
-27.6249964527
 21
142.8749961536
 31
0.0
  0
LINE
  5
47F
330
1F
100
AcDbEntity
  8
0
  6
Continuous
 62
     7
370
    25
100
AcDbLine
 10
-47.6249978712
 20
47.6249992903
 30
0.0
 11
-47.62499675
 21
122.8749964522
 31
0.0
  0
LINE
  5
480
330
1F
100
AcDbEntity
  8
0
  6
Continuous
 62
     7
370
    25
100
AcDbLine
 10
3.5000007081
 20
47.6249985286
 30
0.0
 11
-47.6249978712
 21
47.6249992903
 31
0.0
  0
LINE
  5
481
330
1F
100
AcDbEntity
  8
0
  6
Continuous
 62
     7
370
    25
100
AcDbLine
 10
-190.499993613
 20
47.6250014191
 30
0.0
 11
-190.4999929108
 21
94.7499999998
 31
0.0
  0
LINE
  5
482
330
1F
100
AcDbEntity
  8
0
  6
Continuous
 62
     7
370
    25
100
AcDbLine
 10
-95.2499964517
 20
47.6249999999
 30
0.0
 11
-190.499993613
 21
47.6250014191
 31
0.0
  0
LINE
  5
483
330
1F
100
AcDbEntity
  8
0
  6
Continuous
 62
     7
370
    25
100
AcDbLine
 10
-95.2499957421
 20
95.2499985805
 30
0.0
 11
-95.2499964517
 21
47.6249999999
 31
0.0
  0
LINE
  5
484
330
1F
100
AcDbEntity
  8
0
  6
Continuous
 62
     7
370
    25
100
AcDbLine
 10
-189.9999929034
 20
95.2499999923
 30
0.0
 11
-95.2499957421
 21
95.2499985805
 31
0.0
  0
LINE
  5
485
330
1F
100
AcDbEntity
  8
0
  6
Continuous
 62
     7
370
    25
100
AcDbLine
 10
142.8749964516
 20
47.6249964518
 30
0.0
 11
95.2499978709
 21
47.6249971614
 31
0.0
  0
LINE
  5
486
330
1F
100
AcDbEntity
  8
0
  6
Continuous
 62
     7
370
    25
100
AcDbLine
 10
142.8749971538
 20
94.7499950324
 30
0.0
 11
142.8749964516
 21
47.6249964518
 31
0.0
  0
LINE
  5
487
330
1F
100
AcDbEntity
  8
0
  6
Continuous
 62
     7
370
    25
100
AcDbLine
 10
115.2499985802
 20
95.249995444
 30
0.0
 11
142.3749971613
 21
95.2499950399
 31
0.0
  0
LINE
  5
488
330
1F
100
AcDbEntity
  8
0
  6
Continuous
 62
     7
370
    25
100
AcDbLine
 10
95.2499982824
 20
75.2499957423
 30
0.0
 11
115.2499985802
 21
95.249995444
 31
0.0
  0
LINE
  5
489
330
1F
100
AcDbEntity
  8
0
  6
Continuous
 62
     7
370
    25
100
AcDbLine
 10
95.2499978709
 20
47.6249971614
 30
0.0
 11
95.2499982824
 21
75.2499957423
 31
0.0
  0
LINE
  5
48A
330
1F
100
AcDbEntity
  8
0
  6
Continuous
 62
     7
370
    25
100
AcDbLine
 10
-190.4999950248
 20
-47.1249957422
 30
0.0
 11
-190.4999943226
 21
0.0000028385
 31
0.0
  0
LINE
  5
48B
330
1F
100
AcDbEntity
  8
0
  6
Continuous
 62
     7
370
    25
100
AcDbLine
 10
-144.8749964517
 20
-47.624996422
 30
0.0
 11
-189.9999950322
 21
-47.6249957496
 31
0.0
  0
LINE
  5
48C
330
1F
100
AcDbEntity
  8
0
  6
Continuous
 62
     7
370
    25
100
AcDbLine
 10
-144.1096295893
 20
-47.7772373684
 30
0.0
 11
-144.8749964517
 21
-47.624996422
 31
0.0
  0
LINE
  5
48D
330
1F
100
AcDbEntity
  8
0
  6
Continuous
 62
     7
370
    25
100
AcDbLine
 10
-143.4607828981
 20
-48.2107828807
 30
0.0
 11
-144.1096295893
 21
-47.7772373684
 31
0.0
  0
LINE
  5
48E
330
1F
100
AcDbEntity
  8
0
  6
Continuous
 62
     7
370
    25
100
AcDbLine
 10
-143.0272374051
 20
-48.8596295848
 30
0.0
 11
-143.4607828981
 21
-48.2107828807
 31
0.0
  0
LINE
  5
48F
330
1F
100
AcDbEntity
  8
0
  6
Continuous
 62
     7
370
    25
100
AcDbLine
 10
-142.8749964815
 20
-49.6249964518
 30
0.0
 11
-143.0272374051
 21
-48.8596295848
 31
0.0
  0
LINE
  5
490
330
1F
100
AcDbEntity
  8
0
  6
Continuous
 62
     7
370
    25
100
AcDbLine
 10
-142.8749971612
 20
-95.2499950324
 30
0.0
 11
-142.8749964815
 21
-49.6249964518
 31
0.0
  0
LINE
  5
491
330
1F
100
AcDbEntity
  8
0
  6
Continuous
 62
     7
370
    25
100
AcDbLine
 10
-115.2499985809
 20
-95.2499954441
 30
0.0
 11
-142.8749971612
 21
-95.2499950324
 31
0.0
  0
LINE
  5
492
330
1F
100
AcDbEntity
  8
0
  6
Continuous
 62
     7
370
    25
100
AcDbLine
 10
-95.2499982826
 20
-75.2499957418
 30
0.0
 11
-115.2499985809
 21
-95.2499954441
 31
0.0
  0
LINE
  5
493
330
1F
100
AcDbEntity
  8
0
  6
Continuous
 62
     7
370
    25
100
AcDbLine
 10
-95.2499979008
 20
-49.6249971614
 30
0.0
 11
-95.2499982826
 21
-75.2499957418
 31
0.0
  0
LINE
  5
494
330
1F
100
AcDbEntity
  8
0
  6
Continuous
 62
     7
370
    25
100
AcDbLine
 10
-95.0977569545
 20
-48.859630299
 30
0.0
 11
-95.2499979008
 21
-49.6249971614
 31
0.0
  0
LINE
  5
495
330
1F
100
AcDbEntity
  8
0
  6
Continuous
 62
     7
370
    25
100
AcDbLine
 10
-94.6642114422
 20
-48.2107836078
 30
0.0
 11
-95.0977569545
 21
-48.859630299
 31
0.0
  0
LINE
  5
496
330
1F
100
AcDbEntity
  8
0
  6
Continuous
 62
     7
370
    25
100
AcDbLine
 10
-94.0153647381
 20
-47.7772381148
 30
0.0
 11
-94.6642114422
 21
-48.2107836078
 31
0.0
  0
LINE
  5
497
330
1F
100
AcDbEntity
  8
0
  6
Continuous
 62
     7
370
    25
100
AcDbLine
 10
-93.249997871
 20
-47.6249971912
 30
0.0
 11
-94.0153647381
 21
-47.7772381148
 31
0.0
  0
LINE
  5
498
330
1F
100
AcDbEntity
  8
0
  6
Continuous
 62
     7
370
    25
100
AcDbLine
 10
-47.6249992903
 20
-47.624997871
 30
0.0
 11
-93.249997871
 21
-47.6249971912
 31
0.0
  0
LINE
  5
499
330
1F
100
AcDbEntity
  8
0
  6
Continuous
 62
     7
370
    25
100
AcDbLine
 10
-47.6249985808
 20
0.0000007096
 30
0.0
 11
-47.6249992903
 21
-47.624997871
 31
0.0
  0
LINE
  5
49A
330
1F
100
AcDbEntity
  8
0
  6
Continuous
 62
     7
370
    25
100
AcDbLine
 10
-190.4999943226
 20
0.0000028385
 30
0.0
 11
-47.6249985808
 21
0.0000007096
 31
0.0
  0
LINE
  5
49B
330
1F
100
AcDbEntity
  8
0
  6
Continuous
 62
     7
370
    25
100
AcDbLine
 10
94.0153633288
 20
-47.7772409313
 30
0.0
 11
93.2499964664
 21
-47.624999985
 31
0.0
  0
LINE
  5
49C
330
1F
100
AcDbEntity
  8
0
  6
Continuous
 62
     7
370
    25
100
AcDbLine
 10
94.6642100199
 20
-48.2107864437
 30
0.0
 11
94.0153633288
 21
-47.7772409313
 31
0.0
  0
LINE
  5
49D
330
1F
100
AcDbEntity
  8
0
  6
Continuous
 62
     7
370
    25
100
AcDbLine
 10
95.097755513
 20
-48.8596331478
 30
0.0
 11
94.6642100199
 21
-48.2107864437
 31
0.0
  0
LINE
  5
49E
330
1F
100
AcDbEntity
  8
0
  6
Continuous
 62
     7
370
    25
100
AcDbLine
 10
95.2499964366
 20
-49.6250000148
 30
0.0
 11
95.097755513
 21
-48.8596331478
 31
0.0
  0
LINE
  5
49F
330
1F
100
AcDbEntity
  8
0
  6
Continuous
 62
     7
370
    25
100
AcDbLine
 10
95.2499960549
 20
-75.2499985958
 30
0.0
 11
95.2499964366
 21
-49.6250000148
 31
0.0
  0
LINE
  5
4A0
330
1F
100
AcDbEntity
  8
0
  6
Continuous
 62
     7
370
    25
100
AcDbLine
 10
115.2499957565
 20
-95.2499988935
 30
0.0
 11
95.2499960549
 21
-75.2499985958
 31
0.0
  0
LINE
  5
4A1
330
1F
100
AcDbEntity
  8
0
  6
Continuous
 62
     7
370
    25
100
AcDbLine
 10
122.874994337
 20
-95.2499990071
 30
0.0
 11
115.2499957565
 21
-95.2499988935
 31
0.0
  0
LINE
  5
4A2
330
1F
100
AcDbEntity
  8
0
  6
Continuous
 62
     7
370
    25
100
AcDbLine
 10
142.8749946354
 20
-75.2499993047
 30
0.0
 11
122.874994337
 21
-95.2499990071
 31
0.0
  0
LINE
  5
4A3
330
1F
100
AcDbEntity
  8
0
  6
Continuous
 62
     7
370
    25
100
AcDbLine
 10
142.8749950172
 20
-48.6250007244
 30
0.0
 11
142.8749946354
 21
-75.2499993047
 31
0.0
  0
LINE
  5
4A4
330
1F
100
AcDbEntity
  8
0
  6
Continuous
 62
     7
370
    25
100
AcDbLine
 10
142.9511154903
 20
-48.2423172931
 30
0.0
 11
142.8749950172
 21
-48.6250007244
 31
0.0
  0
LINE
  5
4A5
330
1F
100
AcDbEntity
  8
0
  6
Continuous
 62
     7
370
    25
100
AcDbLine
 10
143.1678882466
 20
-47.9178939476
 30
0.0
 11
142.9511154903
 21
-48.2423172931
 31
0.0
  0
LINE
  5
4A6
330
1F
100
AcDbEntity
  8
0
  6
Continuous
 62
     7
370
    25
100
AcDbLine
 10
143.4923115986
 20
-47.7011212011
 30
0.0
 11
143.1678882466
 21
-47.9178939476
 31
0.0
  0
LINE
  5
4A7
330
1F
100
AcDbEntity
  8
0
  6
Continuous
 62
     7
370
    25
100
AcDbLine
 10
143.8749950321
 20
-47.6250007393
 30
0.0
 11
143.4923115986
 21
-47.7011212011
 31
0.0
  0
LINE
  5
4A8
330
1F
100
AcDbEntity
  8
0
  6
Continuous
 62
     7
370
    25
100
AcDbLine
 10
170.4999936125
 20
-47.6250011211
 30
0.0
 11
143.8749950321
 21
-47.6250007393
 31
0.0
  0
LINE
  5
4A9
330
1F
100
AcDbEntity
  8
0
  6
Continuous
 62
     7
370
    25
100
AcDbLine
 10
190.4999939108
 20
-27.6250014188
 30
0.0
 11
170.4999936125
 21
-47.6250011211
 31
0.0
  0
LINE
  5
4AA
330
1F
100
AcDbEntity
  8
0
  6
Continuous
 62
     7
370
    25
100
AcDbLine
 10
190.4999943227
 20
-0.0000028385
 30
0.0
 11
190.4999939108
 21
-27.6250014188
 31
0.0
  0
LINE
  5
4AB
330
1F
100
AcDbEntity
  8
0
  6
Continuous
 62
     7
370
    25
100
AcDbLine
 10
47.6249985954
 20
-0.0000007096
 30
0.0
 11
190.4999943227
 21
-0.0000028385
 31
0.0
  0
LINE
  5
4AC
330
1F
100
AcDbEntity
  8
0
  6
Continuous
 62
     7
370
    25
100
AcDbLine
 10
47.6249981837
 20
-27.6249993054
 30
0.0
 11
47.6249985954
 21
-0.0000007096
 31
0.0
  0
LINE
  5
4AD
330
1F
100
AcDbEntity
  8
0
  6
Continuous
 62
     7
370
    25
100
AcDbLine
 10
67.6249978854
 20
-47.6249996032
 30
0.0
 11
47.6249981837
 21
-27.6249993054
 31
0.0
  0
LINE
  5
4AE
330
1F
100
AcDbEntity
  8
0
  6
Continuous
 62
     7
370
    25
100
AcDbLine
 10
93.2499964664
 20
-47.624999985
 30
0.0
 11
67.6249978854
 21
-47.6249996032
 31
0.0
  0
LINE
  5
4AF
330
1F
100
AcDbEntity
  8
0
  6
Continuous
 62
     7
370
    25
100
AcDbLine
 10
189.265359056
 20
-143.027239497
 30
0.0
 11
188.4999921936
 21
-142.8749985506
 31
0.0
  0
LINE
  5
4B0
330
1F
100
AcDbEntity
  8
0
  6
Continuous
 62
     7
370
    25
100
AcDbLine
 10
189.9142057471
 20
-143.4607850093
 30
0.0
 11
189.265359056
 21
-143.027239497
 31
0.0
  0
LINE
  5
4B1
330
1F
100
AcDbEntity
  8
0
  6
Continuous
 62
     7
370
    25
100
AcDbLine
 10
190.3477512401
 20
-144.1096317134
 30
0.0
 11
189.9142057471
 21
-143.4607850093
 31
0.0
  0
LINE
  5
4B2
330
1F
100
AcDbEntity
  8
0
  6
Continuous
 62
     7
370
    25
100
AcDbLine
 10
190.4999921638
 20
-144.8749985804
 30
0.0
 11
190.3477512401
 21
-144.1096317134
 31
0.0
  0
LINE
  5
4B3
330
1F
100
AcDbEntity
  8
0
  6
Continuous
 62
     7
370
    25
100
AcDbLine
 10
190.4999917819
 20
-170.4999971613
 30
0.0
 11
190.4999921638
 21
-144.8749985804
 31
0.0
  0
LINE
  5
4B4
330
1F
100
AcDbEntity
  8
0
  6
Continuous
 62
     7
370
    25
100
AcDbLine
 10
210.4999914837
 20
-190.4999974591
 30
0.0
 11
190.4999917819
 21
-170.4999971613
 31
0.0
  0
LINE
  5
4B5
330
1F
100
AcDbEntity
  8
0
  6
Continuous
 62
     7
370
    25
100
AcDbLine
 10
218.1249900642
 20
-190.4999975727
 30
0.0
 11
210.4999914837
 21
-190.4999974591
 31
0.0
  0
LINE
  5
4B6
330
1F
100
AcDbEntity
  8
0
  6
Continuous
 62
     7
370
    25
100
AcDbLine
 10
238.1249903626
 20
-170.4999978704
 30
0.0
 11
218.1249900642
 21
-190.4999975727
 31
0.0
  0
LINE
  5
4B7
330
1F
100
AcDbEntity
  8
0
  6
Continuous
 62
     7
370
    25
100
AcDbLine
 10
238.1249907444
 20
-144.8749992901
 30
0.0
 11
238.1249903626
 21
-170.4999978704
 31
0.0
  0
LINE
  5
4B8
330
1F
100
AcDbEntity
  8
0
  6
Continuous
 62
     7
370
    25
100
AcDbLine
 10
238.2772316908
 20
-144.1096324276
 30
0.0
 11
238.1249907444
 21
-144.8749992901
 31
0.0
  0
LINE
  5
4B9
330
1F
100
AcDbEntity
  8
0
  6
Continuous
 62
     7
370
    25
100
AcDbLine
 10
238.7107772031
 20
-143.4607857364
 30
0.0
 11
238.2772316908
 21
-144.1096324276
 31
0.0
  0
LINE
  5
4BA
330
1F
100
AcDbEntity
  8
0
  6
Continuous
 62
     7
370
    25
100
AcDbLine
 10
239.3596239071
 20
-143.0272402435
 30
0.0
 11
238.7107772031
 21
-143.4607857364
 31
0.0
  0
LINE
  5
4BB
330
1F
100
AcDbEntity
  8
0
  6
Continuous
 62
     7
370
    25
100
AcDbLine
 10
240.1249907742
 20
-142.8749993199
 30
0.0
 11
239.3596239071
 21
-143.0272402435
 31
0.0
  0
LINE
  5
4BC
330
1F
100
AcDbEntity
  8
0
  6
Continuous
 62
     7
370
    25
100
AcDbLine
 10
265.7499893546
 20
-142.8749997017
 30
0.0
 11
240.1249907742
 21
-142.8749993199
 31
0.0
  0
LINE
  5
4BD
330
1F
100
AcDbEntity
  8
0
  6
Continuous
 62
     7
370
    25
100
AcDbLine
 10
285.7499896528
 20
-122.8749999994
 30
0.0
 11
265.7499893546
 21
-142.8749997017
 31
0.0
  0
LINE
  5
4BE
330
1F
100
AcDbEntity
  8
0
  6
Continuous
 62
     7
370
    25
100
AcDbLine
 10
285.7499907743
 20
-47.6250028384
 30
0.0
 11
285.7499896528
 21
-122.8749999994
 31
0.0
  0
LINE
  5
4BF
330
1F
100
AcDbEntity
  8
0
  6
Continuous
 62
     7
370
    25
100
AcDbLine
 10
210.4999936126
 20
-47.6250017171
 30
0.0
 11
285.7499907743
 21
-47.6250028384
 31
0.0
  0
LINE
  5
4C0
330
1F
100
AcDbEntity
  8
0
  6
Continuous
 62
     7
370
    25
100
AcDbLine
 10
190.4999933149
 20
-67.6250014188
 30
0.0
 11
210.4999936126
 21
-47.6250017171
 31
0.0
  0
LINE
  5
4C1
330
1F
100
AcDbEntity
  8
0
  6
Continuous
 62
     7
370
    25
100
AcDbLine
 10
190.4999929331
 20
-93.2499999998
 30
0.0
 11
190.4999933149
 21
-67.6250014188
 31
0.0
  0
LINE
  5
4C2
330
1F
100
AcDbEntity
  8
0
  6
Continuous
 62
     7
370
    25
100
AcDbLine
 10
190.3477519866
 20
-94.0153668623
 30
0.0
 11
190.4999929331
 21
-93.2499999998
 31
0.0
  0
LINE
  5
4C3
330
1F
100
AcDbEntity
  8
0
  6
Continuous
 62
     7
370
    25
100
AcDbLine
 10
189.9142064743
 20
-94.6642135535
 30
0.0
 11
190.3477519866
 21
-94.0153668623
 31
0.0
  0
LINE
  5
4C4
330
1F
100
AcDbEntity
  8
0
  6
Continuous
 62
     7
370
    25
100
AcDbLine
 10
189.2653597703
 20
-95.0977590464
 30
0.0
 11
189.9142064743
 21
-94.6642135535
 31
0.0
  0
LINE
  5
4C5
330
1F
100
AcDbEntity
  8
0
  6
Continuous
 62
     7
370
    25
100
AcDbLine
 10
188.4999929034
 20
-95.24999997
 30
0.0
 11
189.2653597703
 21
-95.0977590464
 31
0.0
  0
LINE
  5
4C6
330
1F
100
AcDbEntity
  8
0
  6
Continuous
 62
     7
370
    25
100
AcDbLine
 10
162.8749943223
 20
-95.2499995882
 30
0.0
 11
188.4999929034
 21
-95.24999997
 31
0.0
  0
LINE
  5
4C7
330
1F
100
AcDbEntity
  8
0
  6
Continuous
 62
     7
370
    25
100
AcDbLine
 10
142.8749940246
 20
-115.2499992898
 30
0.0
 11
162.8749943223
 21
-95.2499995882
 31
0.0
  0
LINE
  5
4C8
330
1F
100
AcDbEntity
  8
0
  6
Continuous
 62
     7
370
    25
100
AcDbLine
 10
142.874993911
 20
-122.8749978712
 30
0.0
 11
142.8749940246
 21
-115.2499992898
 31
0.0
  0
LINE
  5
4C9
330
1F
100
AcDbEntity
  8
0
  6
Continuous
 62
     7
370
    25
100
AcDbLine
 10
162.8749936128
 20
-142.8749981688
 30
0.0
 11
142.874993911
 21
-122.8749978712
 31
0.0
  0
LINE
  5
4CA
330
1F
100
AcDbEntity
  8
0
  6
Continuous
 62
     7
370
    25
100
AcDbLine
 10
188.4999921936
 20
-142.8749985506
 30
0.0
 11
162.8749936128
 21
-142.8749981688
 31
0.0
  0
LINE
  5
4CB
330
1F
100
AcDbEntity
  8
0
  6
Continuous
 62
     7
370
    25
100
AcDbLine
 10
-97.2500014192
 20
-285.7499900349
 30
0.0
 11
-170.4999985807
 21
-285.7499889434
 31
0.0
  0
LINE
  5
4CC
330
1F
100
AcDbEntity
  8
0
  6
Continuous
 62
     7
370
    25
100
AcDbLine
 10
-96.4846345568
 20
-285.9022309812
 30
0.0
 11
-97.2500014192
 21
-285.7499900349
 31
0.0
  0
LINE
  5
4CD
330
1F
100
AcDbEntity
  8
0
  6
Continuous
 62
     7
370
    25
100
AcDbLine
 10
-95.8357878656
 20
-286.3357764936
 30
0.0
 11
-96.4846345568
 21
-285.9022309812
 31
0.0
  0
LINE
  5
4CE
330
1F
100
AcDbEntity
  8
0
  6
Continuous
 62
     7
370
    25
100
AcDbLine
 10
-95.4022423726
 20
-286.9846231977
 30
0.0
 11
-95.8357878656
 21
-286.3357764936
 31
0.0
  0
LINE
  5
4CF
330
1F
100
AcDbEntity
  8
0
  6
Continuous
 62
     7
370
    25
100
AcDbLine
 10
-95.250001449
 20
-287.7499900647
 30
0.0
 11
-95.4022423726
 21
-286.9846231977
 31
0.0
  0
LINE
  5
4D0
330
1F
100
AcDbEntity
  8
0
  6
Continuous
 62
     7
370
    25
100
AcDbLine
 10
-95.2500018308
 20
-313.3749886455
 30
0.0
 11
-95.250001449
 21
-287.7499900647
 31
0.0
  0
LINE
  5
4D1
330
1F
100
AcDbEntity
  8
0
  6
Continuous
 62
     7
370
    25
100
AcDbLine
 10
-75.2500021291
 20
-333.3749889433
 30
0.0
 11
-95.2500018308
 21
-313.3749886455
 31
0.0
  0
LINE
  5
4D2
330
1F
100
AcDbEntity
  8
0
  6
Continuous
 62
     7
370
    25
100
AcDbLine
 10
-47.625003548
 20
-333.3749893549
 30
0.0
 11
-75.2500021291
 21
-333.3749889433
 31
0.0
  0
LINE
  5
4D3
330
1F
100
AcDbEntity
  8
0
  6
Continuous
 62
     7
370
    25
100
AcDbLine
 10
-47.6250021288
 20
-238.1249921936
 30
0.0
 11
-47.625003548
 21
-333.3749893549
 31
0.0
  0
LINE
  5
4D4
330
1F
100
AcDbEntity
  8
0
  6
Continuous
 62
     7
370
    25
100
AcDbLine
 10
-140.8749992901
 20
-238.1249908042
 30
0.0
 11
-47.6250021288
 21
-238.1249921936
 31
0.0
  0
LINE
  5
4D5
330
1F
100
AcDbEntity
  8
0
  6
Continuous
 62
     7
370
    25
100
AcDbLine
 10
-141.6403661526
 20
-237.9727498577
 30
0.0
 11
-140.8749992901
 21
-238.1249908042
 31
0.0
  0
LINE
  5
4D6
330
1F
100
AcDbEntity
  8
0
  6
Continuous
 62
     7
370
    25
100
AcDbLine
 10
-142.2892128438
 20
-237.5392043454
 30
0.0
 11
-141.6403661526
 21
-237.9727498577
 31
0.0
  0
LINE
  5
4D7
330
1F
100
AcDbEntity
  8
0
  6
Continuous
 62
     7
370
    25
100
AcDbLine
 10
-142.7227583368
 20
-236.8903576413
 30
0.0
 11
-142.2892128438
 21
-237.5392043454
 31
0.0
  0
LINE
  5
4D8
330
1F
100
AcDbEntity
  8
0
  6
Continuous
 62
     7
370
    25
100
AcDbLine
 10
-142.8749992603
 20
-236.1249907744
 30
0.0
 11
-142.7227583368
 21
-236.8903576413
 31
0.0
  0
LINE
  5
4D9
330
1F
100
AcDbEntity
  8
0
  6
Continuous
 62
     7
370
    25
100
AcDbLine
 10
-142.874998588
 20
-190.9999921937
 30
0.0
 11
-142.8749992603
 21
-236.1249907744
 31
0.0
  0
LINE
  5
4DA
330
1F
100
AcDbEntity
  8
0
  6
Continuous
 62
     7
370
    25
100
AcDbLine
 10
-47.6250014192
 20
-190.499993613
 30
0.0
 11
-142.3749985805
 21
-190.4999922012
 31
0.0
  0
LINE
  5
4DB
330
1F
100
AcDbEntity
  8
0
  6
Continuous
 62
     7
370
    25
100
AcDbLine
 10
-47.6249999998
 20
-95.2499964517
 30
0.0
 11
-47.6250014192
 21
-190.499993613
 31
0.0
  0
LINE
  5
4DC
330
1F
100
AcDbEntity
  8
0
  6
Continuous
 62
     7
370
    25
100
AcDbLine
 10
-75.2499985809
 20
-95.2499960401
 30
0.0
 11
-47.6249999998
 21
-95.2499964517
 31
0.0
  0
LINE
  5
4DD
330
1F
100
AcDbEntity
  8
0
  6
Continuous
 62
     7
370
    25
100
AcDbLine
 10
-95.2499988787
 20
-115.2499957418
 30
0.0
 11
-75.2499985809
 21
-95.2499960401
 31
0.0
  0
LINE
  5
4DE
330
1F
100
AcDbEntity
  8
0
  6
Continuous
 62
     7
370
    25
100
AcDbLine
 10
-95.2499992605
 20
-140.8749943227
 30
0.0
 11
-95.2499988787
 21
-115.2499957418
 31
0.0
  0
LINE
  5
4DF
330
1F
100
AcDbEntity
  8
0
  6
Continuous
 62
     7
370
    25
100
AcDbLine
 10
-95.402240207
 20
-141.6403611852
 30
0.0
 11
-95.2499992605
 21
-140.8749943227
 31
0.0
  0
LINE
  5
4E0
330
1F
100
AcDbEntity
  8
0
  6
Continuous
 62
     7
370
    25
100
AcDbLine
 10
-95.8357857193
 20
-142.2892078764
 30
0.0
 11
-95.402240207
 21
-141.6403611852
 31
0.0
  0
LINE
  5
4E1
330
1F
100
AcDbEntity
  8
0
  6
Continuous
 62
     7
370
    25
100
AcDbLine
 10
-96.4846324234
 20
-142.7227533693
 30
0.0
 11
-95.8357857193
 21
-142.2892078764
 31
0.0
  0
LINE
  5
4E2
330
1F
100
AcDbEntity
  8
0
  6
Continuous
 62
     7
370
    25
100
AcDbLine
 10
-97.2499992903
 20
-142.8749942929
 30
0.0
 11
-96.4846324234
 21
-142.7227533693
 31
0.0
  0
LINE
  5
4E3
330
1F
100
AcDbEntity
  8
0
  6
Continuous
 62
     7
370
    25
100
AcDbLine
 10
-142.8749978709
 20
-142.8749936131
 30
0.0
 11
-97.2499992903
 21
-142.8749942929
 31
0.0
  0
LINE
  5
4E4
330
1F
100
AcDbEntity
  8
0
  6
Continuous
 62
     7
370
    25
100
AcDbLine
 10
-142.8749985731
 20
-189.9999921937
 30
0.0
 11
-142.8749978709
 21
-142.8749936131
 31
0.0
  0
LINE
  5
4E5
330
1F
100
AcDbEntity
  8
0
  6
Continuous
 62
     7
370
    25
100
AcDbLine
 10
-170.4999971616
 20
-190.4999917821
 30
0.0
 11
-143.3749985805
 21
-190.4999921863
 31
0.0
  0
LINE
  5
4E6
330
1F
100
AcDbEntity
  8
0
  6
Continuous
 62
     7
370
    25
100
AcDbLine
 10
-190.4999974592
 20
-210.4999914839
 30
0.0
 11
-170.4999971616
 21
-190.4999917821
 31
0.0
  0
LINE
  5
4E7
330
1F
100
AcDbEntity
  8
0
  6
Continuous
 62
     7
370
    25
100
AcDbLine
 10
-190.4999982824
 20
-265.7499886456
 30
0.0
 11
-190.4999974592
 21
-210.4999914839
 31
0.0
  0
LINE
  5
4E8
330
1F
100
AcDbEntity
  8
0
  6
Continuous
 62
     7
370
    25
100
AcDbLine
 10
-170.4999985807
 20
-285.7499889434
 30
0.0
 11
-190.4999982824
 21
-265.7499886456
 31
0.0
  0
ARC
  5
4E9
330
1F
100
AcDbEntity
  8
0
  6
Continuous
 62
     7
370
    25
100
AcDbCircle
 10
-285.2499929105
 20
-95.749992911
 30
0.0
 40
0.4999999999999432
100
AcDbArc
 50
89.9999991463
 51
179.9999991462
  0
ARC
  5
4EA
330
1F
100
AcDbEntity
  8
0
  6
Continuous
 62
     7
370
    25
100
AcDbCircle
 10
-190.9999950397
 20
-48.1249957347
 30
0.0
 40
0.5000000000000568
100
AcDbArc
 50
359.9999991462
 51
89.9999991463
  0
ARC
  5
4EB
330
1F
100
AcDbEntity
  8
0
  6
Continuous
 62
     7
370
    25
100
AcDbCircle
 10
-286.2499928956
 20
-94.7499928961
 30
0.0
 40
0.5000000000002274
100
AcDbArc
 50
269.9999991463
 51
359.9999991463
  0
ARC
  5
4EC
330
1F
100
AcDbEntity
  8
0
  6
Continuous
 62
     7
370
    25
100
AcDbCircle
 10
143.3749992975
 20
238.6249907669
 30
0.0
 40
0.5000000000002842
100
AcDbArc
 50
179.9999991464
 51
269.9999991462
  0
ARC
  5
4ED
330
1F
100
AcDbEntity
  8
0
  6
Continuous
 62
     7
370
    25
100
AcDbCircle
 10
285.2499929106
 20
95.749992911
 30
0.0
 40
0.5
100
AcDbArc
 50
269.9999991463
 51
359.9999991463
  0
ARC
  5
4EE
330
1F
100
AcDbEntity
  8
0
  6
Continuous
 62
     7
370
    25
100
AcDbCircle
 10
143.3749971687
 20
95.749995025
 30
0.0
 40
0.4999999999998864
100
AcDbArc
 50
179.9999991465
 51
269.9999991463
  0
ARC
  5
4EF
330
1F
100
AcDbEntity
  8
0
  6
Continuous
 62
     7
370
    25
100
AcDbCircle
 10
286.2499928957
 20
94.7499928961
 30
0.0
 40
0.4999999999999858
100
AcDbArc
 50
89.9999991463
 51
179.9999991463
  0
ARC
  5
4F0
330
1F
100
AcDbEntity
  8
0
  6
Continuous
 62
     7
370
    25
100
AcDbCircle
 10
142.3749992826
 20
237.6249907818
 30
0.0
 40
0.500000000000199
100
AcDbArc
 50
359.9999991463
 51
89.9999991463
  0
ARC
  5
4F1
330
1F
100
AcDbEntity
  8
0
  6
Continuous
 62
     7
370
    25
100
AcDbCircle
 10
94.7499992977
 20
143.3749943302
 30
0.0
 40
0.5000000000002132
100
AcDbArc
 50
269.9999991463
 51
359.9999991464
  0
ARC
  5
4F2
330
1F
100
AcDbEntity
  8
0
  6
Continuous
 62
     7
370
    25
100
AcDbCircle
 10
95.7499992828
 20
142.3749943153
 30
0.0
 40
0.5000000000002274
100
AcDbArc
 50
89.9999991463
 51
179.9999991459
  0
ARC
  5
4F3
330
1F
100
AcDbEntity
  8
0
  6
Continuous
 62
     7
370
    25
100
AcDbCircle
 10
-190.9999921863
 20
143.3749985879
 30
0.0
 40
0.5000000000002558
100
AcDbArc
 50
269.9999991463
 51
359.9999991463
  0
ARC
  5
4F4
330
1F
100
AcDbEntity
  8
0
  6
Continuous
 62
     7
370
    25
100
AcDbCircle
 10
-190.9999928959
 20
95.7500000072
 30
0.0
 40
0.4999999999999716
100
AcDbArc
 50
269.9999991463
 51
359.9999991463
  0
ARC
  5
4F5
330
1F
100
AcDbEntity
  8
0
  6
Continuous
 62
     7
370
    25
100
AcDbCircle
 10
-189.9999922012
 20
142.374998573
 30
0.0
 40
0.499999999999659
100
AcDbArc
 50
89.9999991462
 51
179.9999991463
  0
ARC
  5
4F6
330
1F
100
AcDbEntity
  8
0
  6
Continuous
 62
     7
370
    25
100
AcDbCircle
 10
-189.9999929108
 20
94.7499999923
 30
0.0
 40
0.4999999999999148
100
AcDbArc
 50
89.9999991463
 51
179.9999991463
  0
ARC
  5
4F7
330
1F
100
AcDbEntity
  8
0
  6
Continuous
 62
     7
370
    25
100
AcDbCircle
 10
142.3749971538
 20
94.7499950399
 30
0.0
 40
0.5000000000000853
100
AcDbArc
 50
359.9999991463
 51
89.9999991463
  0
ARC
  5
4F8
330
1F
100
AcDbEntity
  8
0
  6
Continuous
 62
     7
370
    25
100
AcDbCircle
 10
-189.9999950248
 20
-47.1249957496
 30
0.0
 40
0.5000000000001421
100
AcDbArc
 50
179.9999991463
 51
269.9999991463
  0
ARC
  5
4F9
330
1F
100
AcDbEntity
  8
0
  6
Continuous
 62
     7
370
    25
100
AcDbCircle
 10
-142.374998588
 20
-190.9999922012
 30
0.0
 40
0.5000000000001705
100
AcDbArc
 50
89.9999991463
 51
179.9999991463
  0
ARC
  5
4FA
330
1F
100
AcDbEntity
  8
0
  6
Continuous
 62
     7
370
    25
100
AcDbCircle
 10
-143.3749985731
 20
-189.9999921863
 30
0.0
 40
0.4999999999996306
100
AcDbArc
 50
269.9999991462
 51
359.9999991463
  0
ENDSEC
  0
SECTION
  2
OBJECTS
  0
DICTIONARY
  5
C
330
0
100
AcDbDictionary
281
     1
  3
ACAD_GROUP
350
D
  3
ACAD_LAYOUT
350
1A
  3
ACAD_MLINESTYLE
350
17
  3
ACAD_PLOTSETTINGS
350
19
  3
ACAD_PLOTSTYLENAME
350
E
  3
ACAD_SCALELIST
350
47
  3
DWGPROPS
350
4FB
  0
DICTIONARY
  5
D
102
{ACAD_REACTORS
330
C
102
}
330
C
100
AcDbDictionary
281
     1
  0
DICTIONARY
  5
1A
102
{ACAD_REACTORS
330
C
102
}
330
C
100
AcDbDictionary
281
     1
  3
Layout1
350
1E
  3
Layout2
350
26
  3
Model
350
22
  0
DICTIONARY
  5
17
102
{ACAD_REACTORS
330
C
102
}
330
C
100
AcDbDictionary
281
     1
  3
Standard
350
18
  0
DICTIONARY
  5
19
102
{ACAD_REACTORS
330
C
102
}
330
C
100
AcDbDictionary
281
     1
  0
ACDBDICTIONARYWDFLT
  5
E
102
{ACAD_REACTORS
330
C
102
}
330
C
100
AcDbDictionary
281
     1
  3
Normal
350
F
100
AcDbDictionaryWithDefault
340
F
  0
DICTIONARY
  5
47
102
{ACAD_REACTORS
330
C
102
}
330
C
100
AcDbDictionary
281
     1
  3
A0
350
48
  3
A1
350
49
  3
A2
350
4A
  3
A3
350
4B
  3
A4
350
4C
  3
A5
350
4D
  3
A6
350
4E
  3
A7
350
4F
  3
A8
350
50
  3
A9
350
51
  3
B0
350
52
  3
B1
350
53
  3
B2
350
54
  3
B3
350
55
  3
B4
350
56
  3
B5
350
57
  3
B6
350
58
  0
XRECORD
  5
4FB
102
{ACAD_REACTORS
330
C
102
}
330
C
100
AcDbXrecord
280
     1
  1
DWGPROPS COOKIE
  2

  3

  4

  6

  7

  8
Cristian
  9

300
=
301
=
302
=
303
=
304
=
305
=
306
=
307
=
308
=
309
=
 40
0.0
 41
2461105.180875162
 42
2461105.180985764
  1

 90
        0
  0
LAYOUT
  5
1E
102
{ACAD_REACTORS
330
1A
102
}
330
1A
100
AcDbPlotSettings
  1

  2
none_device
  4

  6

 40
0.0
 41
0.0
 42
0.0
 43
0.0
 44
0.0
 45
0.0
 46
0.0
 47
0.0
 48
0.0
 49
0.0
140
0.0
141
0.0
142
1.0
143
1.0
 70
   688
 72
     1
 73
     0
 74
     5
  7

 75
    16
147
1.0
148
0.0
149
0.0
100
AcDbLayout
  1
Layout1
 70
     1
 71
     1
 10
0.0
 20
0.0
 11
420.0
 21
297.0
 12
0.0
 22
0.0
 32
0.0
 14
1.0000000000E+20
 24
1.0000000000E+20
 34
1.0000000000E+20
 15
-1.0000000000E+20
 25
-1.0000000000E+20
 35
-1.0000000000E+20
146
0.0
 13
0.0
 23
0.0
 33
0.0
 16
1.0
 26
0.0
 36
0.0
 17
0.0
 27
1.0
 37
0.0
 76
     0
330
1B
  0
LAYOUT
  5
26
102
{ACAD_REACTORS
330
1A
102
}
330
1A
100
AcDbPlotSettings
  1

  2
none_device
  4

  6

 40
0.0
 41
0.0
 42
0.0
 43
0.0
 44
0.0
 45
0.0
 46
0.0
 47
0.0
 48
0.0
 49
0.0
140
0.0
141
0.0
142
1.0
143
1.0
 70
   688
 72
     1
 73
     0
 74
     5
  7

 75
    16
147
1.0
148
0.0
149
0.0
100
AcDbLayout
  1
Layout2
 70
     1
 71
     2
 10
0.0
 20
0.0
 11
0.0
 21
0.0
 12
0.0
 22
0.0
 32
0.0
 14
0.0
 24
0.0
 34
0.0
 15
0.0
 25
0.0
 35
0.0
146
0.0
 13
0.0
 23
0.0
 33
0.0
 16
1.0
 26
0.0
 36
0.0
 17
0.0
 27
1.0
 37
0.0
 76
     0
330
23
  0
LAYOUT
  5
22
102
{ACAD_REACTORS
330
1A
102
}
330
1A
100
AcDbPlotSettings
  1

  2
none_device
  4
ANSI_A_(11.00_x_8.50_Inches)
  6

 40
6.35
 41
19.05
 42
6.35000508
 43
19.05000254
 44
279.4
 45
215.9
 46
133.3499975765
 47
96.4597211844
 48
0.0
 49
0.0
140
0.0
141
0.0
142
0.0102621344
143
1.0
 70
  1696
 72
     0
 73
     0
 74
     0
  7

 75
     0
147
0.0179189148
148
-1300.4909072572
149
0.0
100
AcDbLayout
  1
Model
 70
     1
 71
     0
 10
0.0
 20
0.0
 11
420.0
 21
297.0
 12
0.0
 22
0.0
 32
0.0
 14
-380.9999951865
 24
-439.0048610986
 34
0.0
 15
380.9999942924
 25
380.9999942924
 35
0.0
146
0.0
 13
0.0
 23
0.0
 33
0.0
 16
1.0
 26
0.0
 36
0.0
 17
0.0
 27
1.0
 37
0.0
 76
     0
330
1F
331
29
  0
MLINESTYLE
  5
18
102
{ACAD_REACTORS
330
17
102
}
330
17
100
AcDbMlineStyle
  2
Standard
 70
     0
  3

 62
   256
 51
90.0
 52
90.0
 71
     2
 49
0.5
 62
   256
  6
BYLAYER
 49
-0.5
 62
   256
  6
BYLAYER
  0
ACDBPLACEHOLDER
  5
F
102
{ACAD_REACTORS
330
E
102
}
330
E
  0
SCALE
  5
48
102
{ACAD_REACTORS
330
47
102
}
330
47
100
AcDbScale
 70
     0
300
1:1
140
1.0
141
1.0
290
     1
  0
SCALE
  5
49
102
{ACAD_REACTORS
330
47
102
}
330
47
100
AcDbScale
 70
     0
300
1:2
140
1.0
141
2.0
290
     0
  0
SCALE
  5
4A
102
{ACAD_REACTORS
330
47
102
}
330
47
100
AcDbScale
 70
     0
300
1:4
140
1.0
141
4.0
290
     0
  0
SCALE
  5
4B
102
{ACAD_REACTORS
330
47
102
}
330
47
100
AcDbScale
 70
     0
300
1:5
140
1.0
141
5.0
290
     0
  0
SCALE
  5
4C
102
{ACAD_REACTORS
330
47
102
}
330
47
100
AcDbScale
 70
     0
300
1:8
140
1.0
141
8.0
290
     0
  0
SCALE
  5
4D
102
{ACAD_REACTORS
330
47
102
}
330
47
100
AcDbScale
 70
     0
300
1:10
140
1.0
141
10.0
290
     0
  0
SCALE
  5
4E
102
{ACAD_REACTORS
330
47
102
}
330
47
100
AcDbScale
 70
     0
300
1:16
140
1.0
141
16.0
290
     0
  0
SCALE
  5
4F
102
{ACAD_REACTORS
330
47
102
}
330
47
100
AcDbScale
 70
     0
300
1:20
140
1.0
141
20.0
290
     0
  0
SCALE
  5
50
102
{ACAD_REACTORS
330
47
102
}
330
47
100
AcDbScale
 70
     0
300
1:30
140
1.0
141
30.0
290
     0
  0
SCALE
  5
51
102
{ACAD_REACTORS
330
47
102
}
330
47
100
AcDbScale
 70
     0
300
1:40
140
1.0
141
40.0
290
     0
  0
SCALE
  5
52
102
{ACAD_REACTORS
330
47
102
}
330
47
100
AcDbScale
 70
     0
300
1:50
140
1.0
141
50.0
290
     0
  0
SCALE
  5
53
102
{ACAD_REACTORS
330
47
102
}
330
47
100
AcDbScale
 70
     0
300
1:100
140
1.0
141
100.0
290
     0
  0
SCALE
  5
54
102
{ACAD_REACTORS
330
47
102
}
330
47
100
AcDbScale
 70
     0
300
2:1
140
2.0
141
1.0
290
     0
  0
SCALE
  5
55
102
{ACAD_REACTORS
330
47
102
}
330
47
100
AcDbScale
 70
     0
300
4:1
140
4.0
141
1.0
290
     0
  0
SCALE
  5
56
102
{ACAD_REACTORS
330
47
102
}
330
47
100
AcDbScale
 70
     0
300
8:1
140
8.0
141
1.0
290
     0
  0
SCALE
  5
57
102
{ACAD_REACTORS
330
47
102
}
330
47
100
AcDbScale
 70
     0
300
10:1
140
10.0
141
1.0
290
     0
  0
SCALE
  5
58
102
{ACAD_REACTORS
330
47
102
}
330
47
100
AcDbScale
 70
     0
300
100:1
140
100.0
141
1.0
290
     0
  0
ENDSEC
  0
EOF
