<?xml version="1.0"?>
<svg
  xmlns="http://www.w3.org/2000/svg"
  xmlns:xlink="http://www.w3.org/1999/xlink" version="1.1"
  preserveAspectRatio="xMinYMin meet"
  viewBox="-40 -17.5665042901 40 157.6995128702"
  width="100%" height="100%"
>
  <g stroke="#000000" stroke-width="0.1%" fill="none" transform="matrix(1,0,0,-1,0,0)">
    <g stroke="rgb(0, 0, 0)"><circle cx="-20" cy="8.5715042901" r="2.5" /></g>
<g stroke="rgb(0, 0, 0)"><circle cx="-20" cy="-78.5715042901" r="5.000000000000005" /></g>
<g stroke="rgb(0, 0, 0)"><circle cx="-20" cy="-9.216747855" r="2.499999999999998" /></g>
<g stroke="rgb(0, 0, 0)"><path d="M-40,13.5665042901L-40,-136.1330085801" /></g>
<g stroke="rgb(0, 0, 0)"><path d="M-36,17.5665042901L-4,17.5665042901" /></g>
<g stroke="rgb(0, 0, 0)"><path d="M0,13.5665042901L0,-136.1330085801" /></g>
<g stroke="rgb(0, 0, 0)"><path d="M-36,-140.1330085801L-4,-140.1330085801" /></g>
<g stroke="rgb(0, 0, 0)"><path d="M -40 -136.1330085801 A 4 4 0 0 1 -36 -140.1330085801" /></g>
<g stroke="rgb(0, 0, 0)"><path d="M -2.708944180085382e-14 13.5665042901 A 3.999999999999973 3.999999999999973 0 0 1 -3.9999999999999996 17.56650429009997" /></g>
<g stroke="rgb(0, 0, 0)"><path d="M -4.000000000000001 -140.1330085801 A 4 4 0 0 1 0 -136.1330085801" /></g>
<g stroke="rgb(0, 0, 0)"><path d="M -36 17.56650429009997 A 3.999999999999972 3.999999999999972 0 0 1 -39.99999999999997 13.5665042901" /></g>
  </g>
</svg>